<svg width="20" height="20" viewBox="0 0 20 20" fill="none" xmlns="http://www.w3.org/2000/svg">
<path d="M14.4107 1.91074C14.1667 2.15483 14.1667 2.54766 14.1667 3.33333V14.1667C14.1667 14.9523 14.1667 15.3452 14.4107 15.5893C14.6548 15.8333 15.0477 15.8333 15.8333 15.8333C16.619 15.8333 17.0118 15.8333 17.2559 15.5893C17.5 15.3452 17.5 14.9523 17.5 14.1667V3.33333C17.5 2.54766 17.5 2.15483 17.2559 1.91074C17.0118 1.66667 16.619 1.66667 15.8333 1.66667C15.0477 1.66667 14.6548 1.66667 14.4107 1.91074Z" fill="black"/>
<path d="M8.33334 5.83333C8.33334 5.04766 8.33334 4.65483 8.57742 4.41074C8.8215 4.16667 9.21434 4.16667 10 4.16667C10.7857 4.16667 11.1785 4.16667 11.4226 4.41074C11.6667 4.65483 11.6667 5.04766 11.6667 5.83333V14.1667C11.6667 14.9523 11.6667 15.3452 11.4226 15.5893C11.1785 15.8333 10.7857 15.8333 10 15.8333C9.21434 15.8333 8.8215 15.8333 8.57742 15.5893C8.33334 15.3452 8.33334 14.9523 8.33334 14.1667V5.83333Z" fill="black"/>
<path d="M2.74408 7.74407C2.5 7.98816 2.5 8.381 2.5 9.16667V14.1667C2.5 14.9523 2.5 15.3452 2.74408 15.5892C2.98816 15.8333 3.38099 15.8333 4.16667 15.8333C4.95234 15.8333 5.34517 15.8333 5.58926 15.5892C5.83333 15.3452 5.83333 14.9523 5.83333 14.1667V9.16667C5.83333 8.381 5.83333 7.98816 5.58926 7.74407C5.34517 7.5 4.95234 7.5 4.16667 7.5C3.38099 7.5 2.98816 7.5 2.74408 7.74407Z" fill="black"/>
<path d="M2.5 17.7083C2.15483 17.7083 1.875 17.9882 1.875 18.3333C1.875 18.6785 2.15483 18.9583 2.5 18.9583H17.5C17.8452 18.9583 18.125 18.6785 18.125 18.3333C18.125 17.9882 17.8452 17.7083 17.5 17.7083H2.5Z" fill="black"/>
</svg>
