<svg width="100" height="100" viewBox="0 0 100 100" fill="none" xmlns="http://www.w3.org/2000/svg">
<path d="M91.6667 91.6667H50C30.3582 91.6667 20.5372 91.6667 14.4353 85.5646C8.33337 79.4629 8.33337 69.6417 8.33337 50V37.5M8.33337 8.33334V20.8333" stroke="#303030" stroke-width="4" stroke-linecap="round"/>
<path d="M79.1675 29.1667L66.1754 45.5267C64.1854 48.0325 63.1904 49.2859 62.0483 49.8963C60.2917 50.8354 58.1929 50.8809 56.3975 50.0192C55.2296 49.4588 54.1813 48.2504 52.0842 45.8334C49.9867 43.4163 48.9383 42.2079 47.7704 41.6473C45.975 40.7856 43.8762 40.8313 42.12 41.77C40.9775 42.3809 39.9825 43.6338 37.9925 46.1396L25 62.5" stroke="#303030" stroke-width="4" stroke-linecap="round"/>
</svg>
