<svg width="100" height="100" viewBox="0 0 100 100" fill="none" xmlns="http://www.w3.org/2000/svg">
<path d="M20.8333 58.3333C25.4357 58.3333 29.1667 54.6025 29.1667 50C29.1667 45.3975 25.4357 41.6667 20.8333 41.6667C16.231 41.6667 12.5 45.3975 12.5 50" stroke="#303030" stroke-width="4" stroke-linecap="round"/>
<path d="M50 58.3333C54.6023 58.3333 58.3333 54.6024 58.3333 50C58.3333 45.3976 54.6023 41.6667 50 41.6667C45.3976 41.6667 41.6666 45.3976 41.6666 50C41.6666 54.6024 45.3976 58.3333 50 58.3333Z" stroke="#303030" stroke-width="4"/>
<path d="M87.4999 50C87.4999 54.6025 83.7691 58.3333 79.1666 58.3333C74.5641 58.3333 70.8333 54.6025 70.8333 50C70.8333 45.3975 74.5641 41.6667 79.1666 41.6667" stroke="#303030" stroke-width="4" stroke-linecap="round"/>
</svg>
