<svg width="20" height="20" viewBox="0 0 20 20" fill="none" xmlns="http://www.w3.org/2000/svg">
<path d="M13.1833 14.525C13.0272 14.3698 12.816 14.2827 12.5958 14.2827C12.3757 14.2827 12.1645 14.3698 12.0083 14.525L10.8333 15.7V10C10.8333 9.77899 10.7455 9.56703 10.5893 9.41075C10.433 9.25447 10.221 9.16667 10 9.16667C9.77899 9.16667 9.56703 9.25447 9.41075 9.41075C9.25447 9.56703 9.16667 9.77899 9.16667 10V15.5833L7.99167 14.4083C7.83554 14.2531 7.62433 14.166 7.40417 14.166C7.18402 14.166 6.97281 14.2531 6.81667 14.4083C6.73857 14.4858 6.67657 14.578 6.63426 14.6795C6.59196 14.7811 6.57018 14.89 6.57018 15C6.57018 15.11 6.59196 15.2189 6.63426 15.3205C6.67657 15.422 6.73857 15.5142 6.81667 15.5917L9.46667 18.2417C9.54414 18.3198 9.63631 18.3818 9.73786 18.4241C9.83941 18.4664 9.94833 18.4882 10.0583 18.4882C10.1684 18.4882 10.2773 18.4664 10.3788 18.4241C10.4804 18.3818 10.5725 18.3198 10.65 18.2417L13.15 15.7417C13.2354 15.666 13.3044 15.5736 13.3527 15.4702C13.401 15.3668 13.4275 15.2546 13.4306 15.1406C13.4337 15.0265 13.4134 14.913 13.3709 14.8071C13.3283 14.7012 13.2645 14.6052 13.1833 14.525Z" fill="black"/>
<path d="M18.3333 10C18.3333 11.1051 17.8944 12.1649 17.1129 12.9463C16.3315 13.7277 15.2717 14.1667 14.1667 14.1667H13.9667C13.912 14.0843 13.8476 14.0088 13.775 13.9417C13.5022 13.6679 13.1428 13.4974 12.7582 13.4594C12.3736 13.4214 11.9877 13.5182 11.6667 13.7333V10C11.6667 9.55797 11.4911 9.13405 11.1785 8.82149C10.866 8.50893 10.442 8.33333 10 8.33333C9.55798 8.33333 9.13405 8.50893 8.82149 8.82149C8.50893 9.13405 8.33334 9.55797 8.33334 10V13.6167C8.01226 13.4016 7.62641 13.3047 7.24181 13.3427C6.85721 13.3807 6.49777 13.5512 6.225 13.825C6.19834 13.8489 6.17582 13.8771 6.15834 13.9083C5.1317 13.6062 4.19982 13.0456 3.45198 12.2801C2.70413 11.5146 2.16538 10.5699 1.88731 9.53647C1.60925 8.50306 1.6012 7.41556 1.86393 6.37814C2.12665 5.34072 2.65136 4.38815 3.38779 3.61166C4.12421 2.83517 5.04768 2.26077 6.06974 1.94351C7.09179 1.62624 8.17819 1.57672 9.22488 1.79969C10.2716 2.02267 11.2435 2.51067 12.0475 3.21695C12.8515 3.92322 13.4607 4.82412 13.8167 5.83333C13.9333 5.83333 14.05 5.83333 14.1667 5.83333C15.2717 5.83333 16.3315 6.27232 17.1129 7.05372C17.8944 7.83512 18.3333 8.89493 18.3333 10Z" fill="black"/>
</svg>
