<svg width="100" height="100" viewBox="0 0 100 100" fill="none" xmlns="http://www.w3.org/2000/svg">
<path d="M37.5 70.8333C41.0432 68.207 45.3525 66.6666 50 66.6666C54.6475 66.6666 58.9567 68.207 62.5 70.8333" stroke="#303030" stroke-width="6" stroke-linecap="round"/>
<path d="M62.4999 50C64.8011 50 66.6666 47.2018 66.6666 43.75C66.6666 40.2982 64.8011 37.5 62.4999 37.5C60.1987 37.5 58.3333 40.2982 58.3333 43.75C58.3333 47.2018 60.1987 50 62.4999 50Z" fill="#303030"/>
<path d="M37.5 50C39.8012 50 41.6666 47.2018 41.6666 43.75C41.6666 40.2982 39.8012 37.5 37.5 37.5C35.1988 37.5 33.3333 40.2982 33.3333 43.75C33.3333 47.2018 35.1988 50 37.5 50Z" fill="#303030"/>
<path d="M29.1666 13.9076C35.2953 10.3624 42.4108 8.33331 50 8.33331C73.0117 8.33331 91.6667 26.9881 91.6667 50C91.6667 73.0117 73.0117 91.6667 50 91.6667C26.9881 91.6667 8.33331 73.0117 8.33331 50C8.33331 42.4108 10.3624 35.2953 13.9076 29.1666" stroke="#303030" stroke-width="6" stroke-linecap="round"/>
</svg>
