<svg width="100" height="100" viewBox="0 0 100 100" fill="none" xmlns="http://www.w3.org/2000/svg">
<path d="M37.5 66.6666C41.6667 66.6666 45.3525 66.6666 50 66.6666C54.6475 66.6666 58.3333 66.6666 62.5 66.6666" stroke="#303030" stroke-width="6" stroke-linecap="round"/>
<path d="M66.6667 43.75C66.6667 47.2017 64.8013 50 62.5 50C60.1988 50 58.3334 47.2017 58.3334 43.75C58.3334 40.2982 60.1988 37.5 62.5 37.5C64.8013 37.5 66.6667 40.2982 66.6667 43.75Z" fill="#303030"/>
<path d="M37.5 50C39.8012 50 41.6667 47.2018 41.6667 43.75C41.6667 40.2982 39.8012 37.5 37.5 37.5C35.1989 37.5 33.3334 40.2982 33.3334 43.75C33.3334 47.2018 35.1989 50 37.5 50Z" fill="#303030"/>
<path d="M29.1667 13.9076C35.2953 10.3624 42.4109 8.33331 50 8.33331C73.0117 8.33331 91.6667 26.9881 91.6667 50C91.6667 73.0117 73.0117 91.6667 50 91.6667C26.9882 91.6667 8.33337 73.0117 8.33337 50C8.33337 42.4108 10.3624 35.2953 13.9076 29.1666" stroke="#303030" stroke-width="6" stroke-linecap="round"/>
</svg>
