<svg width="100" height="100" viewBox="0 0 100 100" fill="none" xmlns="http://www.w3.org/2000/svg">
<path d="M37.5 66.6666C37.5 76.5 45.3525 76.5 50 76.5C54.6475 76.5 62.5 76.5 62.5 66.6666" stroke="#303030" stroke-width="6" stroke-linecap="round"/>
<path d="M38 66C46.16 66 45.5384 66 50 66C54.4616 66 51.92 66 62 66" stroke="#303030" stroke-width="6" stroke-linecap="round"/>
<path d="M38 69C46.16 69 45.5384 69 50 69C54.4616 69 51.92 69 62 69" stroke="#303030" stroke-width="6" stroke-linecap="round"/>
<path d="M39 71C46.48 71 45.9102 71 50 71C54.0898 71 51.76 71 61 71" stroke="#303030" stroke-width="6" stroke-linecap="round"/>
<path d="M57 42C58.7008 40.7394 60.7692 40 63 40C65.2308 40 67.2992 40.7394 69 42" stroke="#303030" stroke-width="6" stroke-linecap="round"/>
<path d="M31 42C32.7008 40.7394 34.7692 40 37 40C39.2308 40 41.2992 40.7394 43 42" stroke="#303030" stroke-width="6" stroke-linecap="round"/>
<path d="M29.1667 13.9076C35.2953 10.3624 42.4109 8.33331 50 8.33331C73.0117 8.33331 91.6667 26.9881 91.6667 50C91.6667 73.0117 73.0117 91.6667 50 91.6667C26.9882 91.6667 8.33337 73.0117 8.33337 50C8.33337 42.4108 10.3624 35.2953 13.9076 29.1666" stroke="#303030" stroke-width="6" stroke-linecap="round"/>
</svg>
