<svg width="100" height="100" viewBox="0 0 100 100" fill="none" xmlns="http://www.w3.org/2000/svg">
<path d="M36 75C39.9684 66.8061 44.7948 62 50 62C55.2052 62 60.0315 66.8061 64 75" stroke="#303030" stroke-width="6" stroke-linecap="round"/>
<path d="M36 75C39.9684 71.2182 44.7948 69 50 69C55.2052 69 60.0315 71.2182 64 75" stroke="#303030" stroke-width="6" stroke-linecap="round"/>
<path d="M37 74C40.685 69.5879 45.1666 67 50 67C54.8334 67 59.3149 69.5879 63 74" stroke="#303030" stroke-width="6" stroke-linecap="round"/>
<path d="M43 42C41.2992 43.2606 39.2308 44 37 44C34.7692 44 32.7008 43.2606 31 42" stroke="#303030" stroke-width="6" stroke-linecap="round"/>
<path d="M69 42C67.2992 43.2606 65.2308 44 63 44C60.7692 44 58.7008 43.2606 57 42" stroke="#303030" stroke-width="6" stroke-linecap="round"/>
<path d="M29.1666 13.9076C35.2953 10.3624 42.4108 8.33331 50 8.33331C73.0117 8.33331 91.6667 26.9881 91.6667 50C91.6667 73.0117 73.0117 91.6667 50 91.6667C26.9881 91.6667 8.33331 73.0117 8.33331 50C8.33331 42.4108 10.3624 35.2953 13.9076 29.1666" stroke="#303030" stroke-width="6" stroke-linecap="round"/>
</svg>
