<svg width="192" height="192" viewBox="0 0 192 192" fill="none" xmlns="http://www.w3.org/2000/svg">
<g clip-path="url(#clip0_37_37)">
<path d="M101.709 120.55H90.2908V18.1365H81.3658L81.3658 78.9444V121.622C81.3658 129.691 87.9305 136.256 95.9998 136.256C104.069 136.256 110.634 129.691 110.634 121.622V78.9444V18.1362H101.709V120.55Z" fill="#FDBA74"/>
<path d="M20.337 38.7796L20.337 86.2865H8.91939L8.91939 53.8816C3.30751 63.8634 0.0761251 75.3527 0 87.5788C0.118875 95.5461 6.63301 101.992 14.6284 101.992C22.6973 101.992 29.2624 95.4276 29.2624 87.3583V78.9448L29.2624 31.1836C26.0779 33.4658 23.0925 36.0083 20.337 38.7796Z" fill="#FDBA74"/>
<path d="M81.3661 143.163V173.864H90.2912V159.096H101.709V173.864H110.634V143.163C106.46 146.008 101.422 147.674 96.0002 147.674C90.5788 147.674 85.5399 146.008 81.3661 143.163Z" fill="#FDBA74"/>
<path d="M171.663 38.7792C168.907 36.0072 165.922 33.4654 162.738 31.1832V78.9444V87.3579C162.738 95.4268 169.302 101.992 177.372 101.992C185.367 101.992 191.881 95.5457 192 87.5784C191.924 75.3526 188.693 63.863 183.081 53.8816V86.2865H171.663V38.7792Z" fill="#FDBA74"/>
<path d="M61.0231 18.6949V41.4698H49.6051V21.1384C46.5361 22.0707 43.5556 23.208 40.6801 24.5359V57.4036C44.8542 54.5585 49.8927 52.8924 55.3141 52.8924C60.7355 52.8924 65.7736 54.5585 69.9481 57.4036V18.1362H69.8769C66.8788 18.1365 63.9238 18.3267 61.0231 18.6949Z" fill="#FDBA74"/>
<path d="M122.052 78.9448V121.622V173.864H122.123C125.122 173.864 128.077 173.673 130.977 173.305V80.0158H142.395V170.862C145.464 169.93 148.444 168.792 151.32 167.464V87.3587V78.9452C151.32 70.8763 144.755 64.3111 136.686 64.3111C128.617 64.3108 122.052 70.8759 122.052 78.9448Z" fill="#FDBA74"/>
<path d="M122.052 57.404C126.226 54.5589 131.265 52.8927 136.686 52.8927C142.107 52.8927 147.146 54.5589 151.32 57.404V24.5363C148.444 23.2084 145.464 22.0707 142.395 21.1388V41.4702H130.977V18.6953C128.077 18.327 125.122 18.1365 122.123 18.1365H122.052V57.404Z" fill="#FDBA74"/>
<path d="M162.738 108.899V160.817C165.922 158.535 168.907 155.993 171.663 153.221V124.833H183.081V138.119C187.983 129.399 191.07 119.53 191.823 109.022C187.685 111.792 182.714 113.41 177.372 113.41C171.951 113.41 166.912 111.744 162.738 108.899Z" fill="#FDBA74"/>
<path d="M14.6284 113.41C9.28614 113.41 4.31588 111.791 0.177376 109.022C0.929627 119.529 4.01701 129.399 8.91939 138.118V124.833H20.3374L20.3374 153.22C23.0925 155.992 26.0779 158.535 29.2624 160.816L29.2624 108.899C25.0883 111.743 20.0494 113.41 14.6284 113.41Z" fill="#FDBA74"/>
<path d="M40.6801 78.9444V87.3579L40.6801 167.464C43.556 168.792 46.5361 169.93 49.6051 170.862L49.6051 80.0162H61.0231L61.0231 173.305C63.9234 173.673 66.8784 173.864 69.8769 173.864H69.9481V121.621V78.944C69.9481 70.8751 63.3834 64.31 55.3141 64.31C47.2448 64.3104 40.6801 70.8755 40.6801 78.9444Z" fill="#FDBA74"/>
</g>
<defs>
<clipPath id="clip0_37_37">
<rect width="192" height="192" fill="white" transform="matrix(0 -1 1 0 0 192)"/>
</clipPath>
</defs>
</svg>
