<svg width="192" height="192" viewBox="0 0 192 192" fill="none" xmlns="http://www.w3.org/2000/svg">
<rect width="192" height="192" fill="white"/>
<g clip-path="url(#clip0_98_36)">
<path d="M100.757 114.449H91.2423V16.0004H83.8048V74.454V115.479C83.8048 123.235 89.2754 129.546 95.9998 129.546C102.724 129.546 108.195 123.236 108.195 115.479V74.454V16H100.757V114.449Z" fill="#FDBA74"/>
<path d="M32.9475 45.204V87.1322H23.4328L23.4328 58.5326C18.7563 67.3422 16.0634 77.4822 16 88.2727C16.0991 95.3043 21.5275 100.994 28.1903 100.994C34.9144 100.994 40.3854 95.1997 40.3854 88.0781V80.6525V38.5C37.7316 40.5142 35.2438 42.7582 32.9475 45.204Z" fill="#FDBA74"/>
<path d="M83.8052 135.302V176H91.2427V156.424H100.758V176H108.195V135.302C104.717 139.074 100.518 141.282 96.0002 141.282C91.4824 141.282 87.2833 139.074 83.8052 135.302Z" fill="#FDBA74"/>
<path d="M159.052 45.204C156.756 42.7575 154.268 40.5142 151.615 38.5V80.6523V88.0778C151.615 95.1991 157.085 100.993 163.81 100.993C170.472 100.993 175.901 95.304 176 88.2724C175.937 77.4824 173.244 67.342 168.567 58.5328V87.1323H159.052V45.204Z" fill="#FDBA74"/>
<path d="M66.8526 16.6807V44.4255H57.3375V19.6574C54.78 20.7931 52.2963 22.1787 49.9 23.7963V63.8364C53.3785 60.3704 57.5772 58.3407 62.095 58.3407C66.6129 58.3407 70.8113 60.3704 74.2901 63.8364V16H74.2307C71.7323 16.0005 69.2697 16.2321 66.8526 16.6807Z" fill="#FDBA74"/>
<path d="M117.71 83.8061V125.258V176H117.769C120.268 176 122.731 175.815 125.147 175.457V84.8464H134.662V173.084C137.22 172.179 139.704 171.074 142.1 169.784V91.9784V83.8065C142.1 75.9692 136.629 69.5926 129.905 69.5926C123.181 69.5922 117.71 75.9689 117.71 83.8061Z" fill="#FDBA74"/>
<path d="M117.71 63.8367C121.189 60.5518 125.387 58.6281 129.905 58.6281C134.423 58.6281 138.622 60.5518 142.1 63.8367V25.8889C139.703 24.3558 137.22 23.0422 134.662 21.9663V45.4402H125.147V19.1451C122.731 18.72 120.268 18.5 117.769 18.5H117.71V63.8367Z" fill="#FDBA74"/>
<path d="M151.615 106.75V152.667C154.268 150.649 156.756 148.4 159.052 145.949V120.842H168.567V132.592C172.652 124.88 175.225 116.151 175.852 106.858C172.404 109.308 168.262 110.739 163.81 110.739C159.292 110.739 155.093 109.265 151.615 106.75Z" fill="#FDBA74"/>
<path d="M28.1904 110.739C23.7385 110.739 19.5966 109.307 16.1478 106.858C16.7747 116.151 19.3475 124.88 23.4328 132.592V120.842H32.9479V145.949C35.2438 148.4 37.7316 150.649 40.3854 152.667V106.749C36.9069 109.265 32.7079 110.739 28.1904 110.739Z" fill="#FDBA74"/>
<path d="M49.9 83.8059V91.9778L49.9 169.784C52.2966 171.074 54.78 172.179 57.3375 173.084L57.3375 84.8469H66.8526V175.457C69.2694 175.815 71.7319 176 74.2307 176H74.2901V125.258V83.8055C74.2901 75.9683 68.8194 69.5917 62.095 69.5917C55.3707 69.592 49.9 75.9687 49.9 83.8059Z" fill="#FDBA74"/>
</g>
<defs>
<clipPath id="clip0_98_36">
<rect x="16" y="176" width="160" height="160" rx="80" transform="rotate(-90 16 176)" fill="white"/>
</clipPath>
</defs>
</svg>
