<svg width="100" height="100" viewBox="0 0 100 100" fill="none" xmlns="http://www.w3.org/2000/svg">
<path d="M50 70.8333V62.5" stroke="#303030" stroke-width="4" stroke-linecap="round"/>
<path d="M57.2183 58.3333C55.7774 60.8242 53.0845 62.5 49.9999 62.5C46.9154 62.5 44.2224 60.8242 42.7816 58.3333" stroke="#303030" stroke-width="4" stroke-linecap="round"/>
<path d="M60.4167 81.25H39.5833M60.4167 81.25C60.4167 78.2771 60.4167 76.7904 60.5754 75.8042C61.0871 72.6234 61.1767 72.4229 63.205 69.9196C63.8337 69.1438 66.1687 67.0529 70.8383 62.8717C77.2287 57.1496 81.25 48.8358 81.25 39.5833C81.25 35.9309 80.6233 32.4248 79.4717 29.1667M60.4167 81.25C60.4167 85.1442 60.4167 87.0913 59.5792 88.5417C59.0308 89.4917 58.2417 90.2808 57.2917 90.8292C55.8412 91.6667 53.8942 91.6667 50 91.6667C46.1058 91.6667 44.1587 91.6667 42.7083 90.8292C41.7583 90.2808 40.9692 89.4917 40.4207 88.5417C39.5833 87.0913 39.5833 85.1442 39.5833 81.25M39.5833 81.25C39.5833 78.2771 39.5833 76.7904 39.4247 75.8042C38.9129 72.6234 38.8234 72.4229 36.7951 69.9196C36.1661 69.1438 33.831 67.0529 29.1615 62.8717C22.7713 57.1496 18.75 48.8358 18.75 39.5833C18.75 22.3244 32.7411 8.33334 50 8.33334C55.6821 8.33334 61.0096 9.84976 65.6008 12.5" stroke="#303030" stroke-width="4" stroke-linecap="round"/>
</svg>
