<svg width="20" height="20" viewBox="0 0 20 20" fill="none" xmlns="http://www.w3.org/2000/svg">
<path d="M3.08217 17.4066C2.93717 17.2095 2.77003 17.0318 2.56074 16.9023C2.44145 16.8289 2.30431 16.8052 2.17217 16.8239C2.13645 16.816 2.10002 16.811 2.06145 16.8059C1.94431 16.793 1.82716 16.7836 1.71073 16.7836C1.55002 16.7836 1.39002 16.8002 1.23073 16.844C0.785727 16.9678 0.394295 17.2649 0.197151 17.6921C0.0607214 17.9914 -0.0199935 18.3108 0.00429237 18.641C0.0192925 18.8381 0.06715 18.9992 0.164294 19.1697C0.216437 19.2589 0.287152 19.343 0.350009 19.4214C0.436438 19.5329 0.550725 19.6336 0.665726 19.7106C1.00787 19.9394 1.4493 20.0343 1.85145 19.989C1.95002 19.9782 2.04431 19.9645 2.13859 19.9394C2.24002 19.9135 2.34788 19.8502 2.43645 19.7948C2.54145 19.73 2.6386 19.6416 2.72931 19.5581C2.84288 19.4524 2.94289 19.3279 3.02717 19.197C3.1136 19.0661 3.17074 18.9136 3.22717 18.7676C3.26432 18.6712 3.2986 18.5705 3.31575 18.4683C3.35146 18.2669 3.35003 18.1389 3.32003 17.9382C3.29003 17.7432 3.19646 17.5641 3.08217 17.4066ZM2.12788 18.3007C2.11002 18.3863 2.08574 18.4697 2.05645 18.5518C2.04002 18.5856 2.02216 18.6179 2.00216 18.6503C1.95716 18.6999 1.90931 18.7453 1.86002 18.7899C1.83431 18.8071 1.80788 18.8237 1.78073 18.8388C1.77859 18.8395 1.77573 18.8402 1.77359 18.8402C1.70645 18.8452 1.6393 18.8467 1.57145 18.8431C1.50787 18.8287 1.44645 18.8129 1.38573 18.792C1.36145 18.7783 1.33787 18.764 1.31502 18.7489C1.28787 18.723 1.26287 18.6963 1.23787 18.6683C1.21573 18.6345 1.1943 18.6007 1.1743 18.5654C1.17216 18.5108 1.17287 18.4568 1.17573 18.4021C1.19144 18.3252 1.21144 18.2504 1.23644 18.1763C1.25287 18.1439 1.27073 18.1122 1.2893 18.0813C1.3193 18.0497 1.35073 18.0202 1.38287 17.9907C1.42359 17.9648 1.4643 17.941 1.50716 17.9195C1.56145 17.9 1.61573 17.8842 1.67145 17.8713C1.71716 17.8691 1.76359 17.8705 1.80931 17.8727C1.84645 17.9123 1.88931 17.9468 1.93716 17.9756C1.94074 17.9777 1.94431 17.9799 1.94788 17.982C1.98216 18.0137 2.01359 18.0468 2.04502 18.0813C2.07002 18.118 2.09359 18.1547 2.11431 18.1935C2.11931 18.2115 2.12431 18.2295 2.12931 18.2475C2.12931 18.2647 2.12859 18.2827 2.12788 18.3007ZM5.90505 14.2472C5.69862 14.0667 5.47005 13.9458 5.21433 13.8545C5.1079 13.8171 4.99647 13.8228 4.89433 13.8588C4.80504 13.784 4.6929 13.7365 4.57218 13.7365C4.56504 13.7365 4.5579 13.7365 4.55075 13.7372C4.29932 13.748 4.08289 13.8444 3.85861 13.9494C3.67146 14.0379 3.51003 14.1559 3.36075 14.3005C3.22003 14.4386 3.11717 14.6148 3.03789 14.7939C2.98074 14.9277 2.92717 15.0586 2.8986 15.2018C2.87789 15.3075 2.86431 15.4169 2.85074 15.5241C2.84146 15.6025 2.83431 15.6794 2.84003 15.7586C2.85074 15.924 2.90146 16.07 2.97003 16.2175C3.08646 16.4685 3.30503 16.6541 3.52789 16.8045C3.72075 16.9325 3.94218 17.0095 4.16218 17.0742C4.37004 17.1361 4.58647 17.1872 4.80361 17.1677C5.11147 17.1404 5.42862 17.0383 5.68433 16.8649C6.00577 16.6469 6.23291 16.2614 6.34077 15.8909C6.38434 15.7406 6.39648 15.573 6.41363 15.4183C6.42863 15.2816 6.4272 15.1507 6.39863 15.0148C6.33434 14.7263 6.12362 14.4386 5.90505 14.2472ZM3.95218 15.7183C3.95075 15.7176 3.95004 15.7161 3.94861 15.7154C3.95004 15.7168 3.95218 15.7183 3.95218 15.7183ZM3.95432 15.7197C3.96289 15.7262 3.97146 15.7327 3.97932 15.7391C3.97075 15.7327 3.96218 15.7262 3.95432 15.7197ZM5.27647 15.4198C5.26433 15.4931 5.24933 15.5665 5.22647 15.637C5.18505 15.7212 5.13862 15.801 5.0879 15.8794C5.07719 15.8909 5.06647 15.9024 5.05504 15.9132C5.0079 15.942 4.95861 15.9679 4.90861 15.9916C4.86147 16.0082 4.81433 16.0218 4.76504 16.0326C4.73433 16.0341 4.70361 16.0348 4.67218 16.0333C4.53147 16.0024 4.39075 15.9636 4.25432 15.9139C4.18075 15.8751 4.11147 15.8327 4.04432 15.7859C4.02504 15.7672 4.00647 15.7478 3.98861 15.7283C3.97575 15.7082 3.96361 15.6873 3.95218 15.6658C3.95146 15.6075 3.95575 15.55 3.96146 15.4917C3.97861 15.4032 4.00146 15.3183 4.03146 15.2349C4.05932 15.1809 4.08789 15.1291 4.12004 15.0781C4.14932 15.0471 4.17932 15.0176 4.21075 14.9896C4.24647 14.9673 4.28218 14.9471 4.32004 14.9292C4.40004 14.8968 4.48004 14.8673 4.5629 14.8443C4.61075 14.8414 4.65718 14.8328 4.70147 14.8191C4.7479 14.8572 4.80076 14.8867 4.85861 14.9133C4.85719 14.9126 4.85576 14.9119 4.85433 14.9112C4.93576 14.95 5.01147 14.9932 5.08504 15.0435C5.1379 15.0903 5.18647 15.1399 5.23219 15.1932C5.24933 15.2198 5.26505 15.2471 5.28076 15.2752C5.28219 15.3234 5.28076 15.3716 5.27647 15.4198ZM19.948 11.6835C19.918 11.8792 19.8552 12.0648 19.788 12.2496C19.7344 12.3971 19.673 12.551 19.5894 12.6848C19.4266 12.9467 19.2337 13.1956 19.0201 13.4193C18.5923 13.8681 18.0544 14.253 17.4566 14.4371C17.1573 14.5292 16.8558 14.5997 16.5416 14.622C16.3987 14.6306 16.2544 14.6285 16.1108 14.6328C16.0166 14.7803 15.928 14.9306 15.8223 15.0702C15.643 15.3083 15.4587 15.5442 15.263 15.7701C15.0373 16.0305 14.8051 16.2894 14.5108 16.4743C14.2973 16.6081 14.0844 16.7484 13.8637 16.8735C13.6037 17.0224 13.3165 17.1116 13.0208 17.1562C12.7308 17.1987 12.4408 17.239 12.1465 17.2267C11.8594 17.2145 11.5751 17.1879 11.3037 17.0893C11.1572 17.0354 11.0079 16.9807 10.8715 16.9073C10.7979 16.8678 10.7244 16.8297 10.6487 16.7951C10.5744 16.7649 10.4994 16.734 10.4301 16.6951C10.3687 16.6577 10.3072 16.621 10.2444 16.5865C10.1008 16.5081 9.95437 16.4347 9.81508 16.3513C9.69222 16.2772 9.57436 16.1894 9.45222 16.1096C9.38936 16.152 9.32365 16.1902 9.25293 16.2218C9.06293 16.3089 8.86722 16.3844 8.6665 16.4419C8.18221 16.5808 7.67221 16.7433 7.1622 16.675C7.06363 16.675 6.97363 16.6505 6.88863 16.6009C6.80791 16.5527 6.7422 16.488 6.69434 16.4052C6.62148 16.2801 6.60148 16.1269 6.63934 15.9866C6.72006 15.6917 7.01792 15.5392 7.30578 15.6053C7.33435 15.6125 7.36292 15.619 7.39149 15.6248C7.47792 15.6284 7.56363 15.6226 7.65006 15.6154C7.97792 15.5571 8.30078 15.4572 8.61007 15.3334C8.69079 15.2975 8.76936 15.2579 8.84293 15.209C8.87864 15.1766 8.91293 15.1421 8.94722 15.1076C9.11793 14.9342 9.37293 14.8407 9.61079 14.9227C9.83079 15.0011 10.0129 15.1608 10.2101 15.2809C10.4387 15.4212 10.6808 15.532 10.9144 15.66C11.0829 15.7499 11.2572 15.8384 11.4322 15.9168C11.5887 15.9772 11.748 16.0305 11.9122 16.0628C12.1872 16.0859 12.4637 16.0815 12.738 16.0499C12.918 16.0226 13.0951 15.988 13.2658 15.9262C13.3915 15.865 13.5108 15.7952 13.6301 15.7219C13.7708 15.6348 13.9165 15.5579 14.053 15.4672C14.3465 15.2083 14.598 14.8939 14.8408 14.5846C14.9365 14.4515 15.0265 14.3156 15.1108 14.1746C15.2544 13.9307 15.3815 13.6344 15.6851 13.5603C15.8123 13.53 15.9423 13.5344 16.0723 13.538C16.1201 13.5394 16.1694 13.5408 16.2187 13.5394C16.3651 13.538 16.5116 13.5336 16.6573 13.5214C16.8808 13.4797 17.0958 13.415 17.3101 13.3387C17.5323 13.2337 17.7387 13.1064 17.9373 12.9603C18.143 12.7805 18.3259 12.5884 18.4966 12.3762C18.5894 12.2424 18.673 12.1079 18.7437 11.9619C18.8073 11.7821 18.8616 11.6037 18.8951 11.4159C18.913 11.1742 18.913 10.9318 18.8951 10.6901C18.8416 10.3729 18.7423 10.0679 18.6237 9.76862C18.5437 9.58951 18.4587 9.41039 18.3466 9.24854C18.2373 9.08813 18.1266 8.92772 18.0137 8.76946C17.9866 8.73781 17.9587 8.7076 17.928 8.67954C17.8723 8.63926 17.8151 8.5997 17.7601 8.5587C17.7016 8.51338 17.6273 8.46518 17.5766 8.40548C17.4273 8.23068 17.3566 8.01128 17.4137 7.78181C17.4601 7.60269 17.5809 7.44156 17.6666 7.27899C17.7551 7.11139 17.8394 6.94162 17.9187 6.76826C18.0044 6.55174 18.0744 6.33522 18.118 6.10719C18.1487 5.73961 18.1144 5.36411 18.0723 4.99797C18.053 4.88287 18.0273 4.77209 17.9887 4.66204C17.9566 4.60017 17.9209 4.54191 17.8816 4.48508C17.7916 4.38005 17.6951 4.28366 17.5909 4.19375C17.3616 4.0283 17.1151 3.90026 16.8573 3.78588C16.5158 3.64921 16.1651 3.56361 15.8051 3.50246C15.4687 3.46578 15.1308 3.47225 14.7944 3.50894C14.7065 3.52476 14.6251 3.54634 14.5415 3.57655C14.3787 3.65424 14.2165 3.72833 14.0294 3.67223C13.8173 3.60892 13.6673 3.44635 13.6037 3.23415C13.5687 3.11402 13.5422 2.99749 13.5001 2.88095C13.3822 2.61839 13.2508 2.36878 13.0844 2.13428C12.9251 1.94365 12.753 1.77173 12.5622 1.61204C12.4165 1.50702 12.2644 1.42357 12.103 1.34804C11.9215 1.28402 11.7365 1.23582 11.5522 1.18331C11.3872 1.13727 11.2272 1.0934 11.0608 1.06462C10.7365 1.03729 10.4172 1.03297 10.0929 1.06031C9.96151 1.08117 9.83151 1.10562 9.70222 1.13512C9.56365 1.16605 9.42936 1.22072 9.29865 1.27323C9.16365 1.33437 9.03007 1.3984 8.90079 1.47105C8.7615 1.55089 8.63079 1.64153 8.50078 1.73361C8.26507 1.92279 8.04078 2.12133 7.84149 2.34864C7.78721 2.42705 7.73721 2.50762 7.69149 2.59322C7.63006 2.71047 7.59006 2.83851 7.52221 2.95433C7.46863 3.0428 7.41149 3.12481 7.34863 3.20609C7.24078 3.34277 7.07792 3.42477 6.90434 3.42909C6.79577 3.43197 6.7072 3.39816 6.61648 3.35716C6.51148 3.32119 6.40077 3.30177 6.29291 3.27875C6.1822 3.25645 6.07077 3.23559 5.95934 3.21688C5.60291 3.18164 5.24647 3.18308 4.89361 3.21616C4.7079 3.2471 4.5279 3.29098 4.35004 3.35572C4.20361 3.42909 4.06361 3.50822 3.92861 3.60101C3.82432 3.68949 3.73289 3.78588 3.64361 3.88875C3.51932 4.06714 3.41432 4.25057 3.32289 4.44839C3.21717 4.74188 3.14574 5.04041 3.09717 5.349C3.07146 5.59214 3.06432 5.83024 3.08217 6.07554C3.1086 6.23883 3.14717 6.39492 3.20503 6.55102C3.27575 6.69992 3.35146 6.84667 3.43289 6.9891C3.51932 7.14232 3.62575 7.26604 3.68218 7.43653C3.76003 7.67319 3.69575 7.93791 3.51932 8.11414C3.44575 8.18824 3.3636 8.22996 3.27289 8.27384C3.11432 8.35225 2.9536 8.43497 2.80146 8.52776C2.69003 8.62559 2.58788 8.73134 2.49003 8.84355C2.41931 8.94498 2.35717 9.05 2.30217 9.1615C2.27074 9.25789 2.25288 9.35644 2.23645 9.45643C2.20717 9.77941 2.22788 10.0966 2.26645 10.4167C2.32788 10.8038 2.41288 11.1778 2.54574 11.5468C2.59288 11.6547 2.64503 11.759 2.71003 11.8576C2.84146 12.0094 2.99003 12.1352 3.14646 12.2604C3.26503 12.3453 3.38575 12.418 3.5186 12.4813C3.57003 12.5021 3.62146 12.523 3.67361 12.5438C3.82146 12.5999 3.93861 12.6704 4.02075 12.8121C4.10004 12.9474 4.12218 13.1121 4.07932 13.2639C4.04004 13.4099 3.94289 13.538 3.81289 13.6135C3.69146 13.6854 3.50075 13.7279 3.36432 13.6725C3.1186 13.5746 2.88074 13.4739 2.66574 13.3157C2.50145 13.197 2.35145 13.061 2.20217 12.9244C2.10931 12.8388 2.02002 12.751 1.94074 12.6532C1.86145 12.5539 1.77216 12.4561 1.70931 12.346C1.64645 12.236 1.59716 12.1216 1.5493 12.0043C1.34859 11.5152 1.24573 11.0001 1.17144 10.4779C1.13073 10.1916 1.10001 9.90242 1.10573 9.61181C1.11001 9.43989 1.13573 9.26724 1.16073 9.0982C1.20144 8.82413 1.31287 8.55006 1.47645 8.32563C1.5993 8.1573 1.72788 7.99905 1.87431 7.85159C1.99502 7.73002 2.13145 7.60054 2.27931 7.51709C2.32074 7.49335 2.3636 7.46962 2.40574 7.44588C2.31502 7.26676 2.21931 7.09196 2.14502 6.90422C2.06002 6.69633 2.01931 6.48412 1.99074 6.26113C1.96645 6.06115 1.95074 5.86477 1.95931 5.66336C1.97216 5.3526 2.02002 5.03178 2.09288 4.72965C2.16645 4.41602 2.27359 4.12253 2.4036 3.8276C2.52645 3.55066 2.71288 3.29889 2.9136 3.07517C3.16074 2.79895 3.4686 2.58243 3.80646 2.43209C4.08289 2.3098 4.3579 2.2242 4.65718 2.18319C4.96647 2.14075 5.27147 2.12277 5.58148 2.13644C5.88505 2.14867 6.18362 2.19039 6.48148 2.24793C6.54434 2.26016 6.60791 2.27239 6.67077 2.28462C6.67506 2.27599 6.67863 2.26808 6.6822 2.25944C6.70934 2.19758 6.73577 2.1314 6.76863 2.07098C6.83006 1.95804 6.89863 1.85446 6.97649 1.75159C7.16149 1.51061 7.38435 1.31207 7.60864 1.10994C7.82364 0.917157 8.06149 0.735165 8.31293 0.593455C8.57293 0.447429 8.84364 0.328738 9.1215 0.220118C9.54794 0.0553891 10.0101 0 10.4687 0C10.6072 0 10.7458 0.00503541 10.8822 0.0136675C11.1844 0.031651 11.4829 0.0827239 11.7744 0.164009C12.0522 0.240979 12.3244 0.317948 12.5908 0.432323C12.7072 0.481957 12.8287 0.531592 12.9344 0.602806C13.0687 0.691285 13.1958 0.787676 13.3187 0.890542C13.5173 1.05743 13.6894 1.24446 13.8508 1.44947C14.0351 1.68397 14.1801 1.9343 14.313 2.20262C14.3615 2.29973 14.4101 2.39612 14.4551 2.49539C14.5373 2.48172 14.6194 2.47165 14.7015 2.46589C14.8208 2.45798 14.9394 2.45079 15.0587 2.45079C15.3216 2.44791 15.5823 2.4551 15.8451 2.48532C16.153 2.51984 16.458 2.58027 16.7558 2.66731C16.8858 2.70471 17.0173 2.74859 17.1416 2.80111C17.2973 2.86585 17.4573 2.92483 17.6051 3.00468C17.9344 3.17948 18.2523 3.38521 18.513 3.6564C18.733 3.88371 18.9123 4.13692 19.0123 4.4412C19.0673 4.60952 19.0916 4.77713 19.1137 4.95193C19.1437 5.20514 19.1587 5.4605 19.1709 5.71515C19.1859 6.01655 19.1601 6.31867 19.0809 6.61073C18.9987 6.91213 18.8716 7.20274 18.7387 7.484C18.6837 7.60054 18.6216 7.71419 18.5616 7.82785C18.6237 7.87245 18.6844 7.91992 18.7323 7.97891C18.8266 8.09472 18.9144 8.21341 18.9987 8.33714C19.0959 8.47741 19.1959 8.61696 19.2859 8.76299C19.4923 9.0946 19.6444 9.46003 19.7766 9.82905C19.8816 10.1197 19.9602 10.4088 19.9873 10.7174C20.0144 11.0383 19.9966 11.3634 19.948 11.6835ZM7.13792 6.68841C7.13792 6.40068 7.38435 6.13165 7.67792 6.14459C8.13078 6.16258 8.58364 6.19135 9.03579 6.17193C9.22722 6.1633 9.41722 6.14603 9.60865 6.13884C9.80151 6.13165 9.99437 6.13452 10.1872 6.13596C10.5658 6.13596 10.9451 6.11366 11.3251 6.10431C11.5329 6.09856 11.7451 6.08777 11.9558 6.08777C12.038 6.08777 12.1194 6.0892 12.2001 6.09352C12.3858 6.10287 12.553 6.18703 12.6501 6.35392C12.7201 6.47549 12.7394 6.62224 12.7022 6.75891C12.6665 6.88983 12.5794 7.0042 12.463 7.07182C12.3458 7.1416 12.2294 7.14951 12.1022 7.13225C11.9815 7.12505 11.8587 7.13297 11.7394 7.1344C11.5779 7.13584 11.4179 7.14663 11.2579 7.15526C11.0637 7.16462 10.8694 7.1826 10.6751 7.18548C10.4915 7.18692 10.3101 7.18548 10.1265 7.18692C9.74794 7.19123 9.36865 7.19267 8.99007 7.21065C8.55221 7.23152 8.11507 7.2423 7.67721 7.23439C7.38363 7.2272 7.13792 6.9891 7.13792 6.68841ZM6.99292 8.65796C6.99292 8.36735 7.24435 8.08897 7.54435 8.10407C7.99007 8.12493 8.43507 8.15946 8.88079 8.15371C9.29508 8.14795 9.70865 8.13572 10.1229 8.13429C10.5208 8.13285 10.9187 8.12709 11.3158 8.11774C11.5165 8.11342 11.718 8.10264 11.9187 8.09976C12.0801 8.09688 12.2415 8.09976 12.4015 8.08177C12.4122 8.08033 12.423 8.07962 12.4344 8.07962C12.5594 8.07962 12.6972 8.15515 12.7801 8.24003C12.8801 8.34074 12.9372 8.47813 12.9372 8.62128C12.9372 8.76299 12.8801 8.90254 12.7801 9.00253C12.6901 9.09316 12.5322 9.17733 12.4015 9.16078C12.233 9.13848 12.0622 9.15143 11.893 9.15359C11.7015 9.1579 11.5087 9.16078 11.3158 9.15934C10.9194 9.15503 10.5208 9.16222 10.1229 9.16726C9.70865 9.17301 9.29508 9.20826 8.88079 9.20754C8.43507 9.20754 7.99007 9.22552 7.54435 9.21186C7.24435 9.20322 6.99292 8.968 6.99292 8.65796ZM12.4101 10.2053C12.7051 10.2053 12.9472 10.5009 12.9472 10.785C12.9472 11.1059 12.6844 11.3555 12.373 11.3634C12.2251 11.3663 12.0772 11.3785 11.9308 11.3936C11.7787 11.4087 11.6301 11.4087 11.4765 11.4073C11.0937 11.4015 10.7079 11.4044 10.3265 11.3814C9.80151 11.3497 9.27579 11.3555 8.74936 11.3605C8.38435 11.3634 8.01792 11.3677 7.65221 11.3576C7.34435 11.349 7.0872 11.1044 7.0872 10.7886C7.0872 10.4872 7.34435 10.2074 7.65221 10.2196C8.13792 10.2391 8.62221 10.2635 9.10722 10.275C9.52579 10.2837 9.93865 10.2765 10.3572 10.2527C10.7358 10.2319 11.1194 10.2333 11.4994 10.229C11.7894 10.2247 12.0822 10.229 12.3722 10.2053C12.3858 10.206 12.398 10.2053 12.4101 10.2053Z" fill="#111918"/>
</svg>
