<svg width="21" height="21" viewBox="0 0 21 21" fill="none" xmlns="http://www.w3.org/2000/svg">
<path d="M15.3889 12.2878C15.0635 12.6132 15.0635 13.1409 15.3889 13.4663C15.7143 13.7917 16.242 13.7917 16.5674 13.4663L18.9949 11.0388C19.0074 11.0263 19.0196 11.0135 19.0312 11.0004C19.2031 10.8477 19.3115 10.625 19.3115 10.377C19.3115 10.129 19.2031 9.90638 19.0312 9.75371C19.0196 9.74063 19.0074 9.72779 18.9949 9.71529L16.5674 7.28778C16.242 6.96235 15.7143 6.96235 15.3889 7.28778C15.0635 7.61323 15.0635 8.14086 15.3889 8.4663L16.4663 9.54371H11.8115C11.3512 9.54371 10.9781 9.91679 10.9781 10.377C10.9781 10.8373 11.3512 11.2104 11.8115 11.2104H16.4663L15.3889 12.2878Z" fill="black"/>
<path d="M5.14482 2.04371C3.76411 2.04371 2.64482 3.163 2.64482 4.54371V16.2104C2.64482 17.5911 3.76411 18.7104 5.14482 18.7104H13.0615C14.2121 18.7104 15.1448 17.7776 15.1448 16.627V14.3209C15.0214 14.2495 14.9052 14.1611 14.7997 14.0555C14.2543 13.5102 14.1659 12.6811 14.5343 12.0437H11.8115C10.891 12.0437 10.1448 11.2975 10.1448 10.377C10.1448 9.45655 10.891 8.71038 11.8115 8.71038H14.5343C14.1659 8.073 14.2543 7.24384 14.7997 6.69854C14.9052 6.59296 15.0214 6.50451 15.1448 6.4332V4.12705C15.1448 2.97645 14.2121 2.04371 13.0615 2.04371H5.14482Z" fill="black"/>
</svg>
