<svg width="186" height="122" viewBox="0 0 186 122" fill="none" xmlns="http://www.w3.org/2000/svg">
<mask id="path-1-outside-1_85_97" maskUnits="userSpaceOnUse" x="28" y="36" width="131" height="56" fill="black">
<rect fill="white" x="28" y="36" width="131" height="56"/>
<path d="M88.3125 62.3125C88.2292 64.3958 87.9375 66.4375 87.4375 68.4375C86.9792 70.3958 86.3958 72.2917 85.6875 74.125C85.0208 75.9167 84.2917 77.625 83.5 79.25C82.7083 80.8333 81.9583 82.2917 81.25 83.625C81.1667 84.5833 80.9375 85.4167 80.5625 86.125C80.2292 86.8333 79.6875 87.3333 78.9375 87.625C77.7292 87.375 77.0208 86.9375 76.8125 86.3125C76.7292 86.0625 76.6875 85.7917 76.6875 85.5C76.6875 85.0833 76.7917 84.6042 77 84.0625C77.2917 83.2292 77.7292 82.3333 78.3125 81.375C78.8958 80.4167 79.375 79.5 79.75 78.625C80.5417 76.875 81.3125 74.9583 82.0625 72.875C82.8542 70.7917 83.4792 68.625 83.9375 66.375C84.3958 64.25 84.625 62.0625 84.625 59.8125V59.5C84.5833 57.1667 84.1458 54.8333 83.3125 52.5C83.1458 52.0417 82.9583 51.6667 82.75 51.375C82.5833 51.0417 82.3958 50.7292 82.1875 50.4375C81.9792 50.1042 81.75 49.7708 81.5 49.4375C81.2917 49.0625 81.0625 48.625 80.8125 48.125C80.1042 47.6667 79.4375 47.1875 78.8125 46.6875C78.1875 46.1458 77.5208 45.6458 76.8125 45.1875H76.1875C75.0208 45.1875 73.9792 45.2708 73.0625 45.4375C71.9792 45.6875 70.9792 46.0417 70.0625 46.5C69.1458 46.9583 68.2708 47.5208 67.4375 48.1875C66.6458 48.8542 65.8125 49.6042 64.9375 50.4375C64.6458 50.6875 64.2292 51.0833 63.6875 51.625C63.1458 52.125 62.6042 52.6667 62.0625 53.25C61.5625 53.8333 61.0833 54.3958 60.625 54.9375C60.2083 55.4792 59.9792 55.9167 59.9375 56.25C59.8542 56.5833 59.8125 56.9375 59.8125 57.3125C59.8125 57.6458 59.8542 57.9583 59.9375 58.25C60.0208 59 60.1667 59.7708 60.375 60.5625C60.5833 61.3125 60.7708 62.1042 60.9375 62.9375C61.1458 63.7292 61.2917 64.5 61.375 65.25C61.4167 65.6667 61.4375 66.0833 61.4375 66.5V67.5C61.3542 68.3333 61.2708 69.0417 61.1875 69.625C61.0625 70.2083 60.8125 70.8333 60.4375 71.5C60.0625 72.1667 59.5833 72.7917 59 73.375C58.4583 73.9167 57.8542 74.3542 57.1875 74.6875C56.6458 74.9375 56.1042 75.0625 55.5625 75.0625H55.125C54.0833 74.9375 53.3542 74.3333 52.9375 73.25C52.5625 72.1667 52.375 70.8958 52.375 69.4375C52.375 68.0208 52.5 66.5625 52.75 65.0625C53.0417 63.5208 53.3333 62.25 53.625 61.25C53.875 60.4583 54.25 59.7292 54.75 59.0625C55.25 58.3542 55.5833 57.5625 55.75 56.6875V56.4375C55.75 55.2708 55.4792 54.0833 54.9375 52.875C54.3125 51.625 53.5 50.5 52.5 49.5C51.5417 48.4583 50.4583 47.5833 49.25 46.875C48.0833 46.1667 46.9792 45.75 45.9375 45.625C45.5208 45.5833 45.125 45.5625 44.75 45.5625C43.8333 45.5625 43 45.7083 42.25 46C41.1667 46.4167 40.2083 47.0625 39.375 47.9375C38.5833 48.7708 37.8958 49.7708 37.3125 50.9375C36.7708 52.1042 36.2917 53.3542 35.875 54.6875C35.5 55.9792 35.1458 57.3125 34.8125 58.6875C34.5208 60.0208 34.25 61.2917 34 62.5C34.125 63.625 34.2083 64.7917 34.25 66C34.3333 67.2083 34.4167 68.4375 34.5 69.6875C34.5833 70.8958 34.6875 72.125 34.8125 73.375C34.9375 74.5833 35.1458 75.7708 35.4375 76.9375C35.5208 77.3125 35.6667 77.6667 35.875 78C36.0833 78.3333 36.2292 78.6875 36.3125 79.0625C36.3542 79.3542 36.375 79.6667 36.375 80V80.625C36.3333 80.7917 36.3125 80.9375 36.3125 81.0625C36.3125 81.4375 36.375 81.8125 36.5 82.1875C36.6667 82.7708 37 83.3333 37.5 83.875C38.0417 84.4167 38.5 84.9375 38.875 85.4375C39.25 85.9792 39.4375 86.4792 39.4375 86.9375C39.4375 87.4375 39.0208 87.9375 38.1875 88.4375C37.2708 88.2292 36.4792 87.7083 35.8125 86.875C35.1875 86.0833 34.6458 85.2708 34.1875 84.4375C33.6875 83.3958 33.2708 82.2083 32.9375 80.875C32.6458 79.5 32.3958 78.0833 32.1875 76.625C32.0208 75.1667 31.875 73.6875 31.75 72.1875C31.6667 70.6875 31.5833 69.2708 31.5 67.9375C31.4583 67.2708 31.375 66.75 31.25 66.375C31.125 66 31.0625 65.4167 31.0625 64.625C31.1042 62.625 31.3125 60.7083 31.6875 58.875C32.1042 57 32.6042 55.2292 33.1875 53.5625C33.5625 52.4792 33.8542 51.5833 34.0625 50.875C34.3125 50.125 34.5833 49.4583 34.875 48.875C35.2083 48.2917 35.6042 47.75 36.0625 47.25C36.5208 46.7083 37.1667 46.0833 38 45.375C38.5833 44.9167 39.2292 44.375 39.9375 43.75C40.6458 43.125 41.3125 42.7083 41.9375 42.5C42.6458 42.25 43.3542 42.125 44.0625 42.125H44.25C45 42.1667 45.7708 42.2708 46.5625 42.4375C47.3542 42.6042 48.1458 42.8125 48.9375 43.0625C49.7292 43.3125 50.5417 43.5417 51.375 43.75C51.6667 44.2083 52.0208 44.625 52.4375 45C52.8542 45.3333 53.2917 45.6667 53.75 46C54.25 46.2917 54.7292 46.5833 55.1875 46.875C55.6875 47.1667 56.1458 47.5 56.5625 47.875C56.6458 48.75 56.875 49.4583 57.25 50C57.6667 50.5417 58 51.1667 58.25 51.875C59.375 51.0417 60.4583 50.1667 61.5 49.25C62.5417 48.3333 63.6042 47.4375 64.6875 46.5625C65.8125 45.6458 66.9792 44.7917 68.1875 44C69.4375 43.2083 70.7917 42.5 72.25 41.875C72.625 41.7083 73.1667 41.625 73.875 41.625C74.5833 41.625 75.3125 41.6875 76.0625 41.8125C76.8125 41.8958 77.5 42.0208 78.125 42.1875C78.7917 42.3542 79.2708 42.5208 79.5625 42.6875C82.5208 44.5625 84.7708 47.1875 86.3125 50.5625C87.6875 53.5625 88.375 56.9583 88.375 60.75C88.375 61.25 88.3542 61.7708 88.3125 62.3125ZM57 62.9375C56.6667 64.0625 56.3333 65.2708 56 66.5625C55.7917 67.2708 55.6875 67.9792 55.6875 68.6875C55.6875 69.3542 55.7708 70.0208 55.9375 70.6875C56.5208 70.6458 56.9375 70.3333 57.1875 69.75C57.4375 69.125 57.5833 68.3958 57.625 67.5625V67.25C57.625 66.5417 57.5625 65.8125 57.4375 65.0625C57.3125 64.1875 57.1667 63.4792 57 62.9375ZM140.562 63C140.521 64.375 140.312 65.6875 139.938 66.9375C139.604 68.1875 139.188 69.3958 138.688 70.5625C138.188 71.6875 137.625 72.7708 137 73.8125C136.417 74.8542 135.875 75.8333 135.375 76.75C134.708 77.0833 134.104 77.5208 133.562 78.0625C133.062 78.5625 132.542 79.0833 132 79.625C131.458 80.1667 130.896 80.6875 130.312 81.1875C129.729 81.6875 129.042 82.0833 128.25 82.375C127.917 82.5417 127.479 82.625 126.938 82.625C126.396 82.625 125.854 82.6875 125.312 82.8125C124.938 82.9375 124.479 83.0833 123.938 83.25C123.396 83.4167 122.812 83.5833 122.188 83.75C121.604 83.9167 121 84.0625 120.375 84.1875C119.875 84.2708 119.396 84.3125 118.938 84.3125H118.438C118.062 84.2708 117.708 84.1667 117.375 84C117.042 83.8333 116.708 83.7083 116.375 83.625C115.542 83.5 114.688 83.4375 113.812 83.4375H112.812C112.521 83.4792 112.229 83.5 111.938 83.5C111.021 83.5 110.125 83.4167 109.25 83.25C108.833 83.1667 108.438 83 108.062 82.75C107.812 82.5833 107.562 82.5 107.312 82.5C107.104 82.5 106.917 82.5417 106.75 82.625C106 82 105.188 81.4167 104.312 80.875C103.438 80.3333 102.583 79.7917 101.75 79.25C100.917 78.6667 100.104 78.0625 99.3125 77.4375C98.5208 76.7708 97.8542 75.9792 97.3125 75.0625C96.5208 73.7708 95.9583 72.3542 95.625 70.8125C95.2917 69.2708 95.1042 67.6458 95.0625 65.9375V65.0625C95.0625 63.6458 95.1458 62.2083 95.3125 60.75C95.4792 58.9583 95.6667 57.1875 95.875 55.4375C96.8333 53.6875 97.7708 51.9167 98.6875 50.125C99.6042 48.2917 100.688 46.6458 101.938 45.1875C103.021 44.4792 104.104 43.8333 105.188 43.25C106.312 42.6667 107.604 42.0625 109.062 41.4375C110.146 40.9792 111.354 40.625 112.688 40.375C114.062 40.0833 115.479 39.8958 116.938 39.8125H118.25C119.292 39.8125 120.333 39.8542 121.375 39.9375C122.875 40.1042 124.333 40.3958 125.75 40.8125C126.292 40.9792 126.958 41.25 127.75 41.625C128.583 41.9583 129.396 42.3333 130.188 42.75C131.021 43.125 131.792 43.5417 132.5 44C133.25 44.4167 133.854 44.8125 134.312 45.1875C134.938 45.6875 135.438 46.25 135.812 46.875C136.229 47.4583 136.604 48.0625 136.938 48.6875C137.312 49.3125 137.646 49.9375 137.938 50.5625C138.271 51.1875 138.667 51.7708 139.125 52.3125C139.167 53.2708 139.271 54.1875 139.438 55.0625C139.646 55.9375 139.833 56.8125 140 57.6875C140.167 58.5625 140.312 59.4375 140.438 60.3125C140.521 60.9792 140.562 61.6458 140.562 62.3125V63ZM137.062 59.8125C136.604 55.4792 135.312 52.125 133.188 49.75C131.062 47.375 128.104 45.5833 124.312 44.375C123.562 44.1667 122.75 43.9375 121.875 43.6875C121.042 43.3958 120.312 43.2083 119.688 43.125H119.562C119.354 43.125 119.167 43.1875 119 43.3125C118.792 43.4792 118.542 43.5625 118.25 43.5625C117.917 43.5625 117.625 43.5 117.375 43.375C117.167 43.2083 116.958 43.125 116.75 43.125C112.833 43.2917 109.396 44.4583 106.438 46.625C103.521 48.75 101.396 51.4792 100.062 54.8125C99.6042 56.6875 99.2083 58.5 98.875 60.25C98.5417 61.8333 98.375 63.3958 98.375 64.9375V65.5C98.4167 68.2083 99.0417 70.5417 100.25 72.5C101.458 74.4583 103 76.0625 104.875 77.3125C106.792 78.5208 108.938 79.3958 111.312 79.9375C113.188 80.3542 115.083 80.5625 117 80.5625C117.5 80.5625 118.021 80.5417 118.562 80.5C121.021 80.375 123.375 79.9167 125.625 79.125C127.917 78.2917 129.917 77.1458 131.625 75.6875C132.375 74.7708 133.104 73.7292 133.812 72.5625C134.521 71.3542 135.146 70.0625 135.688 68.6875C136.229 67.3125 136.646 65.875 136.938 64.375C137.104 63.5 137.188 62.5833 137.188 61.625C137.188 61 137.146 60.3958 137.062 59.8125ZM155.188 70.875C155.104 73.375 155 75.875 154.875 78.375C154.792 80.875 154.396 83.25 153.688 85.5C153.729 85.8333 153.75 86.125 153.75 86.375C153.75 87 153.625 87.4792 153.375 87.8125C152.958 88.3125 152.479 88.5625 151.938 88.5625C151.896 88.6042 151.854 88.625 151.812 88.625C151.271 88.625 150.75 88.4167 150.25 88C149.708 87.625 149.396 87.0625 149.312 86.3125C149.854 85.4375 150.25 84.5208 150.5 83.5625C150.792 82.6042 150.979 81.6042 151.062 80.5625C151.188 79.4792 151.25 78.3958 151.25 77.3125C151.25 76.2292 151.292 75.125 151.375 74C151.542 71.6667 151.625 69.2917 151.625 66.875V64.6875C151.542 61.5208 151.333 58.3542 151 55.1875C150.875 54.0208 150.688 52.8333 150.438 51.625C150.188 50.4167 150.021 49.2292 149.938 48.0625C149.854 47.1042 149.771 46.25 149.688 45.5C149.604 44.7083 149.333 43.9583 148.875 43.25C148.958 42.8333 149.146 42.4792 149.438 42.1875C149.771 41.8542 150.146 41.625 150.562 41.5C150.729 41.4583 150.917 41.4375 151.125 41.4375C151.333 41.4375 151.542 41.4583 151.75 41.5C152.167 41.625 152.542 41.875 152.875 42.25C152.958 43.5417 153.083 44.7708 153.25 45.9375C153.417 47.1042 153.562 48.25 153.688 49.375C153.854 50.4583 153.979 51.5208 154.062 52.5625V53.5625C154.062 54.2708 154.021 54.9583 153.938 55.625C154.604 58 155 60.4792 155.125 63.0625C155.167 64.9375 155.188 66.8125 155.188 68.6875V70.875Z"/>
</mask>
<path d="M88.3125 62.3125C88.2292 64.3958 87.9375 66.4375 87.4375 68.4375C86.9792 70.3958 86.3958 72.2917 85.6875 74.125C85.0208 75.9167 84.2917 77.625 83.5 79.25C82.7083 80.8333 81.9583 82.2917 81.25 83.625C81.1667 84.5833 80.9375 85.4167 80.5625 86.125C80.2292 86.8333 79.6875 87.3333 78.9375 87.625C77.7292 87.375 77.0208 86.9375 76.8125 86.3125C76.7292 86.0625 76.6875 85.7917 76.6875 85.5C76.6875 85.0833 76.7917 84.6042 77 84.0625C77.2917 83.2292 77.7292 82.3333 78.3125 81.375C78.8958 80.4167 79.375 79.5 79.75 78.625C80.5417 76.875 81.3125 74.9583 82.0625 72.875C82.8542 70.7917 83.4792 68.625 83.9375 66.375C84.3958 64.25 84.625 62.0625 84.625 59.8125V59.5C84.5833 57.1667 84.1458 54.8333 83.3125 52.5C83.1458 52.0417 82.9583 51.6667 82.75 51.375C82.5833 51.0417 82.3958 50.7292 82.1875 50.4375C81.9792 50.1042 81.75 49.7708 81.5 49.4375C81.2917 49.0625 81.0625 48.625 80.8125 48.125C80.1042 47.6667 79.4375 47.1875 78.8125 46.6875C78.1875 46.1458 77.5208 45.6458 76.8125 45.1875H76.1875C75.0208 45.1875 73.9792 45.2708 73.0625 45.4375C71.9792 45.6875 70.9792 46.0417 70.0625 46.5C69.1458 46.9583 68.2708 47.5208 67.4375 48.1875C66.6458 48.8542 65.8125 49.6042 64.9375 50.4375C64.6458 50.6875 64.2292 51.0833 63.6875 51.625C63.1458 52.125 62.6042 52.6667 62.0625 53.25C61.5625 53.8333 61.0833 54.3958 60.625 54.9375C60.2083 55.4792 59.9792 55.9167 59.9375 56.25C59.8542 56.5833 59.8125 56.9375 59.8125 57.3125C59.8125 57.6458 59.8542 57.9583 59.9375 58.25C60.0208 59 60.1667 59.7708 60.375 60.5625C60.5833 61.3125 60.7708 62.1042 60.9375 62.9375C61.1458 63.7292 61.2917 64.5 61.375 65.25C61.4167 65.6667 61.4375 66.0833 61.4375 66.5V67.5C61.3542 68.3333 61.2708 69.0417 61.1875 69.625C61.0625 70.2083 60.8125 70.8333 60.4375 71.5C60.0625 72.1667 59.5833 72.7917 59 73.375C58.4583 73.9167 57.8542 74.3542 57.1875 74.6875C56.6458 74.9375 56.1042 75.0625 55.5625 75.0625H55.125C54.0833 74.9375 53.3542 74.3333 52.9375 73.25C52.5625 72.1667 52.375 70.8958 52.375 69.4375C52.375 68.0208 52.5 66.5625 52.75 65.0625C53.0417 63.5208 53.3333 62.25 53.625 61.25C53.875 60.4583 54.25 59.7292 54.75 59.0625C55.25 58.3542 55.5833 57.5625 55.75 56.6875V56.4375C55.75 55.2708 55.4792 54.0833 54.9375 52.875C54.3125 51.625 53.5 50.5 52.5 49.5C51.5417 48.4583 50.4583 47.5833 49.25 46.875C48.0833 46.1667 46.9792 45.75 45.9375 45.625C45.5208 45.5833 45.125 45.5625 44.75 45.5625C43.8333 45.5625 43 45.7083 42.25 46C41.1667 46.4167 40.2083 47.0625 39.375 47.9375C38.5833 48.7708 37.8958 49.7708 37.3125 50.9375C36.7708 52.1042 36.2917 53.3542 35.875 54.6875C35.5 55.9792 35.1458 57.3125 34.8125 58.6875C34.5208 60.0208 34.25 61.2917 34 62.5C34.125 63.625 34.2083 64.7917 34.25 66C34.3333 67.2083 34.4167 68.4375 34.5 69.6875C34.5833 70.8958 34.6875 72.125 34.8125 73.375C34.9375 74.5833 35.1458 75.7708 35.4375 76.9375C35.5208 77.3125 35.6667 77.6667 35.875 78C36.0833 78.3333 36.2292 78.6875 36.3125 79.0625C36.3542 79.3542 36.375 79.6667 36.375 80V80.625C36.3333 80.7917 36.3125 80.9375 36.3125 81.0625C36.3125 81.4375 36.375 81.8125 36.5 82.1875C36.6667 82.7708 37 83.3333 37.5 83.875C38.0417 84.4167 38.5 84.9375 38.875 85.4375C39.25 85.9792 39.4375 86.4792 39.4375 86.9375C39.4375 87.4375 39.0208 87.9375 38.1875 88.4375C37.2708 88.2292 36.4792 87.7083 35.8125 86.875C35.1875 86.0833 34.6458 85.2708 34.1875 84.4375C33.6875 83.3958 33.2708 82.2083 32.9375 80.875C32.6458 79.5 32.3958 78.0833 32.1875 76.625C32.0208 75.1667 31.875 73.6875 31.75 72.1875C31.6667 70.6875 31.5833 69.2708 31.5 67.9375C31.4583 67.2708 31.375 66.75 31.25 66.375C31.125 66 31.0625 65.4167 31.0625 64.625C31.1042 62.625 31.3125 60.7083 31.6875 58.875C32.1042 57 32.6042 55.2292 33.1875 53.5625C33.5625 52.4792 33.8542 51.5833 34.0625 50.875C34.3125 50.125 34.5833 49.4583 34.875 48.875C35.2083 48.2917 35.6042 47.75 36.0625 47.25C36.5208 46.7083 37.1667 46.0833 38 45.375C38.5833 44.9167 39.2292 44.375 39.9375 43.75C40.6458 43.125 41.3125 42.7083 41.9375 42.5C42.6458 42.25 43.3542 42.125 44.0625 42.125H44.25C45 42.1667 45.7708 42.2708 46.5625 42.4375C47.3542 42.6042 48.1458 42.8125 48.9375 43.0625C49.7292 43.3125 50.5417 43.5417 51.375 43.75C51.6667 44.2083 52.0208 44.625 52.4375 45C52.8542 45.3333 53.2917 45.6667 53.75 46C54.25 46.2917 54.7292 46.5833 55.1875 46.875C55.6875 47.1667 56.1458 47.5 56.5625 47.875C56.6458 48.75 56.875 49.4583 57.25 50C57.6667 50.5417 58 51.1667 58.25 51.875C59.375 51.0417 60.4583 50.1667 61.5 49.25C62.5417 48.3333 63.6042 47.4375 64.6875 46.5625C65.8125 45.6458 66.9792 44.7917 68.1875 44C69.4375 43.2083 70.7917 42.5 72.25 41.875C72.625 41.7083 73.1667 41.625 73.875 41.625C74.5833 41.625 75.3125 41.6875 76.0625 41.8125C76.8125 41.8958 77.5 42.0208 78.125 42.1875C78.7917 42.3542 79.2708 42.5208 79.5625 42.6875C82.5208 44.5625 84.7708 47.1875 86.3125 50.5625C87.6875 53.5625 88.375 56.9583 88.375 60.75C88.375 61.25 88.3542 61.7708 88.3125 62.3125ZM57 62.9375C56.6667 64.0625 56.3333 65.2708 56 66.5625C55.7917 67.2708 55.6875 67.9792 55.6875 68.6875C55.6875 69.3542 55.7708 70.0208 55.9375 70.6875C56.5208 70.6458 56.9375 70.3333 57.1875 69.75C57.4375 69.125 57.5833 68.3958 57.625 67.5625V67.25C57.625 66.5417 57.5625 65.8125 57.4375 65.0625C57.3125 64.1875 57.1667 63.4792 57 62.9375ZM140.562 63C140.521 64.375 140.312 65.6875 139.938 66.9375C139.604 68.1875 139.188 69.3958 138.688 70.5625C138.188 71.6875 137.625 72.7708 137 73.8125C136.417 74.8542 135.875 75.8333 135.375 76.75C134.708 77.0833 134.104 77.5208 133.562 78.0625C133.062 78.5625 132.542 79.0833 132 79.625C131.458 80.1667 130.896 80.6875 130.312 81.1875C129.729 81.6875 129.042 82.0833 128.25 82.375C127.917 82.5417 127.479 82.625 126.938 82.625C126.396 82.625 125.854 82.6875 125.312 82.8125C124.938 82.9375 124.479 83.0833 123.938 83.25C123.396 83.4167 122.812 83.5833 122.188 83.75C121.604 83.9167 121 84.0625 120.375 84.1875C119.875 84.2708 119.396 84.3125 118.938 84.3125H118.438C118.062 84.2708 117.708 84.1667 117.375 84C117.042 83.8333 116.708 83.7083 116.375 83.625C115.542 83.5 114.688 83.4375 113.812 83.4375H112.812C112.521 83.4792 112.229 83.5 111.938 83.5C111.021 83.5 110.125 83.4167 109.25 83.25C108.833 83.1667 108.438 83 108.062 82.75C107.812 82.5833 107.562 82.5 107.312 82.5C107.104 82.5 106.917 82.5417 106.75 82.625C106 82 105.188 81.4167 104.312 80.875C103.438 80.3333 102.583 79.7917 101.75 79.25C100.917 78.6667 100.104 78.0625 99.3125 77.4375C98.5208 76.7708 97.8542 75.9792 97.3125 75.0625C96.5208 73.7708 95.9583 72.3542 95.625 70.8125C95.2917 69.2708 95.1042 67.6458 95.0625 65.9375V65.0625C95.0625 63.6458 95.1458 62.2083 95.3125 60.75C95.4792 58.9583 95.6667 57.1875 95.875 55.4375C96.8333 53.6875 97.7708 51.9167 98.6875 50.125C99.6042 48.2917 100.688 46.6458 101.938 45.1875C103.021 44.4792 104.104 43.8333 105.188 43.25C106.312 42.6667 107.604 42.0625 109.062 41.4375C110.146 40.9792 111.354 40.625 112.688 40.375C114.062 40.0833 115.479 39.8958 116.938 39.8125H118.25C119.292 39.8125 120.333 39.8542 121.375 39.9375C122.875 40.1042 124.333 40.3958 125.75 40.8125C126.292 40.9792 126.958 41.25 127.75 41.625C128.583 41.9583 129.396 42.3333 130.188 42.75C131.021 43.125 131.792 43.5417 132.5 44C133.25 44.4167 133.854 44.8125 134.312 45.1875C134.938 45.6875 135.438 46.25 135.812 46.875C136.229 47.4583 136.604 48.0625 136.938 48.6875C137.312 49.3125 137.646 49.9375 137.938 50.5625C138.271 51.1875 138.667 51.7708 139.125 52.3125C139.167 53.2708 139.271 54.1875 139.438 55.0625C139.646 55.9375 139.833 56.8125 140 57.6875C140.167 58.5625 140.312 59.4375 140.438 60.3125C140.521 60.9792 140.562 61.6458 140.562 62.3125V63ZM137.062 59.8125C136.604 55.4792 135.312 52.125 133.188 49.75C131.062 47.375 128.104 45.5833 124.312 44.375C123.562 44.1667 122.75 43.9375 121.875 43.6875C121.042 43.3958 120.312 43.2083 119.688 43.125H119.562C119.354 43.125 119.167 43.1875 119 43.3125C118.792 43.4792 118.542 43.5625 118.25 43.5625C117.917 43.5625 117.625 43.5 117.375 43.375C117.167 43.2083 116.958 43.125 116.75 43.125C112.833 43.2917 109.396 44.4583 106.438 46.625C103.521 48.75 101.396 51.4792 100.062 54.8125C99.6042 56.6875 99.2083 58.5 98.875 60.25C98.5417 61.8333 98.375 63.3958 98.375 64.9375V65.5C98.4167 68.2083 99.0417 70.5417 100.25 72.5C101.458 74.4583 103 76.0625 104.875 77.3125C106.792 78.5208 108.938 79.3958 111.312 79.9375C113.188 80.3542 115.083 80.5625 117 80.5625C117.5 80.5625 118.021 80.5417 118.562 80.5C121.021 80.375 123.375 79.9167 125.625 79.125C127.917 78.2917 129.917 77.1458 131.625 75.6875C132.375 74.7708 133.104 73.7292 133.812 72.5625C134.521 71.3542 135.146 70.0625 135.688 68.6875C136.229 67.3125 136.646 65.875 136.938 64.375C137.104 63.5 137.188 62.5833 137.188 61.625C137.188 61 137.146 60.3958 137.062 59.8125ZM155.188 70.875C155.104 73.375 155 75.875 154.875 78.375C154.792 80.875 154.396 83.25 153.688 85.5C153.729 85.8333 153.75 86.125 153.75 86.375C153.75 87 153.625 87.4792 153.375 87.8125C152.958 88.3125 152.479 88.5625 151.938 88.5625C151.896 88.6042 151.854 88.625 151.812 88.625C151.271 88.625 150.75 88.4167 150.25 88C149.708 87.625 149.396 87.0625 149.312 86.3125C149.854 85.4375 150.25 84.5208 150.5 83.5625C150.792 82.6042 150.979 81.6042 151.062 80.5625C151.188 79.4792 151.25 78.3958 151.25 77.3125C151.25 76.2292 151.292 75.125 151.375 74C151.542 71.6667 151.625 69.2917 151.625 66.875V64.6875C151.542 61.5208 151.333 58.3542 151 55.1875C150.875 54.0208 150.688 52.8333 150.438 51.625C150.188 50.4167 150.021 49.2292 149.938 48.0625C149.854 47.1042 149.771 46.25 149.688 45.5C149.604 44.7083 149.333 43.9583 148.875 43.25C148.958 42.8333 149.146 42.4792 149.438 42.1875C149.771 41.8542 150.146 41.625 150.562 41.5C150.729 41.4583 150.917 41.4375 151.125 41.4375C151.333 41.4375 151.542 41.4583 151.75 41.5C152.167 41.625 152.542 41.875 152.875 42.25C152.958 43.5417 153.083 44.7708 153.25 45.9375C153.417 47.1042 153.562 48.25 153.688 49.375C153.854 50.4583 153.979 51.5208 154.062 52.5625V53.5625C154.062 54.2708 154.021 54.9583 153.938 55.625C154.604 58 155 60.4792 155.125 63.0625C155.167 64.9375 155.188 66.8125 155.188 68.6875V70.875Z" fill="#34D399"/>
<path d="M88.3125 62.3125L85.3213 62.0824L85.3171 62.1374L85.3149 62.1926L88.3125 62.3125ZM87.4375 68.4375L84.5271 67.7099L84.5216 67.7318L84.5164 67.7538L87.4375 68.4375ZM85.6875 74.125L82.8891 73.0438L82.8824 73.0613L82.8758 73.0788L85.6875 74.125ZM83.5 79.25L86.1833 80.5916L86.1902 80.5778L86.197 80.5639L83.5 79.25ZM81.25 83.625L78.6007 82.2175L78.3142 82.7568L78.2613 83.3651L81.25 83.625ZM80.5625 86.125L77.9111 84.7213L77.8781 84.7837L77.848 84.8476L80.5625 86.125ZM78.9375 87.625L78.3297 90.5628L79.1982 90.7425L80.0248 90.421L78.9375 87.625ZM76.8125 86.3125L79.6585 85.3638L76.8125 86.3125ZM77 84.0625L79.8 85.1394L79.8165 85.0967L79.8316 85.0536L77 84.0625ZM79.75 78.625L77.0167 77.3885L77.0043 77.4157L76.9926 77.4432L79.75 78.625ZM82.0625 72.875L79.2581 71.8093L79.2488 71.834L79.2398 71.8588L82.0625 72.875ZM83.9375 66.375L81.0049 65.7425L81.0013 65.7593L80.9979 65.7762L83.9375 66.375ZM84.625 59.5H87.625V59.4732L87.6245 59.4464L84.625 59.5ZM83.3125 52.5L86.1377 51.491L86.1348 51.4829L86.1319 51.4748L83.3125 52.5ZM82.75 51.375L80.0667 52.7166L80.172 52.9272L80.3088 53.1187L82.75 51.375ZM82.1875 50.4375L79.6435 52.0275L79.6925 52.1059L79.7463 52.1812L82.1875 50.4375ZM81.5 49.4375L78.8775 50.8944L78.977 51.0736L79.1 51.2375L81.5 49.4375ZM80.8125 48.125L83.4958 46.7834L83.1296 46.0511L82.4423 45.6063L80.8125 48.125ZM78.8125 46.6875L76.8477 48.9546L76.8923 48.9932L76.9384 49.0301L78.8125 46.6875ZM76.8125 45.1875L78.4423 42.6688L77.6984 42.1875H76.8125V45.1875ZM73.0625 45.4375L72.5258 42.4859L72.4565 42.4985L72.3879 42.5143L73.0625 45.4375ZM67.4375 48.1875L65.5634 45.8449L65.534 45.8685L65.5051 45.8928L67.4375 48.1875ZM64.9375 50.4375L66.8899 52.7153L66.9495 52.6641L67.0065 52.6099L64.9375 50.4375ZM63.6875 51.625L65.7223 53.8294L65.7664 53.7887L65.8088 53.7463L63.6875 51.625ZM62.0625 53.25L59.8641 51.2086L59.8235 51.2523L59.7847 51.2976L62.0625 53.25ZM60.625 54.9375L58.3348 52.9997L58.2897 53.053L58.2471 53.1084L60.625 54.9375ZM59.9375 56.25L62.8479 56.9776L62.8919 56.8019L62.9143 56.6221L59.9375 56.25ZM59.9375 58.25L62.9192 57.9187L62.8913 57.6682L62.8221 57.4258L59.9375 58.25ZM60.375 60.5625L57.4738 61.326L57.479 61.3457L57.4844 61.3654L60.375 60.5625ZM60.9375 62.9375L57.9958 63.5258L58.0134 63.614L58.0363 63.701L60.9375 62.9375ZM61.375 65.25L64.3601 64.9515L64.3585 64.9351L64.3567 64.9187L61.375 65.25ZM61.4375 67.5L64.4226 67.7985L64.4375 67.6496V67.5H61.4375ZM61.1875 69.625L64.1209 70.2536L64.1427 70.1521L64.1573 70.0493L61.1875 69.625ZM59 73.375L56.8787 71.2537L59 73.375ZM57.1875 74.6875L58.4447 77.4114L58.4872 77.3917L58.5291 77.3708L57.1875 74.6875ZM55.125 75.0625L54.7676 78.0411L54.9456 78.0625H55.125V75.0625ZM52.9375 73.25L50.1025 74.2313L50.1192 74.2794L50.1375 74.3269L52.9375 73.25ZM52.75 65.0625L49.8023 64.5048L49.7962 64.537L49.7908 64.5693L52.75 65.0625ZM53.625 61.25L50.7643 60.3466L50.7543 60.3782L50.745 60.41L53.625 61.25ZM54.75 59.0625L57.15 60.8625L57.176 60.8279L57.2009 60.7925L54.75 59.0625ZM55.75 56.6875L58.697 57.2488L58.75 56.9707V56.6875H55.75ZM54.9375 52.875L57.675 51.6478L57.6491 51.59L57.6208 51.5334L54.9375 52.875ZM52.5 49.5L50.2922 51.5312L50.3345 51.5771L50.3787 51.6213L52.5 49.5ZM49.25 46.875L47.6931 49.4394L47.7129 49.4514L47.7328 49.4631L49.25 46.875ZM45.9375 45.625L46.2949 42.6464L46.2655 42.6428L46.236 42.6399L45.9375 45.625ZM42.25 46L43.3269 48.8001L43.3373 48.796L42.25 46ZM39.375 47.9375L37.2026 45.8685L37.2 45.8713L39.375 47.9375ZM37.3125 50.9375L34.6292 49.5959L34.6098 49.6347L34.5915 49.6742L37.3125 50.9375ZM35.875 54.6875L33.0116 53.7927L33.0025 53.8218L32.994 53.8511L35.875 54.6875ZM34.8125 58.6875L31.8969 57.9807L31.889 58.0135L31.8818 58.0464L34.8125 58.6875ZM34 62.5L31.0622 61.8922L30.9658 62.3583L31.0183 62.8313L34 62.5ZM34.25 66L31.2518 66.1034L31.2536 66.1549L31.2571 66.2064L34.25 66ZM34.5 69.6875L31.5066 69.8871L31.5071 69.8939L34.5 69.6875ZM34.8125 73.375L31.8274 73.6735L31.8284 73.6837L34.8125 73.375ZM35.4375 76.9375L38.3661 76.2867L38.3575 76.2482L38.3479 76.2099L35.4375 76.9375ZM36.3125 79.0625L39.2823 78.6382L39.2661 78.5242L39.2411 78.4117L36.3125 79.0625ZM36.375 80.625L39.2854 81.3526L39.375 80.9943V80.625H36.375ZM36.5 82.1875L39.3846 81.3633L39.3667 81.3007L39.346 81.2388L36.5 82.1875ZM37.5 83.875L35.2956 85.9098L35.3363 85.9539L35.3787 85.9963L37.5 83.875ZM38.875 85.4375L41.3416 83.7299L41.3092 83.6831L41.275 83.6375L38.875 85.4375ZM38.1875 88.4375L37.5226 91.3629L38.6977 91.63L39.731 91.01L38.1875 88.4375ZM35.8125 86.875L33.4579 88.7339L33.4638 88.7415L33.4699 88.7491L35.8125 86.875ZM34.1875 84.4375L31.4829 85.7357L31.5189 85.8105L31.5589 85.8833L34.1875 84.4375ZM32.9375 80.875L30.0028 81.4975L30.014 81.5503L30.0271 81.6026L32.9375 80.875ZM32.1875 76.625L29.2069 76.9656L29.2117 77.0075L29.2177 77.0493L32.1875 76.625ZM31.75 72.1875L28.7546 72.3539L28.7569 72.3953L28.7604 72.4366L31.75 72.1875ZM31.0625 64.625L28.0632 64.5625L28.0625 64.5938V64.625H31.0625ZM31.6875 58.875L28.7589 58.2242L28.7534 58.249L28.7484 58.2738L31.6875 58.875ZM33.1875 53.5625L36.0191 54.5536L36.0225 54.5438L33.1875 53.5625ZM34.0625 50.875L31.2165 49.9263L31.1995 49.9771L31.1844 50.0285L34.0625 50.875ZM34.875 48.875L32.2703 47.3866L32.229 47.4589L32.1917 47.5334L34.875 48.875ZM36.0625 47.25L38.274 49.2772L38.3142 49.2333L38.3527 49.1878L36.0625 47.25ZM38 45.375L36.1465 43.016L36.1011 43.0518L36.0571 43.0892L38 45.375ZM41.9375 42.5L42.8862 45.346L42.9111 45.3377L42.936 45.329L41.9375 42.5ZM44.25 42.125L44.4164 39.1296L44.3333 39.125H44.25V42.125ZM51.375 43.75L53.906 42.1394L53.2635 41.1298L52.1026 40.8396L51.375 43.75ZM52.4375 45L50.4306 47.2299L50.4954 47.2882L50.5634 47.3426L52.4375 45ZM53.75 46L51.9855 48.4262L52.1078 48.5151L52.2384 48.5913L53.75 46ZM55.1875 46.875L53.5769 49.406L53.6258 49.4371L53.6759 49.4663L55.1875 46.875ZM56.5625 47.875L59.549 47.5906L59.4382 46.427L58.5694 45.6451L56.5625 47.875ZM57.25 50L54.7834 51.7076L54.8263 51.7695L54.8721 51.8291L57.25 50ZM58.25 51.875L55.421 52.8735L56.7726 56.7028L60.0357 54.2857L58.25 51.875ZM64.6875 46.5625L66.5725 48.8963L66.5825 48.8882L64.6875 46.5625ZM68.1875 44L66.5823 41.4655L66.5628 41.4779L66.5434 41.4906L68.1875 44ZM72.25 41.875L73.4318 44.6324L73.4501 44.6246L73.4684 44.6164L72.25 41.875ZM76.0625 41.8125L75.5693 44.7717L75.6499 44.7851L75.7312 44.7942L76.0625 41.8125ZM78.125 42.1875L77.352 45.0862L77.3747 45.0922L77.3974 45.0979L78.125 42.1875ZM79.5625 42.6875L81.1685 40.1536L81.1105 40.1168L81.0509 40.0828L79.5625 42.6875ZM86.3125 50.5625L83.5837 51.809L83.5853 51.8125L86.3125 50.5625ZM57 62.9375L59.8673 62.0552L56.9458 52.5603L54.1236 62.0852L57 62.9375ZM56 66.5625L58.8781 67.409L58.8923 67.3608L58.9048 67.3121L56 66.5625ZM55.9375 70.6875L53.0271 71.4151L53.6381 73.8594L56.1512 73.6799L55.9375 70.6875ZM57.1875 69.75L59.9449 70.9318L59.9593 70.8981L59.9729 70.8642L57.1875 69.75ZM57.625 67.5625L60.6213 67.7123L60.625 67.6375V67.5625H57.625ZM57.4375 65.0625L54.4677 65.4868L54.4726 65.5213L54.4783 65.5557L57.4375 65.0625ZM85.3149 62.1926C85.2397 64.0733 84.9767 65.9112 84.5271 67.7099L90.3479 69.1651C90.8983 66.9638 91.2187 64.7184 91.3101 62.4324L85.3149 62.1926ZM84.5164 67.7538C84.089 69.5801 83.5462 71.343 82.8891 73.0438L88.4859 75.2062C89.2454 73.2404 89.8693 71.2115 90.3586 69.1212L84.5164 67.7538ZM82.8758 73.0788C82.2411 74.7846 81.5498 76.4032 80.803 77.9361L86.197 80.5639C87.0335 78.8468 87.8005 77.0487 88.4992 75.1712L82.8758 73.0788ZM80.8167 77.9084C80.0343 79.4733 79.2956 80.9093 78.6007 82.2175L83.8993 85.0325C84.621 83.674 85.3824 82.1934 86.1833 80.5916L80.8167 77.9084ZM78.2613 83.3651C78.2059 84.0019 78.0646 84.4314 77.9111 84.7213L83.2139 87.5287C83.8104 86.402 84.1274 85.1648 84.2387 83.8849L78.2613 83.3651ZM77.848 84.8476C77.8441 84.856 77.8416 84.8604 77.8409 84.8616C77.8402 84.8627 77.841 84.8612 77.8436 84.8577C77.8462 84.8541 77.85 84.8492 77.855 84.8435C77.8601 84.8378 77.8656 84.8322 77.8714 84.8268C77.8772 84.8215 77.8824 84.8172 77.8866 84.814C77.8887 84.8125 77.8903 84.8113 77.8915 84.8105C77.8927 84.8097 77.8933 84.8094 77.8933 84.8094C77.8932 84.8094 77.8902 84.8113 77.8834 84.8146C77.8767 84.8179 77.8658 84.8229 77.8502 84.829L80.0248 90.421C81.4696 89.8592 82.606 88.8281 83.277 87.4024L77.848 84.8476ZM79.5453 84.6872C79.353 84.6474 79.2211 84.6083 79.1379 84.5785C79.0533 84.5482 79.0415 84.5354 79.0765 84.557C79.1128 84.5794 79.2152 84.6488 79.334 84.7864C79.4582 84.9304 79.579 85.1251 79.6585 85.3638L73.9665 87.2612C74.7267 89.5418 76.9707 90.2816 78.3297 90.5628L79.5453 84.6872ZM79.6585 85.3638C79.6875 85.4505 79.6875 85.5034 79.6875 85.5H73.6875C73.6875 86.0799 73.7709 86.6745 73.9665 87.2612L79.6585 85.3638ZM79.6875 85.5C79.6875 85.5396 79.6828 85.5313 79.6972 85.4654C79.7114 85.3997 79.7412 85.2924 79.8 85.1394L74.2 82.9856C73.9076 83.7457 73.6875 84.6013 73.6875 85.5H79.6875ZM79.8316 85.0536C80.0381 84.4636 80.3733 83.7593 80.8751 82.9348L75.7499 79.8152C75.0851 80.9074 74.5453 81.9947 74.1684 83.0714L79.8316 85.0536ZM80.8751 82.9348C81.5196 81.876 82.0677 80.8328 82.5074 79.8068L76.9926 77.4432C76.6823 78.1672 76.2721 78.9573 75.7499 79.8152L80.8751 82.9348ZM82.4833 79.8615C83.3121 78.0294 84.1123 76.0381 84.8852 73.8912L79.2398 71.8588C78.5127 73.8786 77.7712 75.7206 77.0167 77.3885L82.4833 79.8615ZM84.8669 73.9407C85.7179 71.7011 86.3874 69.378 86.8771 66.9738L80.9979 65.7762C80.571 67.872 79.9905 69.8822 79.2581 71.8093L84.8669 73.9407ZM86.8701 67.0075C87.3748 64.6675 87.625 62.2677 87.625 59.8125H81.625C81.625 61.8573 81.4169 63.8325 81.0049 65.7425L86.8701 67.0075ZM87.625 59.8125V59.5H81.625V59.8125H87.625ZM87.6245 59.4464C87.5767 56.7677 87.0739 54.1122 86.1377 51.491L80.4873 53.509C81.2178 55.5545 81.59 57.5657 81.6255 59.5536L87.6245 59.4464ZM86.1319 51.4748C85.9033 50.8461 85.6028 50.2075 85.1912 49.6313L80.3088 53.1187C80.3081 53.1178 80.3285 53.1464 80.3636 53.2166C80.3985 53.2864 80.4429 53.3871 80.4931 53.5252L86.1319 51.4748ZM85.4333 50.0334C85.1993 49.5654 84.9316 49.1179 84.6287 48.6938L79.7463 52.1812C79.86 52.3404 79.9674 52.5179 80.0667 52.7166L85.4333 50.0334ZM84.7315 48.8475C84.4756 48.438 84.1979 48.0347 83.9 47.6375L79.1 51.2375C79.3021 51.5069 79.4828 51.7703 79.6435 52.0275L84.7315 48.8475ZM84.1225 47.9806C83.9404 47.6529 83.7318 47.2554 83.4958 46.7834L78.1292 49.4666C78.3932 49.9946 78.6429 50.4721 78.8775 50.8944L84.1225 47.9806ZM82.4423 45.6063C81.8138 45.1996 81.2291 44.7789 80.6866 44.3449L76.9384 49.0301C77.6459 49.5961 78.3946 50.1337 79.1827 50.6437L82.4423 45.6063ZM80.7773 44.4204C80.0445 43.7854 79.2656 43.2016 78.4423 42.6688L75.1827 47.7062C75.776 48.0901 76.3305 48.5063 76.8477 48.9546L80.7773 44.4204ZM76.8125 42.1875H76.1875V48.1875H76.8125V42.1875ZM76.1875 42.1875C74.8837 42.1875 73.6572 42.2802 72.5258 42.4859L73.5992 48.3891C74.3011 48.2615 75.158 48.1875 76.1875 48.1875V42.1875ZM72.3879 42.5143C71.0929 42.8132 69.8667 43.2438 68.7209 43.8167L71.4041 49.1833C72.0916 48.8395 72.8654 48.5618 73.7371 48.3607L72.3879 42.5143ZM68.7209 43.8167C67.6076 44.3734 66.5549 45.0517 65.5634 45.8449L69.3116 50.5301C69.9867 49.99 70.6841 49.5433 71.4041 49.1833L68.7209 43.8167ZM65.5051 45.8928C64.6597 46.6047 63.7807 47.3964 62.8685 48.2651L67.0065 52.6099C67.8443 51.812 68.6319 51.1037 69.3699 50.4822L65.5051 45.8928ZM62.9851 48.1597C62.6028 48.4874 62.1201 48.9498 61.5662 49.5037L65.8088 53.7463C66.3383 53.2169 66.6888 52.8876 66.8899 52.7153L62.9851 48.1597ZM61.6527 49.4206C61.0501 49.9768 60.4541 50.5733 59.8641 51.2086L64.2609 55.2914C64.7543 54.76 65.2415 54.2732 65.7223 53.8294L61.6527 49.4206ZM59.7847 51.2976C59.2809 51.8854 58.7976 52.4528 58.3348 52.9997L62.9152 56.8753C63.3691 56.3389 63.8441 55.7813 64.3403 55.2024L59.7847 51.2976ZM58.2471 53.1084C57.7777 53.7186 57.108 54.6989 56.9607 55.8779L62.9143 56.6221C62.8933 56.7905 62.8567 56.9112 62.8343 56.9749C62.8115 57.0398 62.7946 57.0706 62.7981 57.0639C62.8011 57.0583 62.8167 57.0295 62.852 56.976C62.8868 56.9231 62.936 56.8536 63.0029 56.7666L58.2471 53.1084ZM57.0271 55.5224C56.8791 56.1143 56.8125 56.7144 56.8125 57.3125H62.8125C62.8125 57.1606 62.8292 57.0524 62.8479 56.9776L57.0271 55.5224ZM56.8125 57.3125C56.8125 57.8973 56.8859 58.4895 57.0529 59.0742L62.8221 57.4258C62.822 57.4256 62.8197 57.4178 62.8174 57.4004C62.8151 57.3828 62.8125 57.3541 62.8125 57.3125H56.8125ZM56.9558 58.5813C57.0567 59.4888 57.2312 60.4042 57.4738 61.326L63.2762 59.799C63.1021 59.1374 62.985 58.5112 62.9192 57.9187L56.9558 58.5813ZM57.4844 61.3654C57.6714 62.0385 57.8422 62.7582 57.9958 63.5258L63.8792 62.3492C63.6994 61.4502 63.4953 60.5865 63.2656 59.7596L57.4844 61.3654ZM58.0363 63.701C58.2104 64.3626 58.3275 64.9888 58.3933 65.5813L64.3567 64.9187C64.2558 64.0112 64.0813 63.0958 63.8387 62.174L58.0363 63.701ZM58.3899 65.5485C58.4217 65.8665 58.4375 66.1835 58.4375 66.5H64.4375C64.4375 65.9831 64.4116 65.4669 64.3601 64.9515L58.3899 65.5485ZM58.4375 66.5V67.5H64.4375V66.5H58.4375ZM58.4524 67.2015C58.3717 68.0087 58.2931 68.6725 58.2177 69.2007L64.1573 70.0493C64.2486 69.4108 64.3367 68.658 64.4226 67.7985L58.4524 67.2015ZM58.2541 68.9964C58.2073 69.2149 58.0893 69.5554 57.8228 70.0292L63.0522 72.9708C63.5357 72.1113 63.9177 71.2017 64.1209 70.2536L58.2541 68.9964ZM57.8228 70.0292C57.5919 70.4397 57.2838 70.8486 56.8787 71.2537L61.1213 75.4963C61.8829 74.7347 62.5331 73.8937 63.0522 72.9708L57.8228 70.0292ZM56.8787 71.2537C56.5586 71.5737 56.2161 71.8191 55.8459 72.0042L58.5291 77.3708C59.4922 76.8893 60.3581 76.2596 61.1213 75.4963L56.8787 71.2537ZM55.9303 71.9636C55.7425 72.0503 55.6277 72.0625 55.5625 72.0625V78.0625C56.5806 78.0625 57.5492 77.8247 58.4447 77.4114L55.9303 71.9636ZM55.5625 72.0625H55.125V78.0625H55.5625V72.0625ZM55.4824 72.0839C55.4661 72.0819 55.4921 72.0833 55.5446 72.1049C55.5992 72.1274 55.6581 72.1618 55.7109 72.2056C55.8227 72.2982 55.8025 72.342 55.7375 72.1731L50.1375 74.3269C50.4891 75.2413 51.0419 76.1289 51.8828 76.8257C52.7384 77.5346 53.7384 77.9176 54.7676 78.0411L55.4824 72.0839ZM55.7725 72.2687C55.5318 71.5735 55.375 70.6484 55.375 69.4375H49.375C49.375 71.1433 49.5932 72.7598 50.1025 74.2313L55.7725 72.2687ZM55.375 69.4375C55.375 68.1976 55.4844 66.9045 55.7092 65.5557L49.7908 64.5693C49.5156 66.2205 49.375 67.844 49.375 69.4375H55.375ZM55.6977 65.6202C55.9794 64.1313 56.2503 62.9632 56.505 62.09L50.745 60.41C50.4164 61.5368 50.1039 62.9104 49.8023 64.5048L55.6977 65.6202ZM56.4857 62.1534C56.6334 61.6857 56.8523 61.2595 57.15 60.8625L52.35 57.2625C51.6477 58.1989 51.1166 59.231 50.7643 60.3466L56.4857 62.1534ZM57.2009 60.7925C57.9546 59.7248 58.4525 58.5325 58.697 57.2488L52.803 56.1262C52.7142 56.5925 52.5454 56.9835 52.2991 57.3325L57.2009 60.7925ZM58.75 56.6875V56.4375H52.75V56.6875H58.75ZM58.75 56.4375C58.75 54.7943 58.3664 53.1901 57.675 51.6478L52.2 54.1022C52.592 54.9766 52.75 55.7474 52.75 56.4375H58.75ZM57.6208 51.5334C56.8498 49.9915 55.8466 48.6039 54.6213 47.3787L50.3787 51.6213C51.1534 52.3961 51.7752 53.2585 52.2542 54.2166L57.6208 51.5334ZM54.7078 47.4688C53.5503 46.2107 52.2348 45.1472 50.7672 44.2869L47.7328 49.4631C48.6819 50.0194 49.5331 50.706 50.2922 51.5312L54.7078 47.4688ZM50.8069 44.3106C49.38 43.4443 47.8688 42.8352 46.2949 42.6464L45.5801 48.6036C46.0895 48.6648 46.7867 48.8891 47.6931 49.4394L50.8069 44.3106ZM46.236 42.6399C45.7314 42.5894 45.2354 42.5625 44.75 42.5625V48.5625C45.0146 48.5625 45.3103 48.5772 45.639 48.6101L46.236 42.6399ZM44.75 42.5625C43.5126 42.5625 42.3041 42.7601 41.1627 43.204L43.3373 48.796C43.6959 48.6566 44.154 48.5625 44.75 48.5625V42.5625ZM41.1731 43.2C39.6578 43.7828 38.3295 44.6853 37.2026 45.8685L41.5474 50.0065C42.0872 49.4397 42.6755 49.0506 43.3269 48.8L41.1731 43.2ZM37.2 45.8713C36.1786 46.9464 35.3276 48.199 34.6292 49.5959L39.9958 52.2791C40.464 51.3427 40.9881 50.5953 41.55 50.0037L37.2 45.8713ZM34.5915 49.6742C33.9898 50.9701 33.4642 52.3441 33.0116 53.7927L38.7384 55.5823C39.1191 54.3642 39.5519 53.2382 40.0335 52.2008L34.5915 49.6742ZM32.994 53.8511C32.6059 55.1878 32.2403 56.5645 31.8969 57.9807L37.7281 59.3943C38.0514 58.0605 38.3941 56.7705 38.756 55.5239L32.994 53.8511ZM31.8818 58.0464C31.588 59.3897 31.3147 60.6717 31.0622 61.8922L36.9378 63.1078C37.1853 61.9117 37.4537 60.652 37.7432 59.3286L31.8818 58.0464ZM31.0183 62.8313C31.1344 63.8756 31.2126 64.9661 31.2518 66.1034L37.2482 65.8966C37.2041 64.6172 37.1156 63.3744 36.9817 62.1687L31.0183 62.8313ZM31.2571 66.2064C31.3403 67.4124 31.4235 68.6393 31.5066 69.8871L37.4934 69.4879C37.4099 68.2357 37.3264 67.0043 37.2429 65.7936L31.2571 66.2064ZM31.5071 69.8939C31.5926 71.1341 31.6994 72.394 31.8274 73.6735L37.7976 73.0765C37.6756 71.856 37.574 70.6576 37.4929 69.4811L31.5071 69.8939ZM31.8284 73.6837C31.9679 75.0318 32.2006 76.3593 32.5271 77.6651L38.3479 76.2099C38.091 75.1823 37.9071 74.1349 37.7966 73.0663L31.8284 73.6837ZM32.5089 77.5883C32.6679 78.3037 32.9463 78.9745 33.331 79.59L38.419 76.41C38.387 76.3588 38.3737 76.3213 38.3661 76.2867L32.5089 77.5883ZM33.331 79.59C33.363 79.6412 33.3763 79.6787 33.3839 79.7133L39.2411 78.4117C39.0821 77.6963 38.8037 77.0255 38.419 76.41L33.331 79.59ZM33.3427 79.4868C33.3618 79.621 33.375 79.7905 33.375 80H39.375C39.375 79.5428 39.3465 79.0873 39.2823 78.6382L33.3427 79.4868ZM33.375 80V80.625H39.375V80H33.375ZM33.4646 79.8974C33.3839 80.2202 33.3125 80.6202 33.3125 81.0625H39.3125C39.3125 81.1644 39.3042 81.2401 39.298 81.2836C39.2917 81.3279 39.2856 81.3519 39.2854 81.3526L33.4646 79.8974ZM33.3125 81.0625C33.3125 81.777 33.4325 82.4719 33.654 83.1362L39.346 81.2388C39.3175 81.1531 39.3125 81.098 39.3125 81.0625H33.3125ZM33.6154 83.0117C33.9358 84.1331 34.5448 85.0965 35.2956 85.9098L39.7044 81.8402C39.4552 81.5701 39.3975 81.4086 39.3846 81.3633L33.6154 83.0117ZM35.3787 85.9963C35.8414 86.4591 36.2016 86.873 36.475 87.2375L41.275 83.6375C40.7984 83.002 40.2419 82.3743 39.6213 81.7537L35.3787 85.9963ZM36.4084 87.1451C36.4866 87.2581 36.4983 87.2999 36.4879 87.2721C36.4758 87.2399 36.4375 87.1221 36.4375 86.9375H42.4375C42.4375 85.6554 41.9184 84.5631 41.3416 83.7299L36.4084 87.1451ZM36.4375 86.9375C36.4375 86.2972 36.7169 85.891 36.8203 85.7669C36.9058 85.6644 36.9002 85.7113 36.644 85.865L39.731 91.01C40.6521 90.4573 42.4375 89.1817 42.4375 86.9375H36.4375ZM38.8524 85.5121C38.6864 85.4744 38.4581 85.3796 38.1551 85.0009L33.4699 88.7491C34.5003 90.0371 35.8553 90.984 37.5226 91.3629L38.8524 85.5121ZM38.1671 85.0161C37.6386 84.3465 37.1901 83.6716 36.8161 82.9917L31.5589 85.8833C32.1016 86.8701 32.7364 87.8201 33.4579 88.7339L38.1671 85.0161ZM36.8921 83.1393C36.4944 82.3109 36.141 81.3198 35.8479 80.1474L30.0271 81.6026C30.4006 83.0968 30.8806 84.4808 31.4829 85.7357L36.8921 83.1393ZM35.8722 80.2525C35.5951 78.9462 35.3566 77.5958 35.1573 76.2007L29.2177 77.0493C29.435 78.5709 29.6966 80.0538 30.0028 81.4975L35.8722 80.2525ZM35.1681 76.2844C35.005 74.8572 34.8622 73.4086 34.7396 71.9384L28.7604 72.4366C28.8878 73.9664 29.0367 75.4761 29.2069 76.9656L35.1681 76.2844ZM34.7454 72.0211C34.6617 70.515 34.578 69.0914 34.4942 67.7504L28.5058 68.1246C28.5887 69.4503 28.6716 70.86 28.7546 72.3539L34.7454 72.0211ZM34.4942 67.7504C34.4458 66.9763 34.3403 66.1592 34.096 65.4263L28.404 67.3237C28.4011 67.315 28.4201 67.3719 28.4439 67.5208C28.467 67.6652 28.4895 67.8634 28.5058 68.1246L34.4942 67.7504ZM34.096 65.4263C34.1258 65.5154 34.1105 65.5066 34.0923 65.3367C34.0756 65.1804 34.0625 64.9483 34.0625 64.625H28.0625C28.0625 65.4832 28.1192 66.4695 28.404 67.3237L34.096 65.4263ZM34.0618 64.6875C34.1 62.8562 34.2903 61.1204 34.6266 59.4762L28.7484 58.2738C28.3347 60.2962 28.1083 62.3938 28.0632 64.5625L34.0618 64.6875ZM34.6161 59.5258C35.0093 57.7561 35.478 56.0996 36.0191 54.5536L30.3559 52.5714C29.7304 54.3587 29.199 56.2439 28.7589 58.2242L34.6161 59.5258ZM36.0225 54.5438C36.4055 53.4373 36.7138 52.4926 36.9406 51.7215L31.1844 50.0285C30.9945 50.6741 30.7195 51.521 30.3525 52.5812L36.0225 54.5438ZM36.9085 51.8237C37.1227 51.1812 37.3417 50.6497 37.5583 50.2166L32.1917 47.5334C31.8249 48.2669 31.5023 49.0688 31.2165 49.9263L36.9085 51.8237ZM37.4797 50.3634C37.7013 49.9756 37.9649 49.6143 38.274 49.2772L33.851 45.2228C33.2434 45.8857 32.7153 46.6077 32.2703 47.3866L37.4797 50.3634ZM38.3527 49.1878C38.6644 48.8194 39.1754 48.3132 39.9429 47.6608L36.0571 43.0892C35.1579 43.8535 34.3773 44.5973 33.7723 45.3122L38.3527 49.1878ZM39.8535 47.734C40.4918 47.2324 41.1822 46.6526 41.9224 45.9995L37.9526 41.5005C37.2761 42.0974 36.6749 42.6009 36.1465 43.016L39.8535 47.734ZM41.9224 45.9995C42.4496 45.5343 42.7709 45.3845 42.8862 45.346L40.9888 39.654C39.8541 40.0322 38.8421 40.7157 37.9526 41.5005L41.9224 45.9995ZM42.936 45.329C43.3431 45.1853 43.7144 45.125 44.0625 45.125V39.125C42.994 39.125 41.9486 39.3147 40.939 39.671L42.936 45.329ZM44.0625 45.125H44.25V39.125H44.0625V45.125ZM44.0836 45.1204C44.6707 45.153 45.2903 45.2354 45.9445 45.3731L47.1805 39.5019C46.2513 39.3062 45.3293 39.1803 44.4164 39.1296L44.0836 45.1204ZM45.9445 45.3731C46.6374 45.519 47.3338 45.7021 48.0341 45.9232L49.8409 40.2018C48.9578 39.9229 48.071 39.6893 47.1805 39.5019L45.9445 45.3731ZM48.0341 45.9232C48.8858 46.1922 49.757 46.4378 50.6474 46.6604L52.1026 40.8396C51.3263 40.6455 50.5725 40.4328 49.8409 40.2018L48.0341 45.9232ZM48.844 45.3606C49.2861 46.0554 49.8185 46.679 50.4306 47.2299L54.4444 42.7701C54.2232 42.571 54.0472 42.3613 53.906 42.1394L48.844 45.3606ZM50.5634 47.3426C51.0181 47.7063 51.4923 48.0675 51.9855 48.4262L55.5145 43.5738C55.0911 43.2658 54.6902 42.9603 54.3116 42.6574L50.5634 47.3426ZM52.2384 48.5913C52.7071 48.8648 53.1532 49.1364 53.5769 49.406L56.7981 44.344C56.3051 44.0303 55.7929 43.7186 55.2616 43.4087L52.2384 48.5913ZM53.6759 49.4663C54.0047 49.6581 54.2961 49.8714 54.5556 50.1049L58.5694 45.6451C57.9955 45.1286 57.3703 44.6752 56.6991 44.2837L53.6759 49.4663ZM53.576 48.1594C53.6923 49.3808 54.0346 50.626 54.7834 51.7076L59.7166 48.2924C59.7154 48.2906 59.5993 48.1192 59.549 47.5906L53.576 48.1594ZM54.8721 51.8291C55.0773 52.0959 55.2662 52.4346 55.421 52.8735L61.079 50.8765C60.7338 49.8987 60.256 48.9875 59.6279 48.1709L54.8721 51.8291ZM60.0357 54.2857C61.2277 53.4027 62.3765 52.4749 63.4819 51.5021L59.5181 46.9979C58.5402 47.8585 57.5223 48.6806 56.4643 49.4643L60.0357 54.2857ZM63.4819 51.5021C64.4917 50.6135 65.5219 49.7449 66.5725 48.8963L62.8025 44.2287C61.6864 45.1301 60.5916 46.0532 59.5181 46.9979L63.4819 51.5021ZM66.5825 48.8882C67.6275 48.0368 68.7104 47.2439 69.8316 46.5094L66.5434 41.4906C65.2479 42.3394 63.9975 43.2549 62.7925 44.2368L66.5825 48.8882ZM69.7927 46.5345C70.8984 45.8342 72.1098 45.199 73.4318 44.6324L71.0682 39.1176C69.4735 39.801 67.9766 40.5825 66.5823 41.4655L69.7927 46.5345ZM73.4684 44.6164C73.3472 44.6703 73.3037 44.6665 73.3937 44.6526C73.4773 44.6397 73.6319 44.625 73.875 44.625V38.625C73.0084 38.625 71.973 38.7152 71.0316 39.1336L73.4684 44.6164ZM73.875 44.625C74.4065 44.625 74.9705 44.6719 75.5693 44.7717L76.5557 38.8533C75.6545 38.7031 74.7601 38.625 73.875 38.625V44.625ZM75.7312 44.7942C76.356 44.8636 76.8935 44.9639 77.352 45.0862L78.898 39.2888C78.1065 39.0777 77.269 38.9281 76.3938 38.8308L75.7312 44.7942ZM77.3974 45.0979C77.6719 45.1665 77.8677 45.2254 77.9988 45.271C78.1426 45.321 78.1474 45.3341 78.0741 45.2922L81.0509 40.0828C80.3834 39.7014 79.5686 39.4561 78.8526 39.2771L77.3974 45.0979ZM77.9565 45.2214C80.394 46.7663 82.2686 48.9299 83.5837 51.809L89.0413 49.316C87.2731 45.4451 84.6477 42.3587 81.1685 40.1536L77.9565 45.2214ZM83.5853 51.8125C84.7556 54.3659 85.375 57.3257 85.375 60.75H91.375C91.375 56.591 90.6194 52.7591 89.0397 49.3125L83.5853 51.8125ZM85.375 60.75C85.375 61.167 85.3576 61.6108 85.3213 62.0824L91.3037 62.5426C91.3507 61.9309 91.375 61.333 91.375 60.75H85.375ZM54.1236 62.0852C53.7789 63.2485 53.4362 64.4914 53.0952 65.8129L58.9048 67.3121C59.2305 66.0503 59.5544 64.8765 59.8764 63.7898L54.1236 62.0852ZM53.1219 65.716C52.8362 66.6875 52.6875 67.6807 52.6875 68.6875H58.6875C58.6875 68.2777 58.7472 67.8541 58.8781 67.409L53.1219 65.716ZM52.6875 68.6875C52.6875 69.6069 52.8028 70.5178 53.0271 71.4151L58.8479 69.9599C58.7389 69.5238 58.6875 69.1014 58.6875 68.6875H52.6875ZM56.1512 73.6799C56.9447 73.6232 57.7631 73.3652 58.4875 72.8219C59.199 72.2882 59.658 71.6012 59.9449 70.9318L54.4301 68.5682C54.467 68.4821 54.5926 68.243 54.8875 68.0219C55.1952 67.7911 55.5136 67.7101 55.7238 67.6951L56.1512 73.6799ZM59.9729 70.8642C60.3714 69.868 60.5669 68.8004 60.6213 67.7123L54.6287 67.4127C54.5998 67.9912 54.5036 68.382 54.4021 68.6358L59.9729 70.8642ZM60.625 67.5625V67.25H54.625V67.5625H60.625ZM60.625 67.25C60.625 66.3649 60.5469 65.4705 60.3967 64.5693L54.4783 65.5557C54.5781 66.1545 54.625 66.7185 54.625 67.25H60.625ZM60.4073 64.6382C60.271 63.6837 60.0981 62.8052 59.8673 62.0552L54.1327 63.8198C54.2352 64.1531 54.354 64.6913 54.4677 65.4868L60.4073 64.6382ZM140.562 63L143.561 63.0909L143.562 63.0454V63H140.562ZM139.938 66.9375L137.064 66.0755L137.051 66.1198L137.039 66.1645L139.938 66.9375ZM138.688 70.5625L141.429 71.7809L141.437 71.7626L141.445 71.7443L138.688 70.5625ZM137 73.8125L134.428 72.269L134.404 72.3075L134.382 72.3467L137 73.8125ZM135.375 76.75L136.717 79.4333L137.558 79.0125L138.009 78.1866L135.375 76.75ZM133.562 78.0625L135.684 80.1838L133.562 78.0625ZM128.25 82.375L127.213 79.56L127.057 79.6174L126.908 79.6917L128.25 82.375ZM125.312 82.8125L124.638 79.8893L124.499 79.9214L124.364 79.9665L125.312 82.8125ZM123.938 83.25L124.82 86.1173L123.938 83.25ZM122.188 83.75L121.415 80.8513L121.389 80.8581L121.363 80.8654L122.188 83.75ZM120.375 84.1875L120.868 87.1467L120.916 87.1387L120.963 87.1292L120.375 84.1875ZM118.438 84.3125L118.106 87.2942L118.271 87.3125H118.438V84.3125ZM116.375 83.625L117.103 80.7146L116.963 80.6796L116.82 80.6582L116.375 83.625ZM112.812 83.4375V80.4375H112.599L112.388 80.4677L112.812 83.4375ZM109.25 83.25L108.662 86.1917L108.675 86.1944L108.689 86.197L109.25 83.25ZM106.75 82.625L104.829 84.9297L106.337 86.1857L108.092 85.3083L106.75 82.625ZM104.312 80.875L102.733 83.4258L104.312 80.875ZM101.75 79.25L100.03 81.7077L100.072 81.7372L100.115 81.7653L101.75 79.25ZM99.3125 77.4375L97.3801 79.7322L97.4164 79.7628L97.4536 79.7921L99.3125 77.4375ZM97.3125 75.0625L99.8953 73.5363L99.883 73.5155L99.8703 73.4948L97.3125 75.0625ZM95.0625 65.9375H92.0625V65.9741L92.0634 66.0106L95.0625 65.9375ZM95.3125 60.75L98.2931 61.0906L98.2967 61.0593L98.2996 61.0279L95.3125 60.75ZM95.875 55.4375L93.2437 53.9966L92.9647 54.506L92.896 55.0829L95.875 55.4375ZM98.6875 50.125L101.358 51.4914L101.365 51.4791L101.371 51.4666L98.6875 50.125ZM101.938 45.1875L100.296 42.6766L99.9379 42.9105L99.6597 43.2351L101.938 45.1875ZM105.188 43.25L103.807 40.5867L103.786 40.5975L103.765 40.6086L105.188 43.25ZM109.062 41.4375L107.894 38.6746L107.881 38.6801L109.062 41.4375ZM112.688 40.375L113.24 43.3236L113.275 43.3171L113.31 43.3097L112.688 40.375ZM116.938 39.8125V36.8125H116.852L116.766 36.8174L116.938 39.8125ZM121.375 39.9375L121.706 36.9558L121.66 36.9507L121.614 36.9471L121.375 39.9375ZM125.75 40.8125L126.632 37.9452L126.614 37.9397L126.596 37.9344L125.75 40.8125ZM127.75 41.625L126.466 44.3362L126.55 44.376L126.636 44.4104L127.75 41.625ZM130.188 42.75L128.79 45.4048L128.872 45.4478L128.956 45.4858L130.188 42.75ZM132.5 44L130.87 46.5187L130.955 46.5735L131.043 46.6225L132.5 44ZM134.312 45.1875L132.413 47.5094L132.426 47.5198L132.438 47.5301L134.312 45.1875ZM135.812 46.875L133.24 48.4185L133.302 48.5212L133.371 48.6187L135.812 46.875ZM136.938 48.6875L134.29 50.0993L134.326 50.1661L134.365 50.231L136.938 48.6875ZM137.938 50.5625L135.219 51.8312L135.253 51.9037L135.29 51.9743L137.938 50.5625ZM139.125 52.3125L142.122 52.1822L142.078 51.1576L141.415 50.3747L139.125 52.3125ZM139.438 55.0625L136.49 55.6238L136.503 55.6909L136.519 55.7574L139.438 55.0625ZM140.438 60.3125L143.414 59.9404L143.411 59.9143L143.407 59.8882L140.438 60.3125ZM137.062 59.8125L134.079 60.128L134.085 60.1825L134.093 60.2368L137.062 59.8125ZM124.312 44.375L125.223 41.5166L125.17 41.4995L125.115 41.4844L124.312 44.375ZM121.875 43.6875L120.884 46.5191L120.967 46.548L121.051 46.5721L121.875 43.6875ZM119.688 43.125L120.084 40.1513L119.887 40.125H119.688V43.125ZM119 43.3125L117.2 40.9125L117.163 40.9406L117.126 40.9699L119 43.3125ZM117.375 43.375L115.501 45.7176L115.749 45.9161L116.033 46.0583L117.375 43.375ZM116.75 43.125V40.125H116.686L116.622 40.1277L116.75 43.125ZM106.438 46.625L108.204 49.0497L108.21 49.0453L106.438 46.625ZM100.062 54.8125L97.2771 53.6983L97.1985 53.8947L97.1483 54.1001L100.062 54.8125ZM98.875 60.25L101.811 60.868L101.817 60.8397L101.822 60.8113L98.875 60.25ZM98.375 65.5H95.375V65.5231L95.3754 65.5461L98.375 65.5ZM100.25 72.5L97.6969 74.0753L100.25 72.5ZM104.875 77.3125L103.211 79.8087L103.243 79.8299L103.275 79.8503L104.875 77.3125ZM111.312 79.9375L110.645 82.8624L110.654 82.8643L110.662 82.8661L111.312 79.9375ZM118.562 80.5L118.41 77.5039L118.371 77.5058L118.332 77.5088L118.562 80.5ZM125.625 79.125L126.621 81.9549L126.636 81.9497L126.65 81.9444L125.625 79.125ZM131.625 75.6875L133.573 77.9692L133.777 77.7949L133.947 77.5872L131.625 75.6875ZM133.812 72.5625L136.377 74.1194L136.389 74.0996L136.401 74.0797L133.812 72.5625ZM136.938 64.375L139.882 64.9476L139.885 64.9363L136.938 64.375ZM137.564 62.9091C137.53 64.0368 137.36 65.0891 137.064 66.0755L142.811 67.7995C143.265 66.2859 143.512 64.7132 143.561 63.0909L137.564 62.9091ZM137.039 66.1645C136.742 67.2777 136.372 68.3493 135.93 69.3807L141.445 71.7443C142.003 70.4424 142.466 69.0973 142.836 67.7105L137.039 66.1645ZM135.946 69.3441C135.495 70.3589 134.989 71.3336 134.428 72.269L139.572 75.356C140.261 74.2081 140.88 73.0161 141.429 71.7809L135.946 69.3441ZM134.382 72.3467C133.794 73.3967 133.247 74.3857 132.741 75.3134L138.009 78.1866C138.503 77.2809 139.039 76.3116 139.618 75.2783L134.382 72.3467ZM134.033 74.0667C133.07 74.5482 132.204 75.1779 131.441 75.9412L135.684 80.1838C136.004 79.8638 136.346 79.6184 136.717 79.4333L134.033 74.0667ZM131.441 75.9412C131.434 75.9481 131.425 75.9577 131.418 75.9646C131.413 75.9698 131.399 75.9829 131.394 75.9881C131.384 75.9986 131.358 76.0247 131.347 76.0352C131.333 76.0491 131.267 76.1156 131.253 76.1297C131.211 76.1716 131.105 76.2775 131.062 76.3201C130.978 76.4046 130.763 76.6197 130.676 76.7068C130.632 76.7501 130.523 76.8591 130.479 76.9031C130.457 76.925 130.402 76.9799 130.38 77.002C130.369 77.013 130.342 77.0405 130.331 77.0516C130.323 77.059 130.288 77.0939 130.281 77.1013C130.164 77.2188 129.999 77.3836 129.879 77.5037L134.121 81.7463C134.14 81.7275 134.128 81.7397 134.147 81.7209C134.171 81.6965 134.148 81.72 134.172 81.6956C134.181 81.6862 134.175 81.6923 134.185 81.6829C134.191 81.6764 134.191 81.6768 134.197 81.6703C134.203 81.6647 134.217 81.6506 134.223 81.645C134.316 81.5517 134.18 81.6878 134.273 81.5945C134.275 81.5927 134.296 81.5712 134.298 81.5693C134.332 81.5358 134.29 81.5777 134.323 81.5442C134.325 81.5431 134.326 81.5421 134.327 81.541C134.328 81.54 134.329 81.5389 134.33 81.5379C134.332 81.5356 134.334 81.5339 134.336 81.5316C134.359 81.5083 134.325 81.5423 134.349 81.519C134.355 81.513 134.349 81.5188 134.355 81.5128C134.355 81.5123 134.361 81.507 134.361 81.5065C134.367 81.5009 134.368 81.4995 134.374 81.4939C134.418 81.4494 134.354 81.5134 134.399 81.4689C134.4 81.4679 134.41 81.4573 134.411 81.4563C134.427 81.4406 134.408 81.4596 134.424 81.4438C134.461 81.4068 134.487 81.3809 134.524 81.344C134.815 81.0526 134.629 81.2382 134.918 80.9494C135.121 80.7471 134.911 80.9568 135.113 80.7551C135.198 80.6695 135.22 80.6477 135.305 80.5627C135.418 80.4493 135.573 80.2946 135.684 80.1838L131.441 75.9412ZM129.879 77.5037C129.391 77.9909 128.885 78.4596 128.36 78.9097L132.265 83.4653C132.906 82.9154 133.525 82.3424 134.121 81.7463L129.879 77.5037ZM128.36 78.9097C128.073 79.156 127.703 79.3795 127.213 79.56L129.287 85.19C130.381 84.7872 131.385 84.219 132.265 83.4653L128.36 78.9097ZM126.908 79.6917C127.031 79.6304 127.109 79.6157 127.111 79.6155C127.112 79.6151 127.1 79.6176 127.07 79.6202C127.04 79.6227 126.996 79.625 126.938 79.625V85.625C127.749 85.625 128.696 85.5059 129.592 85.0583L126.908 79.6917ZM126.938 79.625C126.163 79.625 125.395 79.7146 124.638 79.8893L125.987 85.7357C126.313 85.6604 126.629 85.625 126.938 85.625V79.625ZM124.364 79.9665C124.018 80.0817 123.583 80.2202 123.055 80.3827L124.82 86.1173C125.375 85.9465 125.857 85.7933 126.261 85.6585L124.364 79.9665ZM123.055 80.3827C122.554 80.5368 122.008 80.6931 121.415 80.8513L122.96 86.6487C123.617 86.4736 124.237 86.2966 124.82 86.1173L123.055 80.3827ZM121.363 80.8654C120.862 81.0088 120.336 81.1358 119.787 81.2458L120.963 87.1292C121.664 86.9892 122.347 86.8246 123.012 86.6346L121.363 80.8654ZM119.882 81.2283C119.528 81.2873 119.214 81.3125 118.938 81.3125V87.3125C119.577 87.3125 120.222 87.2544 120.868 87.1467L119.882 81.2283ZM118.938 81.3125H118.438V87.3125H118.938V81.3125ZM118.769 81.3308C118.741 81.3278 118.729 81.3231 118.717 81.3167L116.033 86.6833C116.687 87.0102 117.384 87.2139 118.106 87.2942L118.769 81.3308ZM118.717 81.3167C118.204 81.0603 117.665 80.8553 117.103 80.7146L115.647 86.5354C115.751 86.5614 115.879 86.6063 116.033 86.6833L118.717 81.3167ZM116.82 80.6582C115.834 80.5103 114.831 80.4375 113.812 80.4375V86.4375C114.544 86.4375 115.249 86.4897 115.93 86.5918L116.82 80.6582ZM113.812 80.4375H112.812V86.4375H113.812V80.4375ZM112.388 80.4677C112.236 80.4894 112.086 80.5 111.938 80.5V86.5C112.373 86.5 112.806 86.4689 113.237 86.4073L112.388 80.4677ZM111.938 80.5C111.204 80.5 110.496 80.4334 109.811 80.303L108.689 86.197C109.754 86.3999 110.838 86.5 111.938 86.5V80.5ZM109.838 80.3083C109.829 80.3064 109.796 80.2999 109.727 80.2538L106.398 85.2462C107.079 85.7001 107.838 86.027 108.662 86.1917L109.838 80.3083ZM109.727 80.2538C109.085 79.8259 108.265 79.5 107.312 79.5V85.5C106.86 85.5 106.54 85.3407 106.398 85.2462L109.727 80.2538ZM107.312 79.5C106.694 79.5 106.039 79.6266 105.408 79.9417L108.092 85.3083C107.795 85.4567 107.514 85.5 107.312 85.5V79.5ZM108.671 80.3203C107.807 79.6007 106.88 78.9359 105.892 78.3242L102.733 83.4258C103.495 83.8975 104.193 84.3993 104.829 84.9297L108.671 80.3203ZM105.892 78.3242C105.035 77.7937 104.199 77.2639 103.385 76.7347L100.115 81.7653C100.968 82.3194 101.84 82.8729 102.733 83.4258L105.892 78.3242ZM103.47 76.7923C102.684 76.2417 101.918 75.6719 101.171 75.0829L97.4536 79.7921C98.2908 80.4531 99.1495 81.0916 100.03 81.7077L103.47 76.7923ZM101.245 75.1428C100.719 74.7001 100.27 74.1705 99.8953 73.5363L94.7297 76.5887C95.4383 77.7879 96.3225 78.8416 97.3801 79.7322L101.245 75.1428ZM99.8703 73.4948C99.2623 72.5028 98.8222 71.4038 98.5572 70.1785L92.6928 71.4465C93.0945 73.3045 93.7794 75.0388 94.7547 76.6302L99.8703 73.4948ZM98.5572 70.1785C98.2669 68.8358 98.0991 67.3996 98.0616 65.8644L92.0634 66.0106C92.1093 67.8921 92.3164 69.7058 92.6928 71.4465L98.5572 70.1785ZM98.0625 65.9375V65.0625H92.0625V65.9375H98.0625ZM98.0625 65.0625C98.0625 63.7637 98.1389 62.4399 98.2931 61.0906L92.3319 60.4094C92.1528 61.9767 92.0625 63.528 92.0625 65.0625H98.0625ZM98.2996 61.0279C98.4639 59.2613 98.6487 57.5161 98.854 55.7921L92.896 55.0829C92.6846 56.8589 92.4944 58.6554 92.3254 60.4721L98.2996 61.0279ZM98.5063 56.8784C99.4782 55.1036 100.429 53.3079 101.358 51.4914L96.0168 48.7586C95.1128 50.5254 94.1884 52.2714 93.2437 53.9966L98.5063 56.8784ZM101.371 51.4666C102.185 49.838 103.135 48.3999 104.215 47.1399L99.6597 43.2351C98.2398 44.8917 97.0233 46.7453 96.0042 48.7834L101.371 51.4666ZM103.579 47.6984C104.595 47.0343 105.605 46.4324 106.61 45.8914L103.765 40.6086C102.603 41.2343 101.447 41.9241 100.296 42.6766L103.579 47.6984ZM106.568 45.9133C107.614 45.3709 108.837 44.7978 110.244 44.1949L107.881 38.6801C106.371 39.3272 105.011 39.9624 103.807 40.5867L106.568 45.9133ZM110.231 44.2004C111.089 43.8375 112.087 43.5399 113.24 43.3236L112.135 37.4264C110.621 37.7101 109.202 38.1208 107.894 38.6746L110.231 44.2004ZM113.31 43.3097C114.531 43.0508 115.796 42.8826 117.109 42.8076L116.766 36.8174C115.162 36.9091 113.594 37.1159 112.065 37.4403L113.31 43.3097ZM116.938 42.8125H118.25V36.8125H116.938V42.8125ZM118.25 42.8125C119.212 42.8125 120.173 42.851 121.136 42.9279L121.614 36.9471C120.493 36.8574 119.372 36.8125 118.25 36.8125V42.8125ZM121.044 42.9192C122.373 43.0669 123.659 43.3245 124.904 43.6906L126.596 37.9344C125.008 37.4671 123.377 37.1415 121.706 36.9558L121.044 42.9192ZM124.868 43.6798C125.219 43.7879 125.742 43.9935 126.466 44.3362L129.034 38.9138C128.174 38.5065 127.364 38.1704 126.632 37.9452L124.868 43.6798ZM126.636 44.4104C127.373 44.7053 128.091 45.0367 128.79 45.4048L131.585 40.0952C130.701 39.63 129.794 39.2114 128.864 38.8396L126.636 44.4104ZM128.956 45.4858C129.663 45.8037 130.299 46.1492 130.87 46.5187L134.13 41.4813C133.284 40.9342 132.379 40.4463 131.419 40.0142L128.956 45.4858ZM131.043 46.6225C131.7 46.9873 132.139 47.2855 132.413 47.5094L136.212 42.8656C135.569 42.3395 134.8 41.8461 133.957 41.3775L131.043 46.6225ZM132.438 47.5301C132.812 47.8292 133.066 48.1279 133.24 48.4185L138.385 45.3315C137.809 44.3721 137.063 43.5458 136.187 42.8449L132.438 47.5301ZM133.371 48.6187C133.713 49.0973 134.019 49.5906 134.29 50.0993L139.585 47.2757C139.189 46.5344 138.745 45.8194 138.254 45.1313L133.371 48.6187ZM134.365 50.231C134.69 50.772 134.974 51.3054 135.219 51.8312L140.656 49.2938C140.318 48.5696 139.935 47.853 139.51 47.144L134.365 50.231ZM135.29 51.9743C135.724 52.7871 136.239 53.5467 136.835 54.2503L141.415 50.3747C141.094 49.9949 140.818 49.5879 140.585 49.1507L135.29 51.9743ZM136.128 52.4428C136.175 53.5349 136.295 54.5962 136.49 55.6238L142.385 54.5012C142.247 53.7788 142.158 53.0068 142.122 52.1822L136.128 52.4428ZM136.519 55.7574C136.717 56.5885 136.895 57.419 137.053 58.2488L142.947 57.1262C142.772 56.206 142.575 55.2865 142.356 54.3676L136.519 55.7574ZM137.053 58.2488C137.211 59.0787 137.349 59.908 137.468 60.7368L143.407 59.8882C143.276 58.967 143.122 58.0463 142.947 57.1262L137.053 58.2488ZM137.461 60.6846C137.529 61.2288 137.562 61.7712 137.562 62.3125H143.562C143.562 61.5205 143.513 60.7295 143.414 59.9404L137.461 60.6846ZM137.562 62.3125V63H143.562V62.3125H137.562ZM140.046 59.497C139.545 54.7628 138.097 50.7384 135.423 47.7496L130.952 51.7504C132.528 53.5116 133.663 56.1955 134.079 60.128L140.046 59.497ZM135.423 47.7496C132.862 44.8875 129.4 42.8475 125.223 41.5166L123.402 47.2334C126.809 48.3191 129.263 49.8625 130.952 51.7504L135.423 47.7496ZM125.115 41.4844C124.374 41.2784 123.568 41.0512 122.699 40.8029L121.051 46.5721C121.932 46.8238 122.751 47.055 123.51 47.2656L125.115 41.4844ZM122.866 40.8559C121.91 40.5213 120.974 40.27 120.084 40.1513L119.291 46.0987C119.651 46.1467 120.173 46.2703 120.884 46.5191L122.866 40.8559ZM119.688 40.125H119.562V46.125H119.688V40.125ZM119.562 40.125C118.705 40.125 117.886 40.398 117.2 40.9125L120.8 45.7125C120.447 45.977 120.003 46.125 119.562 46.125V40.125ZM117.126 40.9699C117.295 40.8349 117.493 40.7256 117.708 40.654C117.919 40.5834 118.108 40.5625 118.25 40.5625V46.5625C119.155 46.5625 120.083 46.2878 120.874 45.6551L117.126 40.9699ZM118.25 40.5625C118.293 40.5625 118.477 40.572 118.717 40.6917L116.033 46.0583C116.773 46.428 117.54 46.5625 118.25 46.5625V40.5625ZM119.249 41.0324C118.66 40.5614 117.811 40.125 116.75 40.125V46.125C116.106 46.125 115.673 45.8553 115.501 45.7176L119.249 41.0324ZM116.622 40.1277C112.155 40.3178 108.136 41.6625 104.665 44.2047L108.21 49.0453C110.656 47.2542 113.511 46.2655 116.878 46.1223L116.622 40.1277ZM104.671 44.2003C101.301 46.6558 98.8211 49.8381 97.2771 53.6983L102.848 55.9267C103.971 53.1202 105.741 50.8442 108.204 49.0497L104.671 44.2003ZM97.1483 54.1001C96.6787 56.0211 96.2717 57.8841 95.928 59.6887L101.822 60.8113C102.145 59.1159 102.53 57.3539 102.977 55.5249L97.1483 54.1001ZM95.9394 59.632C95.5653 61.4085 95.375 63.1782 95.375 64.9375H101.375C101.375 63.6135 101.518 62.2582 101.811 60.868L95.9394 59.632ZM95.375 64.9375V65.5H101.375V64.9375H95.375ZM95.3754 65.5461C95.4239 68.6984 96.1578 71.581 97.6969 74.0753L102.803 70.9247C101.926 69.5024 101.409 67.7182 101.375 65.4539L95.3754 65.5461ZM97.6969 74.0753C99.1269 76.393 100.969 78.3141 103.211 79.8087L106.539 74.8163C105.031 73.8109 103.79 72.5237 102.803 70.9247L97.6969 74.0753ZM103.275 79.8503C105.499 81.2526 107.965 82.251 110.645 82.8624L111.98 77.0126C109.91 76.5407 108.084 75.7891 106.475 74.7747L103.275 79.8503ZM110.662 82.8661C112.75 83.3301 114.864 83.5625 117 83.5625V77.5625C115.303 77.5625 113.625 77.3782 111.963 77.0089L110.662 82.8661ZM117 83.5625C117.583 83.5625 118.181 83.5382 118.793 83.4912L118.332 77.5088C117.861 77.5451 117.417 77.5625 117 77.5625V83.5625ZM118.715 83.4961C121.452 83.357 124.09 82.8452 126.621 81.9549L124.629 76.2951C122.66 76.9881 120.59 77.393 118.41 77.5039L118.715 83.4961ZM126.65 81.9444C129.25 80.999 131.569 79.6797 133.573 77.9692L129.677 73.4058C128.264 74.612 126.583 75.5844 124.6 76.3056L126.65 81.9444ZM133.947 77.5872C134.798 76.5472 135.607 75.3883 136.377 74.1194L131.248 71.0056C130.602 72.0701 129.952 72.9944 129.303 73.7878L133.947 77.5872ZM136.401 74.0797C137.191 72.7305 137.883 71.2984 138.479 69.7871L132.896 67.5879C132.408 68.8266 131.85 69.9779 131.224 71.0453L136.401 74.0797ZM138.479 69.7871C139.09 68.2358 139.557 66.6215 139.882 64.9476L133.993 63.8024C133.735 65.1285 133.368 66.3892 132.896 67.5879L138.479 69.7871ZM139.885 64.9363C140.089 63.8629 140.188 62.7576 140.188 61.625H134.188C134.188 62.4091 134.119 63.1371 133.99 63.8137L139.885 64.9363ZM140.188 61.625C140.188 60.8666 140.137 60.1203 140.032 59.3882L134.093 60.2368C134.155 60.6714 134.188 61.1334 134.188 61.625H140.188ZM155.188 70.875L158.186 70.9749L158.188 70.925V70.875H155.188ZM154.875 78.375L151.879 78.2252L151.877 78.2501L151.877 78.2751L154.875 78.375ZM153.688 85.5L150.826 84.5991L150.63 85.2231L150.711 85.8721L153.688 85.5ZM153.375 87.8125L155.68 89.7331L155.729 89.674L155.775 89.6125L153.375 87.8125ZM151.938 88.5625V85.5625H150.695L149.816 86.4412L151.938 88.5625ZM150.25 88L152.171 85.6953L152.068 85.6096L151.958 85.5334L150.25 88ZM149.312 86.3125L146.762 84.7334L146.216 85.6142L146.331 86.6438L149.312 86.3125ZM150.5 83.5625L147.63 82.689L147.612 82.7468L147.597 82.8052L150.5 83.5625ZM151.062 80.5625L148.082 80.2186L148.076 80.2709L148.072 80.3233L151.062 80.5625ZM151.375 74L154.367 74.2216L154.367 74.2137L151.375 74ZM151.625 64.6875H154.625V64.648L154.624 64.6086L151.625 64.6875ZM151 55.1875L153.984 54.8734L153.983 54.8679L151 55.1875ZM149.938 48.0625L152.93 47.8488L152.928 47.8257L152.926 47.8026L149.938 48.0625ZM149.688 45.5L146.704 45.8141L146.705 45.8227L146.706 45.8313L149.688 45.5ZM148.875 43.25L145.933 42.6617L145.694 43.8566L146.356 44.8798L148.875 43.25ZM149.438 42.1875L151.559 44.3088L149.438 42.1875ZM150.562 41.5L149.835 38.5896L149.767 38.6065L149.7 38.6265L150.562 41.5ZM151.75 41.5L152.612 38.6265L152.477 38.5859L152.338 38.5583L151.75 41.5ZM152.875 42.25L155.869 42.0569L155.802 41.0277L155.117 40.2569L152.875 42.25ZM153.688 49.375L150.706 49.7063L150.713 49.7689L150.722 49.8312L153.688 49.375ZM154.062 52.5625H157.062V52.4427L157.053 52.3233L154.062 52.5625ZM153.938 55.625L150.961 55.2529L150.886 55.8533L151.049 56.4358L153.938 55.625ZM155.125 63.0625L158.124 62.9958L158.123 62.9567L158.121 62.9175L155.125 63.0625ZM152.189 70.7751C152.106 73.2584 152.003 75.7418 151.879 78.2252L157.871 78.5248C157.997 76.0082 158.102 73.4916 158.186 70.9749L152.189 70.7751ZM151.877 78.2751C151.802 80.5195 151.448 82.6239 150.826 84.5991L156.549 86.4009C157.344 83.8761 157.781 81.2305 157.873 78.4749L151.877 78.2751ZM150.711 85.8721C150.742 86.121 150.75 86.2833 150.75 86.375H156.75C156.75 85.9667 156.717 85.5457 156.664 85.1279L150.711 85.8721ZM150.75 86.375C150.75 86.4954 150.737 86.5082 150.753 86.4459C150.771 86.3782 150.827 86.2103 150.975 86.0125L155.775 89.6125C156.566 88.5579 156.75 87.3406 156.75 86.375H150.75ZM151.07 85.8919C151.065 85.8982 151.14 85.807 151.315 85.7152C151.505 85.6162 151.726 85.5625 151.938 85.5625V91.5625C153.55 91.5625 154.82 90.765 155.68 89.7331L151.07 85.8919ZM149.816 86.4412C150.102 86.1559 150.778 85.625 151.812 85.625V91.625C152.93 91.625 153.69 91.0525 154.059 90.6838L149.816 86.4412ZM151.812 85.625C151.937 85.625 152.049 85.6509 152.13 85.6833C152.204 85.7131 152.217 85.7337 152.171 85.6953L148.329 90.3047C149.255 91.0763 150.435 91.625 151.812 91.625V85.625ZM151.958 85.5334C152.056 85.6014 152.159 85.7091 152.232 85.8399C152.299 85.9611 152.299 86.0282 152.294 85.9812L146.331 86.6438C146.495 88.117 147.179 89.523 148.542 90.4666L151.958 85.5334ZM151.863 87.8916C152.556 86.7718 153.074 85.5793 153.403 84.3198L147.597 82.8052C147.426 83.4624 147.152 84.1032 146.762 84.7334L151.863 87.8916ZM153.37 84.436C153.727 83.2625 153.953 82.0493 154.053 80.8017L148.072 80.3233C148.005 81.1591 147.856 81.9459 147.63 82.689L153.37 84.436ZM154.043 80.9064C154.181 79.7096 154.25 78.5115 154.25 77.3125H148.25C148.25 78.2802 148.194 79.2487 148.082 80.2186L154.043 80.9064ZM154.25 77.3125C154.25 76.3061 154.289 75.2759 154.367 74.2216L148.383 73.7784C148.295 74.9741 148.25 76.1523 148.25 77.3125H154.25ZM154.367 74.2137C154.539 71.807 154.625 69.3606 154.625 66.875H148.625C148.625 69.2227 148.544 71.5264 148.383 73.7863L154.367 74.2137ZM154.625 66.875V64.6875H148.625V66.875H154.625ZM154.624 64.6086C154.539 61.363 154.325 58.1179 153.984 54.8734L148.016 55.5016C148.342 58.5905 148.545 61.6787 148.626 64.7664L154.624 64.6086ZM153.983 54.8679C153.847 53.5997 153.644 52.3159 153.375 51.0172L147.5 52.2328C147.731 53.3507 147.903 54.442 148.017 55.5071L153.983 54.8679ZM153.375 51.0172C153.151 49.9318 153.003 48.876 152.93 47.8488L146.945 48.2762C147.038 49.5823 147.224 50.9015 147.5 52.2328L153.375 51.0172ZM152.926 47.8026C152.841 46.8266 152.756 45.9479 152.669 45.1687L146.706 45.8313C146.786 46.5521 146.867 47.3818 146.949 48.3224L152.926 47.8026ZM152.671 45.1859C152.535 43.8973 152.092 42.7002 151.394 41.6202L146.356 44.8798C146.574 45.2165 146.673 45.5194 146.704 45.8141L152.671 45.1859ZM151.817 43.8383C151.805 43.8972 151.779 43.9813 151.729 44.0755C151.679 44.1705 151.618 44.2494 151.559 44.3088L147.316 40.0662C146.593 40.7898 146.129 41.6828 145.933 42.6617L151.817 43.8383ZM151.559 44.3088C151.57 44.2977 151.562 44.3078 151.533 44.3255C151.503 44.3437 151.465 44.3612 151.425 44.3735L149.7 38.6265C148.769 38.9059 147.97 39.4119 147.316 40.0662L151.559 44.3088ZM151.29 44.4104C151.175 44.4393 151.112 44.4375 151.125 44.4375V38.4375C150.721 38.4375 150.284 38.4774 149.835 38.5896L151.29 44.4104ZM151.125 44.4375C151.132 44.4375 151.143 44.4381 151.162 44.4417L152.338 38.5583C151.94 38.4786 151.535 38.4375 151.125 38.4375V44.4375ZM150.888 44.3735C150.802 44.3476 150.73 44.3112 150.68 44.2774C150.631 44.2451 150.618 44.2259 150.633 44.2431L155.117 40.2569C154.472 39.5312 153.639 38.9346 152.612 38.6265L150.888 44.3735ZM149.881 42.4431C149.969 43.8047 150.102 45.1114 150.28 46.3618L156.22 45.5132C156.065 44.4303 155.948 43.2786 155.869 42.0569L149.881 42.4431ZM150.28 46.3618C150.443 47.4988 150.584 48.6136 150.706 49.7063L156.669 49.0437C156.541 47.8864 156.391 46.7096 156.22 45.5132L150.28 46.3618ZM150.722 49.8312C150.879 50.846 150.995 51.8361 151.072 52.8017L157.053 52.3233C156.964 51.2056 156.83 50.0707 156.653 48.9188L150.722 49.8312ZM151.062 52.5625V53.5625H157.062V52.5625H151.062ZM151.062 53.5625C151.062 54.1531 151.028 54.7161 150.961 55.2529L156.914 55.9971C157.014 55.2005 157.062 54.3885 157.062 53.5625H151.062ZM151.049 56.4358C151.652 58.5834 152.014 60.8386 152.129 63.2075L158.121 62.9175C157.986 60.1198 157.556 57.4166 156.826 54.8142L151.049 56.4358ZM152.126 63.1292C152.167 64.9819 152.188 66.8347 152.188 68.6875H158.188C158.188 66.7903 158.166 64.8931 158.124 62.9958L152.126 63.1292ZM152.188 68.6875V70.875H158.188V68.6875H152.188Z" fill="#34D399" mask="url(#path-1-outside-1_85_97)"/>
</svg>
