<svg width="125" height="50" viewBox="0 0 125 50" fill="none" xmlns="http://www.w3.org/2000/svg">
<mask id="path-1-outside-1_84_92" maskUnits="userSpaceOnUse" x="-3" y="-3" width="131" height="56" fill="black">
<rect fill="white" x="-3" y="-3" width="131" height="56"/>
<path d="M57.3125 23.3125C57.2292 25.3958 56.9375 27.4375 56.4375 29.4375C55.9792 31.3958 55.3958 33.2917 54.6875 35.125C54.0208 36.9167 53.2917 38.625 52.5 40.25C51.7083 41.8333 50.9583 43.2917 50.25 44.625C50.1667 45.5833 49.9375 46.4167 49.5625 47.125C49.2292 47.8333 48.6875 48.3333 47.9375 48.625C46.7292 48.375 46.0208 47.9375 45.8125 47.3125C45.7292 47.0625 45.6875 46.7917 45.6875 46.5C45.6875 46.0833 45.7917 45.6042 46 45.0625C46.2917 44.2292 46.7292 43.3333 47.3125 42.375C47.8958 41.4167 48.375 40.5 48.75 39.625C49.5417 37.875 50.3125 35.9583 51.0625 33.875C51.8542 31.7917 52.4792 29.625 52.9375 27.375C53.3958 25.25 53.625 23.0625 53.625 20.8125V20.5C53.5833 18.1667 53.1458 15.8333 52.3125 13.5C52.1458 13.0417 51.9583 12.6667 51.75 12.375C51.5833 12.0417 51.3958 11.7292 51.1875 11.4375C50.9792 11.1042 50.75 10.7708 50.5 10.4375C50.2917 10.0625 50.0625 9.625 49.8125 9.125C49.1042 8.66667 48.4375 8.1875 47.8125 7.6875C47.1875 7.14583 46.5208 6.64583 45.8125 6.1875H45.1875C44.0208 6.1875 42.9792 6.27083 42.0625 6.4375C40.9792 6.6875 39.9792 7.04167 39.0625 7.5C38.1458 7.95833 37.2708 8.52083 36.4375 9.1875C35.6458 9.85417 34.8125 10.6042 33.9375 11.4375C33.6458 11.6875 33.2292 12.0833 32.6875 12.625C32.1458 13.125 31.6042 13.6667 31.0625 14.25C30.5625 14.8333 30.0833 15.3958 29.625 15.9375C29.2083 16.4792 28.9792 16.9167 28.9375 17.25C28.8542 17.5833 28.8125 17.9375 28.8125 18.3125C28.8125 18.6458 28.8542 18.9583 28.9375 19.25C29.0208 20 29.1667 20.7708 29.375 21.5625C29.5833 22.3125 29.7708 23.1042 29.9375 23.9375C30.1458 24.7292 30.2917 25.5 30.375 26.25C30.4167 26.6667 30.4375 27.0833 30.4375 27.5V28.5C30.3542 29.3333 30.2708 30.0417 30.1875 30.625C30.0625 31.2083 29.8125 31.8333 29.4375 32.5C29.0625 33.1667 28.5833 33.7917 28 34.375C27.4583 34.9167 26.8542 35.3542 26.1875 35.6875C25.6458 35.9375 25.1042 36.0625 24.5625 36.0625H24.125C23.0833 35.9375 22.3542 35.3333 21.9375 34.25C21.5625 33.1667 21.375 31.8958 21.375 30.4375C21.375 29.0208 21.5 27.5625 21.75 26.0625C22.0417 24.5208 22.3333 23.25 22.625 22.25C22.875 21.4583 23.25 20.7292 23.75 20.0625C24.25 19.3542 24.5833 18.5625 24.75 17.6875V17.4375C24.75 16.2708 24.4792 15.0833 23.9375 13.875C23.3125 12.625 22.5 11.5 21.5 10.5C20.5417 9.45833 19.4583 8.58333 18.25 7.875C17.0833 7.16667 15.9792 6.75 14.9375 6.625C14.5208 6.58333 14.125 6.5625 13.75 6.5625C12.8333 6.5625 12 6.70833 11.25 7C10.1667 7.41667 9.20833 8.0625 8.375 8.9375C7.58333 9.77083 6.89583 10.7708 6.3125 11.9375C5.77083 13.1042 5.29167 14.3542 4.875 15.6875C4.5 16.9792 4.14583 18.3125 3.8125 19.6875C3.52083 21.0208 3.25 22.2917 3 23.5C3.125 24.625 3.20833 25.7917 3.25 27C3.33333 28.2083 3.41667 29.4375 3.5 30.6875C3.58333 31.8958 3.6875 33.125 3.8125 34.375C3.9375 35.5833 4.14583 36.7708 4.4375 37.9375C4.52083 38.3125 4.66667 38.6667 4.875 39C5.08333 39.3333 5.22917 39.6875 5.3125 40.0625C5.35417 40.3542 5.375 40.6667 5.375 41V41.625C5.33333 41.7917 5.3125 41.9375 5.3125 42.0625C5.3125 42.4375 5.375 42.8125 5.5 43.1875C5.66667 43.7708 6 44.3333 6.5 44.875C7.04167 45.4167 7.5 45.9375 7.875 46.4375C8.25 46.9792 8.4375 47.4792 8.4375 47.9375C8.4375 48.4375 8.02083 48.9375 7.1875 49.4375C6.27083 49.2292 5.47917 48.7083 4.8125 47.875C4.1875 47.0833 3.64583 46.2708 3.1875 45.4375C2.6875 44.3958 2.27083 43.2083 1.9375 41.875C1.64583 40.5 1.39583 39.0833 1.1875 37.625C1.02083 36.1667 0.875 34.6875 0.75 33.1875C0.666667 31.6875 0.583333 30.2708 0.5 28.9375C0.458333 28.2708 0.375 27.75 0.25 27.375C0.125 27 0.0625 26.4167 0.0625 25.625C0.104167 23.625 0.3125 21.7083 0.6875 19.875C1.10417 18 1.60417 16.2292 2.1875 14.5625C2.5625 13.4792 2.85417 12.5833 3.0625 11.875C3.3125 11.125 3.58333 10.4583 3.875 9.875C4.20833 9.29167 4.60417 8.75 5.0625 8.25C5.52083 7.70833 6.16667 7.08333 7 6.375C7.58333 5.91667 8.22917 5.375 8.9375 4.75C9.64583 4.125 10.3125 3.70833 10.9375 3.5C11.6458 3.25 12.3542 3.125 13.0625 3.125H13.25C14 3.16667 14.7708 3.27083 15.5625 3.4375C16.3542 3.60417 17.1458 3.8125 17.9375 4.0625C18.7292 4.3125 19.5417 4.54167 20.375 4.75C20.6667 5.20833 21.0208 5.625 21.4375 6C21.8542 6.33333 22.2917 6.66667 22.75 7C23.25 7.29167 23.7292 7.58333 24.1875 7.875C24.6875 8.16667 25.1458 8.5 25.5625 8.875C25.6458 9.75 25.875 10.4583 26.25 11C26.6667 11.5417 27 12.1667 27.25 12.875C28.375 12.0417 29.4583 11.1667 30.5 10.25C31.5417 9.33333 32.6042 8.4375 33.6875 7.5625C34.8125 6.64583 35.9792 5.79167 37.1875 5C38.4375 4.20833 39.7917 3.5 41.25 2.875C41.625 2.70833 42.1667 2.625 42.875 2.625C43.5833 2.625 44.3125 2.6875 45.0625 2.8125C45.8125 2.89583 46.5 3.02083 47.125 3.1875C47.7917 3.35417 48.2708 3.52083 48.5625 3.6875C51.5208 5.5625 53.7708 8.1875 55.3125 11.5625C56.6875 14.5625 57.375 17.9583 57.375 21.75C57.375 22.25 57.3542 22.7708 57.3125 23.3125ZM26 23.9375C25.6667 25.0625 25.3333 26.2708 25 27.5625C24.7917 28.2708 24.6875 28.9792 24.6875 29.6875C24.6875 30.3542 24.7708 31.0208 24.9375 31.6875C25.5208 31.6458 25.9375 31.3333 26.1875 30.75C26.4375 30.125 26.5833 29.3958 26.625 28.5625V28.25C26.625 27.5417 26.5625 26.8125 26.4375 26.0625C26.3125 25.1875 26.1667 24.4792 26 23.9375ZM109.562 24C109.521 25.375 109.312 26.6875 108.938 27.9375C108.604 29.1875 108.188 30.3958 107.688 31.5625C107.188 32.6875 106.625 33.7708 106 34.8125C105.417 35.8542 104.875 36.8333 104.375 37.75C103.708 38.0833 103.104 38.5208 102.562 39.0625C102.062 39.5625 101.542 40.0833 101 40.625C100.458 41.1667 99.8958 41.6875 99.3125 42.1875C98.7292 42.6875 98.0417 43.0833 97.25 43.375C96.9167 43.5417 96.4792 43.625 95.9375 43.625C95.3958 43.625 94.8542 43.6875 94.3125 43.8125C93.9375 43.9375 93.4792 44.0833 92.9375 44.25C92.3958 44.4167 91.8125 44.5833 91.1875 44.75C90.6042 44.9167 90 45.0625 89.375 45.1875C88.875 45.2708 88.3958 45.3125 87.9375 45.3125H87.4375C87.0625 45.2708 86.7083 45.1667 86.375 45C86.0417 44.8333 85.7083 44.7083 85.375 44.625C84.5417 44.5 83.6875 44.4375 82.8125 44.4375H81.8125C81.5208 44.4792 81.2292 44.5 80.9375 44.5C80.0208 44.5 79.125 44.4167 78.25 44.25C77.8333 44.1667 77.4375 44 77.0625 43.75C76.8125 43.5833 76.5625 43.5 76.3125 43.5C76.1042 43.5 75.9167 43.5417 75.75 43.625C75 43 74.1875 42.4167 73.3125 41.875C72.4375 41.3333 71.5833 40.7917 70.75 40.25C69.9167 39.6667 69.1042 39.0625 68.3125 38.4375C67.5208 37.7708 66.8542 36.9792 66.3125 36.0625C65.5208 34.7708 64.9583 33.3542 64.625 31.8125C64.2917 30.2708 64.1042 28.6458 64.0625 26.9375V26.0625C64.0625 24.6458 64.1458 23.2083 64.3125 21.75C64.4792 19.9583 64.6667 18.1875 64.875 16.4375C65.8333 14.6875 66.7708 12.9167 67.6875 11.125C68.6042 9.29167 69.6875 7.64583 70.9375 6.1875C72.0208 5.47917 73.1042 4.83333 74.1875 4.25C75.3125 3.66667 76.6042 3.0625 78.0625 2.4375C79.1458 1.97917 80.3542 1.625 81.6875 1.375C83.0625 1.08333 84.4792 0.895833 85.9375 0.8125H87.25C88.2917 0.8125 89.3333 0.854167 90.375 0.9375C91.875 1.10417 93.3333 1.39583 94.75 1.8125C95.2917 1.97917 95.9583 2.25 96.75 2.625C97.5833 2.95833 98.3958 3.33333 99.1875 3.75C100.021 4.125 100.792 4.54167 101.5 5C102.25 5.41667 102.854 5.8125 103.312 6.1875C103.938 6.6875 104.438 7.25 104.812 7.875C105.229 8.45833 105.604 9.0625 105.938 9.6875C106.312 10.3125 106.646 10.9375 106.938 11.5625C107.271 12.1875 107.667 12.7708 108.125 13.3125C108.167 14.2708 108.271 15.1875 108.438 16.0625C108.646 16.9375 108.833 17.8125 109 18.6875C109.167 19.5625 109.312 20.4375 109.438 21.3125C109.521 21.9792 109.562 22.6458 109.562 23.3125V24ZM106.062 20.8125C105.604 16.4792 104.312 13.125 102.188 10.75C100.062 8.375 97.1042 6.58333 93.3125 5.375C92.5625 5.16667 91.75 4.9375 90.875 4.6875C90.0417 4.39583 89.3125 4.20833 88.6875 4.125H88.5625C88.3542 4.125 88.1667 4.1875 88 4.3125C87.7917 4.47917 87.5417 4.5625 87.25 4.5625C86.9167 4.5625 86.625 4.5 86.375 4.375C86.1667 4.20833 85.9583 4.125 85.75 4.125C81.8333 4.29167 78.3958 5.45833 75.4375 7.625C72.5208 9.75 70.3958 12.4792 69.0625 15.8125C68.6042 17.6875 68.2083 19.5 67.875 21.25C67.5417 22.8333 67.375 24.3958 67.375 25.9375V26.5C67.4167 29.2083 68.0417 31.5417 69.25 33.5C70.4583 35.4583 72 37.0625 73.875 38.3125C75.7917 39.5208 77.9375 40.3958 80.3125 40.9375C82.1875 41.3542 84.0833 41.5625 86 41.5625C86.5 41.5625 87.0208 41.5417 87.5625 41.5C90.0208 41.375 92.375 40.9167 94.625 40.125C96.9167 39.2917 98.9167 38.1458 100.625 36.6875C101.375 35.7708 102.104 34.7292 102.812 33.5625C103.521 32.3542 104.146 31.0625 104.688 29.6875C105.229 28.3125 105.646 26.875 105.938 25.375C106.104 24.5 106.188 23.5833 106.188 22.625C106.188 22 106.146 21.3958 106.062 20.8125ZM124.188 31.875C124.104 34.375 124 36.875 123.875 39.375C123.792 41.875 123.396 44.25 122.688 46.5C122.729 46.8333 122.75 47.125 122.75 47.375C122.75 48 122.625 48.4792 122.375 48.8125C121.958 49.3125 121.479 49.5625 120.938 49.5625C120.896 49.6042 120.854 49.625 120.812 49.625C120.271 49.625 119.75 49.4167 119.25 49C118.708 48.625 118.396 48.0625 118.312 47.3125C118.854 46.4375 119.25 45.5208 119.5 44.5625C119.792 43.6042 119.979 42.6042 120.062 41.5625C120.188 40.4792 120.25 39.3958 120.25 38.3125C120.25 37.2292 120.292 36.125 120.375 35C120.542 32.6667 120.625 30.2917 120.625 27.875V25.6875C120.542 22.5208 120.333 19.3542 120 16.1875C119.875 15.0208 119.688 13.8333 119.438 12.625C119.188 11.4167 119.021 10.2292 118.938 9.0625C118.854 8.10417 118.771 7.25 118.688 6.5C118.604 5.70833 118.333 4.95833 117.875 4.25C117.958 3.83333 118.146 3.47917 118.438 3.1875C118.771 2.85417 119.146 2.625 119.562 2.5C119.729 2.45833 119.917 2.4375 120.125 2.4375C120.333 2.4375 120.542 2.45833 120.75 2.5C121.167 2.625 121.542 2.875 121.875 3.25C121.958 4.54167 122.083 5.77083 122.25 6.9375C122.417 8.10417 122.562 9.25 122.688 10.375C122.854 11.4583 122.979 12.5208 123.062 13.5625V14.5625C123.062 15.2708 123.021 15.9583 122.938 16.625C123.604 19 124 21.4792 124.125 24.0625C124.167 25.9375 124.188 27.8125 124.188 29.6875V31.875Z"/>
</mask>
<path d="M57.3125 23.3125C57.2292 25.3958 56.9375 27.4375 56.4375 29.4375C55.9792 31.3958 55.3958 33.2917 54.6875 35.125C54.0208 36.9167 53.2917 38.625 52.5 40.25C51.7083 41.8333 50.9583 43.2917 50.25 44.625C50.1667 45.5833 49.9375 46.4167 49.5625 47.125C49.2292 47.8333 48.6875 48.3333 47.9375 48.625C46.7292 48.375 46.0208 47.9375 45.8125 47.3125C45.7292 47.0625 45.6875 46.7917 45.6875 46.5C45.6875 46.0833 45.7917 45.6042 46 45.0625C46.2917 44.2292 46.7292 43.3333 47.3125 42.375C47.8958 41.4167 48.375 40.5 48.75 39.625C49.5417 37.875 50.3125 35.9583 51.0625 33.875C51.8542 31.7917 52.4792 29.625 52.9375 27.375C53.3958 25.25 53.625 23.0625 53.625 20.8125V20.5C53.5833 18.1667 53.1458 15.8333 52.3125 13.5C52.1458 13.0417 51.9583 12.6667 51.75 12.375C51.5833 12.0417 51.3958 11.7292 51.1875 11.4375C50.9792 11.1042 50.75 10.7708 50.5 10.4375C50.2917 10.0625 50.0625 9.625 49.8125 9.125C49.1042 8.66667 48.4375 8.1875 47.8125 7.6875C47.1875 7.14583 46.5208 6.64583 45.8125 6.1875H45.1875C44.0208 6.1875 42.9792 6.27083 42.0625 6.4375C40.9792 6.6875 39.9792 7.04167 39.0625 7.5C38.1458 7.95833 37.2708 8.52083 36.4375 9.1875C35.6458 9.85417 34.8125 10.6042 33.9375 11.4375C33.6458 11.6875 33.2292 12.0833 32.6875 12.625C32.1458 13.125 31.6042 13.6667 31.0625 14.25C30.5625 14.8333 30.0833 15.3958 29.625 15.9375C29.2083 16.4792 28.9792 16.9167 28.9375 17.25C28.8542 17.5833 28.8125 17.9375 28.8125 18.3125C28.8125 18.6458 28.8542 18.9583 28.9375 19.25C29.0208 20 29.1667 20.7708 29.375 21.5625C29.5833 22.3125 29.7708 23.1042 29.9375 23.9375C30.1458 24.7292 30.2917 25.5 30.375 26.25C30.4167 26.6667 30.4375 27.0833 30.4375 27.5V28.5C30.3542 29.3333 30.2708 30.0417 30.1875 30.625C30.0625 31.2083 29.8125 31.8333 29.4375 32.5C29.0625 33.1667 28.5833 33.7917 28 34.375C27.4583 34.9167 26.8542 35.3542 26.1875 35.6875C25.6458 35.9375 25.1042 36.0625 24.5625 36.0625H24.125C23.0833 35.9375 22.3542 35.3333 21.9375 34.25C21.5625 33.1667 21.375 31.8958 21.375 30.4375C21.375 29.0208 21.5 27.5625 21.75 26.0625C22.0417 24.5208 22.3333 23.25 22.625 22.25C22.875 21.4583 23.25 20.7292 23.75 20.0625C24.25 19.3542 24.5833 18.5625 24.75 17.6875V17.4375C24.75 16.2708 24.4792 15.0833 23.9375 13.875C23.3125 12.625 22.5 11.5 21.5 10.5C20.5417 9.45833 19.4583 8.58333 18.25 7.875C17.0833 7.16667 15.9792 6.75 14.9375 6.625C14.5208 6.58333 14.125 6.5625 13.75 6.5625C12.8333 6.5625 12 6.70833 11.25 7C10.1667 7.41667 9.20833 8.0625 8.375 8.9375C7.58333 9.77083 6.89583 10.7708 6.3125 11.9375C5.77083 13.1042 5.29167 14.3542 4.875 15.6875C4.5 16.9792 4.14583 18.3125 3.8125 19.6875C3.52083 21.0208 3.25 22.2917 3 23.5C3.125 24.625 3.20833 25.7917 3.25 27C3.33333 28.2083 3.41667 29.4375 3.5 30.6875C3.58333 31.8958 3.6875 33.125 3.8125 34.375C3.9375 35.5833 4.14583 36.7708 4.4375 37.9375C4.52083 38.3125 4.66667 38.6667 4.875 39C5.08333 39.3333 5.22917 39.6875 5.3125 40.0625C5.35417 40.3542 5.375 40.6667 5.375 41V41.625C5.33333 41.7917 5.3125 41.9375 5.3125 42.0625C5.3125 42.4375 5.375 42.8125 5.5 43.1875C5.66667 43.7708 6 44.3333 6.5 44.875C7.04167 45.4167 7.5 45.9375 7.875 46.4375C8.25 46.9792 8.4375 47.4792 8.4375 47.9375C8.4375 48.4375 8.02083 48.9375 7.1875 49.4375C6.27083 49.2292 5.47917 48.7083 4.8125 47.875C4.1875 47.0833 3.64583 46.2708 3.1875 45.4375C2.6875 44.3958 2.27083 43.2083 1.9375 41.875C1.64583 40.5 1.39583 39.0833 1.1875 37.625C1.02083 36.1667 0.875 34.6875 0.75 33.1875C0.666667 31.6875 0.583333 30.2708 0.5 28.9375C0.458333 28.2708 0.375 27.75 0.25 27.375C0.125 27 0.0625 26.4167 0.0625 25.625C0.104167 23.625 0.3125 21.7083 0.6875 19.875C1.10417 18 1.60417 16.2292 2.1875 14.5625C2.5625 13.4792 2.85417 12.5833 3.0625 11.875C3.3125 11.125 3.58333 10.4583 3.875 9.875C4.20833 9.29167 4.60417 8.75 5.0625 8.25C5.52083 7.70833 6.16667 7.08333 7 6.375C7.58333 5.91667 8.22917 5.375 8.9375 4.75C9.64583 4.125 10.3125 3.70833 10.9375 3.5C11.6458 3.25 12.3542 3.125 13.0625 3.125H13.25C14 3.16667 14.7708 3.27083 15.5625 3.4375C16.3542 3.60417 17.1458 3.8125 17.9375 4.0625C18.7292 4.3125 19.5417 4.54167 20.375 4.75C20.6667 5.20833 21.0208 5.625 21.4375 6C21.8542 6.33333 22.2917 6.66667 22.75 7C23.25 7.29167 23.7292 7.58333 24.1875 7.875C24.6875 8.16667 25.1458 8.5 25.5625 8.875C25.6458 9.75 25.875 10.4583 26.25 11C26.6667 11.5417 27 12.1667 27.25 12.875C28.375 12.0417 29.4583 11.1667 30.5 10.25C31.5417 9.33333 32.6042 8.4375 33.6875 7.5625C34.8125 6.64583 35.9792 5.79167 37.1875 5C38.4375 4.20833 39.7917 3.5 41.25 2.875C41.625 2.70833 42.1667 2.625 42.875 2.625C43.5833 2.625 44.3125 2.6875 45.0625 2.8125C45.8125 2.89583 46.5 3.02083 47.125 3.1875C47.7917 3.35417 48.2708 3.52083 48.5625 3.6875C51.5208 5.5625 53.7708 8.1875 55.3125 11.5625C56.6875 14.5625 57.375 17.9583 57.375 21.75C57.375 22.25 57.3542 22.7708 57.3125 23.3125ZM26 23.9375C25.6667 25.0625 25.3333 26.2708 25 27.5625C24.7917 28.2708 24.6875 28.9792 24.6875 29.6875C24.6875 30.3542 24.7708 31.0208 24.9375 31.6875C25.5208 31.6458 25.9375 31.3333 26.1875 30.75C26.4375 30.125 26.5833 29.3958 26.625 28.5625V28.25C26.625 27.5417 26.5625 26.8125 26.4375 26.0625C26.3125 25.1875 26.1667 24.4792 26 23.9375ZM109.562 24C109.521 25.375 109.312 26.6875 108.938 27.9375C108.604 29.1875 108.188 30.3958 107.688 31.5625C107.188 32.6875 106.625 33.7708 106 34.8125C105.417 35.8542 104.875 36.8333 104.375 37.75C103.708 38.0833 103.104 38.5208 102.562 39.0625C102.062 39.5625 101.542 40.0833 101 40.625C100.458 41.1667 99.8958 41.6875 99.3125 42.1875C98.7292 42.6875 98.0417 43.0833 97.25 43.375C96.9167 43.5417 96.4792 43.625 95.9375 43.625C95.3958 43.625 94.8542 43.6875 94.3125 43.8125C93.9375 43.9375 93.4792 44.0833 92.9375 44.25C92.3958 44.4167 91.8125 44.5833 91.1875 44.75C90.6042 44.9167 90 45.0625 89.375 45.1875C88.875 45.2708 88.3958 45.3125 87.9375 45.3125H87.4375C87.0625 45.2708 86.7083 45.1667 86.375 45C86.0417 44.8333 85.7083 44.7083 85.375 44.625C84.5417 44.5 83.6875 44.4375 82.8125 44.4375H81.8125C81.5208 44.4792 81.2292 44.5 80.9375 44.5C80.0208 44.5 79.125 44.4167 78.25 44.25C77.8333 44.1667 77.4375 44 77.0625 43.75C76.8125 43.5833 76.5625 43.5 76.3125 43.5C76.1042 43.5 75.9167 43.5417 75.75 43.625C75 43 74.1875 42.4167 73.3125 41.875C72.4375 41.3333 71.5833 40.7917 70.75 40.25C69.9167 39.6667 69.1042 39.0625 68.3125 38.4375C67.5208 37.7708 66.8542 36.9792 66.3125 36.0625C65.5208 34.7708 64.9583 33.3542 64.625 31.8125C64.2917 30.2708 64.1042 28.6458 64.0625 26.9375V26.0625C64.0625 24.6458 64.1458 23.2083 64.3125 21.75C64.4792 19.9583 64.6667 18.1875 64.875 16.4375C65.8333 14.6875 66.7708 12.9167 67.6875 11.125C68.6042 9.29167 69.6875 7.64583 70.9375 6.1875C72.0208 5.47917 73.1042 4.83333 74.1875 4.25C75.3125 3.66667 76.6042 3.0625 78.0625 2.4375C79.1458 1.97917 80.3542 1.625 81.6875 1.375C83.0625 1.08333 84.4792 0.895833 85.9375 0.8125H87.25C88.2917 0.8125 89.3333 0.854167 90.375 0.9375C91.875 1.10417 93.3333 1.39583 94.75 1.8125C95.2917 1.97917 95.9583 2.25 96.75 2.625C97.5833 2.95833 98.3958 3.33333 99.1875 3.75C100.021 4.125 100.792 4.54167 101.5 5C102.25 5.41667 102.854 5.8125 103.312 6.1875C103.938 6.6875 104.438 7.25 104.812 7.875C105.229 8.45833 105.604 9.0625 105.938 9.6875C106.312 10.3125 106.646 10.9375 106.938 11.5625C107.271 12.1875 107.667 12.7708 108.125 13.3125C108.167 14.2708 108.271 15.1875 108.438 16.0625C108.646 16.9375 108.833 17.8125 109 18.6875C109.167 19.5625 109.312 20.4375 109.438 21.3125C109.521 21.9792 109.562 22.6458 109.562 23.3125V24ZM106.062 20.8125C105.604 16.4792 104.312 13.125 102.188 10.75C100.062 8.375 97.1042 6.58333 93.3125 5.375C92.5625 5.16667 91.75 4.9375 90.875 4.6875C90.0417 4.39583 89.3125 4.20833 88.6875 4.125H88.5625C88.3542 4.125 88.1667 4.1875 88 4.3125C87.7917 4.47917 87.5417 4.5625 87.25 4.5625C86.9167 4.5625 86.625 4.5 86.375 4.375C86.1667 4.20833 85.9583 4.125 85.75 4.125C81.8333 4.29167 78.3958 5.45833 75.4375 7.625C72.5208 9.75 70.3958 12.4792 69.0625 15.8125C68.6042 17.6875 68.2083 19.5 67.875 21.25C67.5417 22.8333 67.375 24.3958 67.375 25.9375V26.5C67.4167 29.2083 68.0417 31.5417 69.25 33.5C70.4583 35.4583 72 37.0625 73.875 38.3125C75.7917 39.5208 77.9375 40.3958 80.3125 40.9375C82.1875 41.3542 84.0833 41.5625 86 41.5625C86.5 41.5625 87.0208 41.5417 87.5625 41.5C90.0208 41.375 92.375 40.9167 94.625 40.125C96.9167 39.2917 98.9167 38.1458 100.625 36.6875C101.375 35.7708 102.104 34.7292 102.812 33.5625C103.521 32.3542 104.146 31.0625 104.688 29.6875C105.229 28.3125 105.646 26.875 105.938 25.375C106.104 24.5 106.188 23.5833 106.188 22.625C106.188 22 106.146 21.3958 106.062 20.8125ZM124.188 31.875C124.104 34.375 124 36.875 123.875 39.375C123.792 41.875 123.396 44.25 122.688 46.5C122.729 46.8333 122.75 47.125 122.75 47.375C122.75 48 122.625 48.4792 122.375 48.8125C121.958 49.3125 121.479 49.5625 120.938 49.5625C120.896 49.6042 120.854 49.625 120.812 49.625C120.271 49.625 119.75 49.4167 119.25 49C118.708 48.625 118.396 48.0625 118.312 47.3125C118.854 46.4375 119.25 45.5208 119.5 44.5625C119.792 43.6042 119.979 42.6042 120.062 41.5625C120.188 40.4792 120.25 39.3958 120.25 38.3125C120.25 37.2292 120.292 36.125 120.375 35C120.542 32.6667 120.625 30.2917 120.625 27.875V25.6875C120.542 22.5208 120.333 19.3542 120 16.1875C119.875 15.0208 119.688 13.8333 119.438 12.625C119.188 11.4167 119.021 10.2292 118.938 9.0625C118.854 8.10417 118.771 7.25 118.688 6.5C118.604 5.70833 118.333 4.95833 117.875 4.25C117.958 3.83333 118.146 3.47917 118.438 3.1875C118.771 2.85417 119.146 2.625 119.562 2.5C119.729 2.45833 119.917 2.4375 120.125 2.4375C120.333 2.4375 120.542 2.45833 120.75 2.5C121.167 2.625 121.542 2.875 121.875 3.25C121.958 4.54167 122.083 5.77083 122.25 6.9375C122.417 8.10417 122.562 9.25 122.688 10.375C122.854 11.4583 122.979 12.5208 123.062 13.5625V14.5625C123.062 15.2708 123.021 15.9583 122.938 16.625C123.604 19 124 21.4792 124.125 24.0625C124.167 25.9375 124.188 27.8125 124.188 29.6875V31.875Z" fill="#34D399"/>
<path d="M57.3125 23.3125L54.3213 23.0824L54.3171 23.1374L54.3149 23.1926L57.3125 23.3125ZM56.4375 29.4375L53.5271 28.7099L53.5216 28.7318L53.5164 28.7538L56.4375 29.4375ZM54.6875 35.125L51.8891 34.0438L51.8824 34.0613L51.8758 34.0788L54.6875 35.125ZM52.5 40.25L55.1833 41.5916L55.1902 41.5778L55.197 41.5639L52.5 40.25ZM50.25 44.625L47.6007 43.2175L47.3142 43.7568L47.2613 44.3651L50.25 44.625ZM49.5625 47.125L46.9111 45.7213L46.8781 45.7837L46.848 45.8476L49.5625 47.125ZM47.9375 48.625L47.3297 51.5628L48.1982 51.7425L49.0248 51.421L47.9375 48.625ZM45.8125 47.3125L48.6585 46.3638L45.8125 47.3125ZM46 45.0625L48.8 46.1394L48.8165 46.0967L48.8316 46.0536L46 45.0625ZM48.75 39.625L46.0167 38.3885L46.0043 38.4157L45.9926 38.4432L48.75 39.625ZM51.0625 33.875L48.2581 32.8093L48.2488 32.834L48.2398 32.8588L51.0625 33.875ZM52.9375 27.375L50.0049 26.7425L50.0013 26.7593L49.9979 26.7762L52.9375 27.375ZM53.625 20.5H56.625V20.4732L56.6245 20.4464L53.625 20.5ZM52.3125 13.5L55.1377 12.491L55.1348 12.4829L55.1319 12.4748L52.3125 13.5ZM51.75 12.375L49.0667 13.7166L49.172 13.9272L49.3088 14.1187L51.75 12.375ZM51.1875 11.4375L48.6435 13.0275L48.6925 13.1059L48.7463 13.1812L51.1875 11.4375ZM50.5 10.4375L47.8775 11.8944L47.977 12.0736L48.1 12.2375L50.5 10.4375ZM49.8125 9.125L52.4958 7.78336L52.1296 7.05107L51.4423 6.60629L49.8125 9.125ZM47.8125 7.6875L45.8477 9.95457L45.8923 9.99323L45.9384 10.0301L47.8125 7.6875ZM45.8125 6.1875L47.4423 3.66879L46.6984 3.1875H45.8125V6.1875ZM42.0625 6.4375L41.5258 3.48589L41.4565 3.49849L41.3879 3.51433L42.0625 6.4375ZM36.4375 9.1875L34.5634 6.84489L34.534 6.86846L34.5051 6.89277L36.4375 9.1875ZM33.9375 11.4375L35.8899 13.7153L35.9495 13.6641L36.0065 13.6099L33.9375 11.4375ZM32.6875 12.625L34.7223 14.8294L34.7664 14.7887L34.8088 14.7463L32.6875 12.625ZM31.0625 14.25L28.8641 12.2086L28.8235 12.2523L28.7847 12.2976L31.0625 14.25ZM29.625 15.9375L27.3348 13.9997L27.2897 14.053L27.2471 14.1084L29.625 15.9375ZM28.9375 17.25L31.8479 17.9776L31.8919 17.8019L31.9143 17.6221L28.9375 17.25ZM28.9375 19.25L31.9192 18.9187L31.8913 18.6682L31.8221 18.4258L28.9375 19.25ZM29.375 21.5625L26.4738 22.326L26.479 22.3457L26.4844 22.3654L29.375 21.5625ZM29.9375 23.9375L26.9958 24.5258L27.0134 24.614L27.0363 24.701L29.9375 23.9375ZM30.375 26.25L33.3601 25.9515L33.3585 25.9351L33.3567 25.9187L30.375 26.25ZM30.4375 28.5L33.4226 28.7985L33.4375 28.6496V28.5H30.4375ZM30.1875 30.625L33.1209 31.2536L33.1427 31.1521L33.1573 31.0493L30.1875 30.625ZM28 34.375L25.8787 32.2537L28 34.375ZM26.1875 35.6875L27.4447 38.4114L27.4872 38.3917L27.5291 38.3708L26.1875 35.6875ZM24.125 36.0625L23.7676 39.0411L23.9456 39.0625H24.125V36.0625ZM21.9375 34.25L19.1025 35.2313L19.1192 35.2794L19.1375 35.3269L21.9375 34.25ZM21.75 26.0625L18.8023 25.5048L18.7962 25.537L18.7908 25.5693L21.75 26.0625ZM22.625 22.25L19.7643 21.3466L19.7543 21.3782L19.745 21.41L22.625 22.25ZM23.75 20.0625L26.15 21.8625L26.176 21.8279L26.2009 21.7925L23.75 20.0625ZM24.75 17.6875L27.697 18.2488L27.75 17.9707V17.6875H24.75ZM23.9375 13.875L26.675 12.6478L26.6491 12.59L26.6208 12.5334L23.9375 13.875ZM21.5 10.5L19.2922 12.5312L19.3345 12.5771L19.3787 12.6213L21.5 10.5ZM18.25 7.875L16.6931 10.4394L16.7129 10.4514L16.7328 10.4631L18.25 7.875ZM14.9375 6.625L15.2949 3.64637L15.2655 3.64284L15.236 3.63989L14.9375 6.625ZM11.25 7L12.3269 9.80006L12.3373 9.79601L11.25 7ZM8.375 8.9375L6.20258 6.86853L6.2 6.87125L8.375 8.9375ZM6.3125 11.9375L3.62922 10.5959L3.60978 10.6347L3.59147 10.6742L6.3125 11.9375ZM4.875 15.6875L2.01156 14.7927L2.00246 14.8218L1.99396 14.8511L4.875 15.6875ZM3.8125 19.6875L0.89695 18.9807L0.889006 19.0135L0.8818 19.0464L3.8125 19.6875ZM3 23.5L0.0622187 22.8922L-0.0342107 23.3583L0.0183488 23.8313L3 23.5ZM3.25 27L0.251782 27.1034L0.25356 27.1549L0.257109 27.2064L3.25 27ZM3.5 30.6875L0.506637 30.8871L0.507109 30.8939L3.5 30.6875ZM3.8125 34.375L0.827371 34.6735L0.828425 34.6837L3.8125 34.375ZM4.4375 37.9375L7.36606 37.2867L7.3575 37.2482L7.34793 37.2099L4.4375 37.9375ZM5.3125 40.0625L8.28235 39.6382L8.26605 39.5242L8.24106 39.4117L5.3125 40.0625ZM5.375 41.625L8.28543 42.3526L8.375 41.9943V41.625H5.375ZM5.5 43.1875L8.38457 42.3633L8.36666 42.3007L8.34605 42.2388L5.5 43.1875ZM6.5 44.875L4.29559 46.9098L4.33627 46.9539L4.37868 46.9963L6.5 44.875ZM7.875 46.4375L10.3416 44.7299L10.3092 44.6831L10.275 44.6375L7.875 46.4375ZM7.1875 49.4375L6.52264 52.3629L7.69769 52.63L8.73099 52.01L7.1875 49.4375ZM4.8125 47.875L2.45785 49.7339L2.46385 49.7415L2.46989 49.7491L4.8125 47.875ZM3.1875 45.4375L0.482931 46.7357L0.51885 46.8105L0.558852 46.8833L3.1875 45.4375ZM1.9375 41.875L-0.997202 42.4975L-0.98601 42.5503L-0.972928 42.6026L1.9375 41.875ZM1.1875 37.625L-1.7931 37.9656L-1.78831 38.0075L-1.78235 38.0493L1.1875 37.625ZM0.75 33.1875L-2.24538 33.3539L-2.24308 33.3953L-2.23964 33.4366L0.75 33.1875ZM0.0625 25.625L-2.93685 25.5625L-2.9375 25.5938V25.625H0.0625ZM0.6875 19.875L-2.24106 19.2242L-2.24656 19.249L-2.25164 19.2738L0.6875 19.875ZM2.1875 14.5625L5.01909 15.5536L5.02246 15.5438L2.1875 14.5625ZM3.0625 11.875L0.21645 10.9263L0.199515 10.9771L0.184403 11.0285L3.0625 11.875ZM3.875 9.875L1.27027 8.38658L1.22896 8.45888L1.19172 8.53336L3.875 9.875ZM5.0625 8.25L7.27396 10.2772L7.3142 10.2333L7.35266 10.1878L5.0625 8.25ZM7 6.375L5.14654 4.01604L5.10109 4.05175L5.05705 4.08918L7 6.375ZM10.9375 3.5L11.8862 6.34605L11.9111 6.33773L11.936 6.32897L10.9375 3.5ZM13.25 3.125L13.4164 0.129619L13.3333 0.125H13.25V3.125ZM20.375 4.75L22.906 3.13937L22.2635 2.1298L21.1026 1.83957L20.375 4.75ZM21.4375 6L19.4306 8.22988L19.4954 8.28817L19.5634 8.34261L21.4375 6ZM22.75 7L20.9855 9.42621L21.1078 9.51515L21.2384 9.59134L22.75 7ZM24.1875 7.875L22.5769 10.406L22.6258 10.4371L22.6759 10.4663L24.1875 7.875ZM25.5625 8.875L28.549 8.59057L28.4382 7.42702L27.5694 6.64512L25.5625 8.875ZM26.25 11L23.7834 12.7076L23.8263 12.7695L23.8721 12.8291L26.25 11ZM27.25 12.875L24.421 13.8735L25.7726 17.7028L29.0357 15.2857L27.25 12.875ZM33.6875 7.5625L35.5725 9.89635L35.5825 9.8882L33.6875 7.5625ZM37.1875 5L35.5823 2.46554L35.5628 2.47793L35.5434 2.49062L37.1875 5ZM41.25 2.875L42.4318 5.63244L42.4501 5.62456L42.4684 5.61643L41.25 2.875ZM45.0625 2.8125L44.5693 5.77168L44.6499 5.78512L44.7312 5.79415L45.0625 2.8125ZM47.125 3.1875L46.352 6.0862L46.3747 6.09224L46.3974 6.09793L47.125 3.1875ZM48.5625 3.6875L50.1685 1.15358L50.1105 1.11683L50.0509 1.08277L48.5625 3.6875ZM55.3125 11.5625L52.5837 12.809L52.5853 12.8125L55.3125 11.5625ZM26 23.9375L28.8673 23.0552L25.9458 13.5603L23.1236 23.0852L26 23.9375ZM25 27.5625L27.8781 28.409L27.8923 28.3608L27.9048 28.3121L25 27.5625ZM24.9375 31.6875L22.0271 32.4151L22.6381 34.8594L25.1512 34.6799L24.9375 31.6875ZM26.1875 30.75L28.9449 31.9318L28.9593 31.8981L28.9729 31.8642L26.1875 30.75ZM26.625 28.5625L29.6213 28.7123L29.625 28.6375V28.5625H26.625ZM26.4375 26.0625L23.4677 26.4868L23.4726 26.5213L23.4783 26.5557L26.4375 26.0625ZM54.3149 23.1926C54.2397 25.0733 53.9767 26.9112 53.5271 28.7099L59.3479 30.1651C59.8983 27.9638 60.2187 25.7184 60.3101 23.4324L54.3149 23.1926ZM53.5164 28.7538C53.089 30.5801 52.5462 32.343 51.8891 34.0438L57.4859 36.2062C58.2454 34.2404 58.8693 32.2115 59.3586 30.1212L53.5164 28.7538ZM51.8758 34.0788C51.2411 35.7846 50.5498 37.4032 49.803 38.9361L55.197 41.5639C56.0335 39.8468 56.8005 38.0487 57.4992 36.1712L51.8758 34.0788ZM49.8167 38.9084C49.0343 40.4733 48.2956 41.9093 47.6007 43.2175L52.8993 46.0325C53.621 44.674 54.3824 43.1934 55.1833 41.5916L49.8167 38.9084ZM47.2613 44.3651C47.2059 45.0019 47.0646 45.4314 46.9111 45.7213L52.2139 48.5287C52.8104 47.402 53.1274 46.1648 53.2387 44.8849L47.2613 44.3651ZM46.848 45.8476C46.8441 45.856 46.8416 45.8604 46.8409 45.8616C46.8402 45.8627 46.841 45.8612 46.8436 45.8577C46.8462 45.8541 46.85 45.8492 46.855 45.8435C46.8601 45.8378 46.8656 45.8322 46.8714 45.8268C46.8772 45.8215 46.8824 45.8172 46.8866 45.814C46.8887 45.8125 46.8903 45.8113 46.8915 45.8105C46.8927 45.8097 46.8933 45.8094 46.8933 45.8094C46.8932 45.8094 46.8902 45.8113 46.8834 45.8146C46.8767 45.8179 46.8658 45.8229 46.8502 45.829L49.0248 51.421C50.4696 50.8592 51.606 49.8281 52.277 48.4024L46.848 45.8476ZM48.5453 45.6872C48.353 45.6474 48.2211 45.6083 48.1379 45.5785C48.0533 45.5482 48.0415 45.5354 48.0765 45.557C48.1128 45.5794 48.2152 45.6488 48.334 45.7864C48.4582 45.9304 48.579 46.1251 48.6585 46.3638L42.9665 48.2612C43.7267 50.5418 45.9707 51.2816 47.3297 51.5628L48.5453 45.6872ZM48.6585 46.3638C48.6875 46.4505 48.6875 46.5034 48.6875 46.5H42.6875C42.6875 47.0799 42.7709 47.6745 42.9665 48.2612L48.6585 46.3638ZM48.6875 46.5C48.6875 46.5396 48.6828 46.5313 48.6972 46.4654C48.7114 46.3997 48.7412 46.2924 48.8 46.1394L43.2 43.9856C42.9076 44.7457 42.6875 45.6013 42.6875 46.5H48.6875ZM48.8316 46.0536C49.0381 45.4636 49.3733 44.7593 49.8751 43.9348L44.7499 40.8152C44.0851 41.9074 43.5453 42.9947 43.1684 44.0714L48.8316 46.0536ZM49.8751 43.9348C50.5196 42.876 51.0677 41.8328 51.5074 40.8068L45.9926 38.4432C45.6823 39.1672 45.2721 39.9573 44.7499 40.8152L49.8751 43.9348ZM51.4833 40.8615C52.3121 39.0294 53.1123 37.0381 53.8852 34.8912L48.2398 32.8588C47.5127 34.8786 46.7712 36.7206 46.0167 38.3885L51.4833 40.8615ZM53.8669 34.9407C54.7179 32.7011 55.3874 30.378 55.8771 27.9738L49.9979 26.7762C49.571 28.872 48.9905 30.8822 48.2581 32.8093L53.8669 34.9407ZM55.8701 28.0075C56.3748 25.6675 56.625 23.2677 56.625 20.8125H50.625C50.625 22.8573 50.4169 24.8325 50.0049 26.7425L55.8701 28.0075ZM56.625 20.8125V20.5H50.625V20.8125H56.625ZM56.6245 20.4464C56.5767 17.7677 56.0739 15.1122 55.1377 12.491L49.4873 14.509C50.2178 16.5545 50.59 18.5657 50.6255 20.5536L56.6245 20.4464ZM55.1319 12.4748C54.9033 11.8461 54.6028 11.2075 54.1912 10.6313L49.3088 14.1187C49.3081 14.1178 49.3285 14.1464 49.3636 14.2166C49.3985 14.2864 49.4429 14.3871 49.4931 14.5252L55.1319 12.4748ZM54.4333 11.0334C54.1993 10.5654 53.9316 10.1179 53.6287 9.69379L48.7463 13.1812C48.86 13.3404 48.9674 13.5179 49.0667 13.7166L54.4333 11.0334ZM53.7315 9.8475C53.4756 9.43802 53.1979 9.03474 52.9 8.6375L48.1 12.2375C48.3021 12.5069 48.4828 12.7703 48.6435 13.0275L53.7315 9.8475ZM53.1225 8.98057C52.9404 8.6529 52.7318 8.2554 52.4958 7.78336L47.1292 10.4666C47.3932 10.9946 47.6429 11.4721 47.8775 11.8944L53.1225 8.98057ZM51.4423 6.60629C50.8138 6.19961 50.2291 5.77887 49.6866 5.34489L45.9384 10.0301C46.6459 10.5961 47.3946 11.1337 48.1827 11.6437L51.4423 6.60629ZM49.7773 5.42043C49.0445 4.78536 48.2656 4.20157 47.4423 3.66879L44.1827 8.70621C44.776 9.0901 45.3305 9.50631 45.8477 9.95457L49.7773 5.42043ZM45.8125 3.1875H45.1875V9.1875H45.8125V3.1875ZM45.1875 3.1875C43.8837 3.1875 42.6572 3.28018 41.5258 3.48589L42.5992 9.38911C43.3011 9.26149 44.158 9.1875 45.1875 9.1875V3.1875ZM41.3879 3.51433C40.0929 3.81317 38.8667 4.2438 37.7209 4.81672L40.4041 10.1833C41.0916 9.83954 41.8654 9.56183 42.7371 9.36067L41.3879 3.51433ZM37.7209 4.81672C36.6076 5.37336 35.5549 6.05168 34.5634 6.84489L38.3116 11.5301C38.9867 10.99 39.6841 10.5433 40.4041 10.1833L37.7209 4.81672ZM34.5051 6.89277C33.6597 7.60466 32.7807 8.39637 31.8685 9.26509L36.0065 13.6099C36.8443 12.812 37.6319 12.1037 38.3699 11.4822L34.5051 6.89277ZM31.9851 9.15973C31.6028 9.4874 31.1201 9.9498 30.5662 10.5037L34.8088 14.7463C35.3383 14.2169 35.6888 13.8876 35.8899 13.7153L31.9851 9.15973ZM30.6527 10.4206C30.0501 10.9768 29.4541 11.5733 28.8641 12.2086L33.2609 16.2914C33.7543 15.76 34.2415 15.2732 34.7223 14.8294L30.6527 10.4206ZM28.7847 12.2976C28.2809 12.8854 27.7976 13.4528 27.3348 13.9997L31.9152 17.8753C32.3691 17.3389 32.8441 16.7813 33.3403 16.2024L28.7847 12.2976ZM27.2471 14.1084C26.7777 14.7186 26.108 15.6989 25.9607 16.8779L31.9143 17.6221C31.8933 17.7905 31.8567 17.9112 31.8343 17.9749C31.8115 18.0398 31.7946 18.0706 31.7981 18.0639C31.8011 18.0583 31.8167 18.0295 31.852 17.976C31.8868 17.9231 31.936 17.8536 32.0029 17.7666L27.2471 14.1084ZM26.0271 16.5224C25.8791 17.1143 25.8125 17.7144 25.8125 18.3125H31.8125C31.8125 18.1606 31.8292 18.0524 31.8479 17.9776L26.0271 16.5224ZM25.8125 18.3125C25.8125 18.8973 25.8859 19.4895 26.0529 20.0742L31.8221 18.4258C31.822 18.4256 31.8197 18.4178 31.8174 18.4004C31.8151 18.3828 31.8125 18.3541 31.8125 18.3125H25.8125ZM25.9558 19.5813C26.0567 20.4888 26.2312 21.4042 26.4738 22.326L32.2762 20.799C32.1021 20.1374 31.985 19.5112 31.9192 18.9187L25.9558 19.5813ZM26.4844 22.3654C26.6714 23.0385 26.8422 23.7582 26.9958 24.5258L32.8792 23.3492C32.6994 22.4502 32.4953 21.5865 32.2656 20.7596L26.4844 22.3654ZM27.0363 24.701C27.2104 25.3626 27.3275 25.9888 27.3933 26.5813L33.3567 25.9187C33.2558 25.0112 33.0813 24.0958 32.8387 23.174L27.0363 24.701ZM27.3899 26.5485C27.4217 26.8665 27.4375 27.1835 27.4375 27.5H33.4375C33.4375 26.9831 33.4116 26.4669 33.3601 25.9515L27.3899 26.5485ZM27.4375 27.5V28.5H33.4375V27.5H27.4375ZM27.4524 28.2015C27.3717 29.0087 27.2931 29.6725 27.2177 30.2007L33.1573 31.0493C33.2486 30.4108 33.3367 29.658 33.4226 28.7985L27.4524 28.2015ZM27.2541 29.9964C27.2073 30.2149 27.0893 30.5554 26.8228 31.0292L32.0522 33.9708C32.5357 33.1113 32.9177 32.2017 33.1209 31.2536L27.2541 29.9964ZM26.8228 31.0292C26.5919 31.4397 26.2838 31.8486 25.8787 32.2537L30.1213 36.4963C30.8829 35.7347 31.5331 34.8937 32.0522 33.9708L26.8228 31.0292ZM25.8787 32.2537C25.5586 32.5737 25.2161 32.8191 24.8459 33.0042L27.5291 38.3708C28.4922 37.8893 29.3581 37.2596 30.1213 36.4963L25.8787 32.2537ZM24.9303 32.9636C24.7425 33.0503 24.6277 33.0625 24.5625 33.0625V39.0625C25.5806 39.0625 26.5492 38.8247 27.4447 38.4114L24.9303 32.9636ZM24.5625 33.0625H24.125V39.0625H24.5625V33.0625ZM24.4824 33.0839C24.4661 33.0819 24.4921 33.0833 24.5446 33.1049C24.5992 33.1274 24.6581 33.1618 24.7109 33.2056C24.8227 33.2982 24.8025 33.342 24.7375 33.1731L19.1375 35.3269C19.4891 36.2413 20.0419 37.1289 20.8828 37.8257C21.7384 38.5346 22.7384 38.9176 23.7676 39.0411L24.4824 33.0839ZM24.7725 33.2687C24.5318 32.5735 24.375 31.6484 24.375 30.4375H18.375C18.375 32.1433 18.5932 33.7598 19.1025 35.2313L24.7725 33.2687ZM24.375 30.4375C24.375 29.1976 24.4844 27.9045 24.7092 26.5557L18.7908 25.5693C18.5156 27.2205 18.375 28.844 18.375 30.4375H24.375ZM24.6977 26.6202C24.9794 25.1313 25.2503 23.9632 25.505 23.09L19.745 21.41C19.4164 22.5368 19.1039 23.9104 18.8023 25.5048L24.6977 26.6202ZM25.4857 23.1534C25.6334 22.6857 25.8523 22.2595 26.15 21.8625L21.35 18.2625C20.6477 19.1989 20.1166 20.231 19.7643 21.3466L25.4857 23.1534ZM26.2009 21.7925C26.9546 20.7248 27.4525 19.5325 27.697 18.2488L21.803 17.1262C21.7142 17.5925 21.5454 17.9835 21.2991 18.3325L26.2009 21.7925ZM27.75 17.6875V17.4375H21.75V17.6875H27.75ZM27.75 17.4375C27.75 15.7943 27.3664 14.1901 26.675 12.6478L21.2 15.1022C21.592 15.9766 21.75 16.7474 21.75 17.4375H27.75ZM26.6208 12.5334C25.8498 10.9915 24.8466 9.60392 23.6213 8.37868L19.3787 12.6213C20.1534 13.3961 20.7752 14.2585 21.2542 15.2166L26.6208 12.5334ZM23.7078 8.46883C22.5503 7.21066 21.2348 6.14723 19.7672 5.28691L16.7328 10.4631C17.6819 11.0194 18.5331 11.706 19.2922 12.5312L23.7078 8.46883ZM19.8069 5.31064C18.38 4.44428 16.8688 3.83524 15.2949 3.64637L14.5801 9.60363C15.0895 9.66476 15.7867 9.88905 16.6931 10.4394L19.8069 5.31064ZM15.236 3.63989C14.7314 3.58943 14.2354 3.5625 13.75 3.5625V9.5625C14.0146 9.5625 14.3103 9.57724 14.639 9.61011L15.236 3.63989ZM13.75 3.5625C12.5126 3.5625 11.3041 3.76009 10.1627 4.20399L12.3373 9.79601C12.6959 9.65657 13.154 9.5625 13.75 9.5625V3.5625ZM10.1731 4.19996C8.65779 4.78276 7.3295 5.68528 6.20259 6.86853L10.5474 11.0065C11.0872 10.4397 11.6755 10.0506 12.3269 9.80004L10.1731 4.19996ZM6.2 6.87125C5.17861 7.9464 4.32765 9.199 3.62922 10.5959L8.99578 13.2791C9.46402 12.3427 9.98806 11.5953 10.55 11.0037L6.2 6.87125ZM3.59147 10.6742C2.98979 11.9701 2.46423 13.3441 2.01156 14.7927L7.73844 16.5823C8.1191 15.3642 8.55188 14.2382 9.03353 13.2008L3.59147 10.6742ZM1.99396 14.8511C1.60587 16.1878 1.24028 17.5645 0.89695 18.9807L6.72805 20.3943C7.05139 19.0605 7.39413 17.7705 7.75604 16.5239L1.99396 14.8511ZM0.8818 19.0464C0.58796 20.3897 0.314742 21.6717 0.0622187 22.8922L5.93778 24.1078C6.18526 22.9117 6.45371 21.652 6.7432 20.3286L0.8818 19.0464ZM0.0183488 23.8313C0.134388 24.8756 0.212565 25.9661 0.251782 27.1034L6.24822 26.8966C6.2041 25.6172 6.11561 24.3744 5.98165 23.1687L0.0183488 23.8313ZM0.257109 27.2064C0.34028 28.4124 0.423458 29.6393 0.506645 30.8871L6.49336 30.4879C6.40988 29.2357 6.32639 28.0043 6.24289 26.7936L0.257109 27.2064ZM0.507109 30.8939C0.592639 32.1341 0.699435 33.394 0.827388 34.6735L6.79761 34.0765C6.67556 32.856 6.57403 31.6576 6.49289 30.4811L0.507109 30.8939ZM0.828425 34.6837C0.967883 36.0318 1.20063 37.3593 1.52707 38.6651L7.34793 37.2099C7.09104 36.1823 6.90712 35.1349 6.79658 34.0663L0.828425 34.6837ZM1.50894 38.5883C1.66792 39.3037 1.94634 39.9745 2.33101 40.59L7.41899 37.41C7.38699 37.3588 7.37375 37.3213 7.36606 37.2867L1.50894 38.5883ZM2.33101 40.59C2.36301 40.6412 2.37625 40.6787 2.38394 40.7133L8.24106 39.4117C8.08208 38.6963 7.80366 38.0255 7.41899 37.41L2.33101 40.59ZM2.34265 40.4868C2.36183 40.621 2.375 40.7905 2.375 41H8.375C8.375 40.5428 8.3465 40.0873 8.28235 39.6382L2.34265 40.4868ZM2.375 41V41.625H8.375V41H2.375ZM2.46457 40.8974C2.38388 41.2202 2.3125 41.6202 2.3125 42.0625H8.3125C8.3125 42.1644 8.30419 42.2401 8.29797 42.2836C8.29165 42.3279 8.28561 42.3519 8.28543 42.3526L2.46457 40.8974ZM2.3125 42.0625C2.3125 42.777 2.43253 43.4719 2.65395 44.1362L8.34605 42.2388C8.31747 42.1531 8.3125 42.098 8.3125 42.0625H2.3125ZM2.61543 44.0117C2.93583 45.1331 3.54483 46.0965 4.29559 46.9098L8.70441 42.8402C8.45517 42.5701 8.39751 42.4086 8.38457 42.3633L2.61543 44.0117ZM4.37868 46.9963C4.84143 47.4591 5.20163 47.873 5.475 48.2375L10.275 44.6375C9.79837 44.002 9.2419 43.3743 8.62132 42.7537L4.37868 46.9963ZM5.40842 48.1451C5.4866 48.2581 5.4983 48.2999 5.48789 48.2721C5.47581 48.2399 5.4375 48.1221 5.4375 47.9375H11.4375C11.4375 46.6554 10.9184 45.5631 10.3416 44.7299L5.40842 48.1451ZM5.4375 47.9375C5.4375 47.2972 5.71694 46.891 5.82034 46.7669C5.90576 46.6644 5.90023 46.7113 5.64401 46.865L8.73099 52.01C9.65211 51.4573 11.4375 50.1817 11.4375 47.9375H5.4375ZM7.85236 46.5121C7.68638 46.4744 7.45807 46.3796 7.15511 46.0009L2.46989 49.7491C3.50027 51.0371 4.85529 51.984 6.52264 52.3629L7.85236 46.5121ZM7.16715 46.0161C6.63858 45.3465 6.19006 44.6716 5.81615 43.9917L0.558852 46.8833C1.10161 47.8701 1.73642 48.8201 2.45785 49.7339L7.16715 46.0161ZM5.89207 44.1393C5.49443 43.3109 5.14104 42.3198 4.84793 41.1474L-0.972928 42.6026C-0.599374 44.0968 -0.119427 45.4808 0.482931 46.7357L5.89207 44.1393ZM4.8722 41.2525C4.59511 39.9462 4.35664 38.5958 4.15735 37.2007L-1.78235 38.0493C-1.56497 39.5709 -1.30345 41.0538 -0.997202 42.4975L4.8722 41.2525ZM4.1681 37.2844C4.005 35.8572 3.86216 34.4086 3.73964 32.9384L-2.23964 33.4366C-2.11216 34.9664 -1.96333 36.4761 -1.7931 37.9656L4.1681 37.2844ZM3.74538 33.0211C3.66171 31.515 3.57797 30.0914 3.49416 28.7504L-2.49416 29.1246C-2.41131 30.4503 -2.32838 31.86 -2.24538 33.3539L3.74538 33.0211ZM3.49416 28.7504C3.44578 27.9763 3.34034 27.1592 3.09605 26.4263L-2.59605 28.3237C-2.59895 28.315 -2.57991 28.3719 -2.55607 28.5208C-2.53298 28.6652 -2.51048 28.8634 -2.49416 29.1246L3.49416 28.7504ZM3.09605 26.4263C3.12576 26.5154 3.11052 26.5066 3.0923 26.3367C3.07556 26.1804 3.0625 25.9483 3.0625 25.625H-2.9375C-2.9375 26.4832 -2.88079 27.4695 -2.59605 28.3237L3.09605 26.4263ZM3.06185 25.6875C3.1 23.8562 3.29032 22.1204 3.62664 20.4762L-2.25164 19.2738C-2.66532 21.2962 -2.89167 23.3938 -2.93685 25.5625L3.06185 25.6875ZM3.61606 20.5258C4.00932 18.7561 4.47795 17.0996 5.01908 15.5536L-0.644075 13.5714C-1.26962 15.3587 -1.80099 17.2439 -2.24106 19.2242L3.61606 20.5258ZM5.02246 15.5438C5.40548 14.4373 5.7138 13.4926 5.9406 12.7215L0.184403 11.0285C-0.00546866 11.6741 -0.280485 12.521 -0.647458 13.5812L5.02246 15.5438ZM5.90855 12.8237C6.12272 12.1812 6.34174 11.6497 6.55828 11.2166L1.19172 8.53336C0.824929 9.26694 0.502282 10.0688 0.21645 10.9263L5.90855 12.8237ZM6.47973 11.3634C6.70135 10.9756 6.96488 10.6143 7.27396 10.2772L2.85104 6.22283C2.24345 6.88565 1.71532 7.60775 1.27027 8.38658L6.47973 11.3634ZM7.35266 10.1878C7.66441 9.81939 8.17543 9.31321 8.94295 8.66082L5.05705 4.08918C4.15791 4.85346 3.37726 5.59727 2.77234 6.31217L7.35266 10.1878ZM8.85346 8.73396C9.49177 8.23243 10.1822 7.65261 10.9224 6.99951L6.95264 2.50049C6.27615 3.09739 5.6749 3.6009 5.14654 4.01604L8.85346 8.73396ZM10.9224 6.99951C11.4496 6.53432 11.7709 6.38448 11.8862 6.34605L9.98882 0.65395C8.85411 1.03218 7.84208 1.71568 6.95264 2.50049L10.9224 6.99951ZM11.936 6.32897C12.3431 6.18528 12.7144 6.125 13.0625 6.125V0.125C11.994 0.125 10.9486 0.314722 9.93904 0.671029L11.936 6.32897ZM13.0625 6.125H13.25V0.125H13.0625V6.125ZM13.0836 6.12038C13.6707 6.153 14.2903 6.23543 14.9445 6.37315L16.1805 0.501851C15.2513 0.306233 14.3293 0.180338 13.4164 0.129619L13.0836 6.12038ZM14.9445 6.37315C15.6374 6.51902 16.3338 6.70211 17.0341 6.92325L18.8409 1.20175C17.9578 0.922892 17.071 0.689311 16.1805 0.501851L14.9445 6.37315ZM17.0341 6.92325C17.8858 7.19221 18.757 7.43783 19.6474 7.66043L21.1026 1.83957C20.3263 1.6455 19.5725 1.43279 18.8409 1.20175L17.0341 6.92325ZM17.844 6.36063C18.2861 7.05538 18.8185 7.67897 19.4306 8.22988L23.4444 3.77012C23.2232 3.57103 23.0472 3.36128 22.906 3.13937L17.844 6.36063ZM19.5634 8.34261C20.0181 8.70635 20.4923 9.0675 20.9855 9.42621L24.5145 4.57379C24.0911 4.26583 23.6902 3.96032 23.3116 3.65739L19.5634 8.34261ZM21.2384 9.59134C21.7071 9.86478 22.1532 10.1364 22.5769 10.406L25.7981 5.34402C25.3051 5.0303 24.7929 4.71855 24.2616 4.40866L21.2384 9.59134ZM22.6759 10.4663C23.0047 10.6581 23.2961 10.8714 23.5556 11.1049L27.5694 6.64512C26.9955 6.12863 26.3703 5.67522 25.6991 5.28366L22.6759 10.4663ZM22.576 9.15943C22.6923 10.3808 23.0346 11.626 23.7834 12.7076L28.7166 9.29237C28.7154 9.29063 28.5993 9.11916 28.549 8.59057L22.576 9.15943ZM23.8721 12.8291C24.0773 13.0959 24.2662 13.4346 24.421 13.8735L30.079 11.8765C29.7338 10.8987 29.256 9.98747 28.6279 9.17087L23.8721 12.8291ZM29.0357 15.2857C30.2277 14.4027 31.3765 13.4749 32.4819 12.5021L28.5181 7.99786C27.5402 8.85846 26.5223 9.68062 25.4643 10.4643L29.0357 15.2857ZM32.4819 12.5021C33.4917 11.6135 34.5219 10.7449 35.5725 9.89632L31.8025 5.22868C30.6864 6.13012 29.5916 7.05319 28.5181 7.99786L32.4819 12.5021ZM35.5825 9.8882C36.6275 9.03676 37.7104 8.24394 38.8316 7.50938L35.5434 2.49062C34.2479 3.33939 32.9975 4.2549 31.7925 5.2368L35.5825 9.8882ZM38.7927 7.53446C39.8984 6.83416 41.1098 6.19899 42.4318 5.63244L40.0682 0.117565C38.4735 0.801008 36.9766 1.5825 35.5823 2.46554L38.7927 7.53446ZM42.4684 5.61643C42.3472 5.6703 42.3037 5.66646 42.3937 5.65262C42.4773 5.63974 42.6319 5.625 42.875 5.625V-0.375C42.0084 -0.375 40.973 -0.284829 40.0316 0.133565L42.4684 5.61643ZM42.875 5.625C43.4065 5.625 43.9705 5.67188 44.5693 5.77168L45.5557 -0.146682C44.6545 -0.296879 43.7601 -0.375 42.875 -0.375V5.625ZM44.7312 5.79415C45.356 5.86358 45.8935 5.96393 46.352 6.0862L47.898 0.288795C47.1065 0.0777346 46.269 -0.0719085 45.3938 -0.169151L44.7312 5.79415ZM46.3974 6.09793C46.6719 6.16655 46.8677 6.22537 46.9988 6.27099C47.1426 6.32102 47.1474 6.3341 47.0741 6.29223L50.0509 1.08277C49.3834 0.701351 48.5686 0.45606 47.8526 0.277072L46.3974 6.09793ZM46.9565 6.22142C49.394 7.7663 51.2686 9.9299 52.5837 12.809L58.0413 10.316C56.2731 6.4451 53.6477 3.3587 50.1685 1.15358L46.9565 6.22142ZM52.5853 12.8125C53.7556 15.3659 54.375 18.3257 54.375 21.75H60.375C60.375 17.591 59.6194 13.7591 58.0397 10.3125L52.5853 12.8125ZM54.375 21.75C54.375 22.167 54.3576 22.6108 54.3213 23.0824L60.3037 23.5426C60.3507 22.9309 60.375 22.333 60.375 21.75H54.375ZM23.1236 23.0852C22.7789 24.2485 22.4362 25.4914 22.0952 26.8129L27.9048 28.3121C28.2305 27.0503 28.5544 25.8765 28.8764 24.7898L23.1236 23.0852ZM22.1219 26.716C21.8362 27.6875 21.6875 28.6807 21.6875 29.6875H27.6875C27.6875 29.2777 27.7472 28.8541 27.8781 28.409L22.1219 26.716ZM21.6875 29.6875C21.6875 30.6069 21.8028 31.5178 22.0271 32.4151L27.8479 30.9599C27.7389 30.5238 27.6875 30.1014 27.6875 29.6875H21.6875ZM25.1512 34.6799C25.9447 34.6232 26.7631 34.3652 27.4875 33.8219C28.199 33.2882 28.658 32.6012 28.9449 31.9318L23.4301 29.5682C23.467 29.4821 23.5926 29.243 23.8875 29.0219C24.1952 28.7911 24.5136 28.7101 24.7238 28.6951L25.1512 34.6799ZM28.9729 31.8642C29.3714 30.868 29.5669 29.8004 29.6213 28.7123L23.6287 28.4127C23.5998 28.9912 23.5036 29.382 23.4021 29.6358L28.9729 31.8642ZM29.625 28.5625V28.25H23.625V28.5625H29.625ZM29.625 28.25C29.625 27.3649 29.5469 26.4705 29.3967 25.5693L23.4783 26.5557C23.5781 27.1545 23.625 27.7185 23.625 28.25H29.625ZM29.4073 25.6382C29.271 24.6837 29.0981 23.8052 28.8673 23.0552L23.1327 24.8198C23.2352 25.1531 23.354 25.6913 23.4677 26.4868L29.4073 25.6382ZM109.562 24L112.561 24.0909L112.562 24.0454V24H109.562ZM108.938 27.9375L106.064 27.0755L106.051 27.1198L106.039 27.1645L108.938 27.9375ZM107.688 31.5625L110.429 32.7809L110.437 32.7626L110.445 32.7443L107.688 31.5625ZM106 34.8125L103.428 33.269L103.404 33.3075L103.382 33.3467L106 34.8125ZM104.375 37.75L105.717 40.4333L106.558 40.0125L107.009 39.1866L104.375 37.75ZM102.562 39.0625L104.684 41.1838L102.562 39.0625ZM97.25 43.375L96.2129 40.56L96.057 40.6174L95.9084 40.6917L97.25 43.375ZM94.3125 43.8125L93.6379 40.8893L93.499 40.9214L93.3638 40.9665L94.3125 43.8125ZM92.9375 44.25L93.8198 47.1173L92.9375 44.25ZM91.1875 44.75L90.4145 41.8513L90.3889 41.8581L90.3633 41.8654L91.1875 44.75ZM89.375 45.1875L89.8682 48.1467L89.9159 48.1387L89.9633 48.1292L89.375 45.1875ZM87.4375 45.3125L87.1062 48.2942L87.2713 48.3125H87.4375V45.3125ZM85.375 44.625L86.1026 41.7146L85.9627 41.6796L85.82 41.6582L85.375 44.625ZM81.8125 44.4375V41.4375H81.5993L81.3882 41.4677L81.8125 44.4375ZM78.25 44.25L77.6617 47.1917L77.6751 47.1944L77.6887 47.197L78.25 44.25ZM75.75 43.625L73.8294 45.9297L75.3367 47.1857L77.0916 46.3083L75.75 43.625ZM73.3125 41.875L71.7334 44.4258L73.3125 41.875ZM70.75 40.25L69.0296 42.7077L69.0718 42.7372L69.115 42.7653L70.75 40.25ZM68.3125 38.4375L66.3801 40.7322L66.4164 40.7628L66.4536 40.7921L68.3125 38.4375ZM66.3125 36.0625L68.8953 34.5363L68.883 34.5155L68.8703 34.4948L66.3125 36.0625ZM64.0625 26.9375H61.0625V26.9741L61.0634 27.0106L64.0625 26.9375ZM64.3125 21.75L67.2931 22.0906L67.2967 22.0593L67.2996 22.0279L64.3125 21.75ZM64.875 16.4375L62.2437 14.9966L61.9647 15.506L61.896 16.0829L64.875 16.4375ZM67.6875 11.125L70.3582 12.4914L70.3646 12.4791L70.3708 12.4666L67.6875 11.125ZM70.9375 6.1875L69.2958 3.67659L68.9379 3.91054L68.6597 4.23513L70.9375 6.1875ZM74.1875 4.25L72.8065 1.58674L72.7858 1.5975L72.7652 1.60859L74.1875 4.25ZM78.0625 2.4375L76.8936 -0.325432L76.8807 -0.319935L78.0625 2.4375ZM81.6875 1.375L82.2404 4.32362L82.2753 4.31707L82.31 4.3097L81.6875 1.375ZM85.9375 0.8125V-2.1875H85.8519L85.7664 -2.18261L85.9375 0.8125ZM90.375 0.9375L90.7063 -2.04415L90.6603 -2.04926L90.6142 -2.05295L90.375 0.9375ZM94.75 1.8125L95.6323 -1.05484L95.6144 -1.06033L95.5965 -1.0656L94.75 1.8125ZM96.75 2.625L95.4657 5.33621L95.5496 5.37595L95.6358 5.41043L96.75 2.625ZM99.1875 3.75L97.7903 6.40475L97.8721 6.44782L97.9564 6.48576L99.1875 3.75ZM101.5 5L99.8702 7.51871L99.9549 7.5735L100.043 7.62247L101.5 5ZM103.312 6.1875L101.413 8.50937L101.426 8.51981L101.438 8.53011L103.312 6.1875ZM104.812 7.875L102.24 9.41849L102.302 9.52122L102.371 9.61871L104.812 7.875ZM105.938 9.6875L103.29 11.0993L103.326 11.1661L103.365 11.231L105.938 9.6875ZM106.938 11.5625L104.219 12.8312L104.253 12.9037L104.29 12.9743L106.938 11.5625ZM108.125 13.3125L111.122 13.1822L111.078 12.1576L110.415 11.3747L108.125 13.3125ZM108.438 16.0625L105.49 16.6238L105.503 16.6909L105.519 16.7574L108.438 16.0625ZM109.438 21.3125L112.414 20.9404L112.411 20.9143L112.407 20.8882L109.438 21.3125ZM106.062 20.8125L103.079 21.128L103.085 21.1825L103.093 21.2368L106.062 20.8125ZM93.3125 5.375L94.2234 2.51664L94.1697 2.49953L94.1154 2.48445L93.3125 5.375ZM90.875 4.6875L89.8839 7.51908L89.9666 7.54801L90.0508 7.57207L90.875 4.6875ZM88.6875 4.125L89.084 1.15132L88.8866 1.125H88.6875V4.125ZM88 4.3125L86.2 1.9125L86.1625 1.94062L86.1259 1.96989L88 4.3125ZM86.375 4.375L84.5009 6.71761L84.7491 6.91615L85.0334 7.05828L86.375 4.375ZM85.75 4.125V1.125H85.6862L85.6225 1.12771L85.75 4.125ZM75.4375 7.625L77.2041 10.0497L77.2101 10.0453L75.4375 7.625ZM69.0625 15.8125L66.2771 14.6983L66.1985 14.8947L66.1483 15.1001L69.0625 15.8125ZM67.875 21.25L70.8106 21.868L70.8166 21.8397L70.822 21.8113L67.875 21.25ZM67.375 26.5H64.375V26.5231L64.3754 26.5461L67.375 26.5ZM69.25 33.5L66.6969 35.0753L69.25 33.5ZM73.875 38.3125L72.2109 40.8087L72.2427 40.8299L72.2751 40.8503L73.875 38.3125ZM80.3125 40.9375L79.6454 43.8624L79.6536 43.8643L79.6617 43.8661L80.3125 40.9375ZM87.5625 41.5L87.4102 38.5039L87.3713 38.5058L87.3324 38.5088L87.5625 41.5ZM94.625 40.125L95.6207 42.9549L95.6355 42.9497L95.6502 42.9444L94.625 40.125ZM100.625 36.6875L102.573 38.9692L102.777 38.7949L102.947 38.5872L100.625 36.6875ZM102.812 33.5625L105.377 35.1194L105.389 35.0996L105.401 35.0797L102.812 33.5625ZM105.938 25.375L108.882 25.9476L108.885 25.9363L105.938 25.375ZM106.564 23.9091C106.53 25.0368 106.36 26.0891 106.064 27.0755L111.811 28.7995C112.265 27.2859 112.512 25.7132 112.561 24.0909L106.564 23.9091ZM106.039 27.1645C105.742 28.2777 105.372 29.3493 104.93 30.3807L110.445 32.7443C111.003 31.4424 111.466 30.0973 111.836 28.7105L106.039 27.1645ZM104.946 30.3441C104.495 31.3589 103.989 32.3336 103.428 33.269L108.572 36.356C109.261 35.2081 109.88 34.0161 110.429 32.7809L104.946 30.3441ZM103.382 33.3467C102.794 34.3967 102.247 35.3857 101.741 36.3134L107.009 39.1866C107.503 38.2809 108.039 37.3116 108.618 36.2783L103.382 33.3467ZM103.033 35.0667C102.07 35.5482 101.204 36.1779 100.441 36.9412L104.684 41.1838C105.004 40.8638 105.346 40.6184 105.717 40.4333L103.033 35.0667ZM100.441 36.9412C100.434 36.9481 100.425 36.9577 100.418 36.9646C100.413 36.9698 100.399 36.9829 100.394 36.9881C100.384 36.9986 100.358 37.0247 100.347 37.0352C100.333 37.0491 100.267 37.1156 100.253 37.1297C100.211 37.1716 100.105 37.2775 100.062 37.3201C99.9777 37.4046 99.7627 37.6197 99.6756 37.7068C99.6322 37.7501 99.5232 37.8591 99.4793 37.9031C99.4574 37.925 99.4024 37.9799 99.3804 38.002C99.3694 38.013 99.3418 38.0405 99.3308 38.0516C99.3234 38.059 99.2884 38.0939 99.281 38.1013C99.1635 38.2188 98.9988 38.3836 98.8787 38.5037L103.121 42.7463C103.14 42.7275 103.128 42.7397 103.147 42.7209C103.171 42.6965 103.148 42.72 103.172 42.6956C103.181 42.6862 103.175 42.6923 103.185 42.6829C103.191 42.6764 103.191 42.6768 103.197 42.6703C103.203 42.6647 103.217 42.6506 103.223 42.645C103.316 42.5517 103.18 42.6878 103.273 42.5945C103.275 42.5927 103.296 42.5712 103.298 42.5693C103.332 42.5358 103.29 42.5777 103.323 42.5442C103.325 42.5431 103.326 42.5421 103.327 42.541C103.328 42.54 103.329 42.5389 103.33 42.5379C103.332 42.5356 103.334 42.5339 103.336 42.5316C103.359 42.5083 103.325 42.5423 103.349 42.519C103.355 42.513 103.349 42.5188 103.355 42.5128C103.355 42.5123 103.361 42.507 103.361 42.5065C103.367 42.5009 103.368 42.4995 103.374 42.4939C103.418 42.4494 103.354 42.5134 103.399 42.4689C103.4 42.4679 103.41 42.4573 103.411 42.4563C103.427 42.4406 103.408 42.4596 103.424 42.4438C103.461 42.4068 103.487 42.3809 103.524 42.344C103.815 42.0526 103.629 42.2382 103.918 41.9494C104.121 41.7471 103.911 41.9568 104.113 41.7551C104.198 41.6695 104.22 41.6477 104.305 41.5627C104.418 41.4493 104.573 41.2946 104.684 41.1838L100.441 36.9412ZM98.8787 38.5037C98.3915 38.9909 97.8853 39.4596 97.3601 39.9097L101.265 44.4653C101.906 43.9154 102.525 43.3424 103.121 42.7463L98.8787 38.5037ZM97.3601 39.9097C97.0729 40.156 96.7028 40.3795 96.2129 40.56L98.2871 46.19C99.3806 45.7872 100.385 45.219 101.265 44.4653L97.3601 39.9097ZM95.9084 40.6917C96.0309 40.6304 96.1093 40.6157 96.1105 40.6155C96.1124 40.6151 96.0996 40.6176 96.0698 40.6202C96.0401 40.6227 95.9965 40.625 95.9375 40.625V46.625C96.7492 46.625 97.6963 46.5059 98.5916 46.0583L95.9084 40.6917ZM95.9375 40.625C95.1629 40.625 94.395 40.7146 93.6379 40.8893L94.9871 46.7357C95.3133 46.6604 95.6288 46.625 95.9375 46.625V40.625ZM93.3638 40.9665C93.018 41.0817 92.5833 41.2202 92.0552 41.3827L93.8198 47.1173C94.375 46.9465 94.857 46.7933 95.2612 46.6585L93.3638 40.9665ZM92.0552 41.3827C91.5544 41.5368 91.0079 41.6931 90.4145 41.8513L91.9605 47.6487C92.6171 47.4736 93.2372 47.2966 93.8198 47.1173L92.0552 41.3827ZM90.3633 41.8654C89.8616 42.0088 89.3363 42.1358 88.7867 42.2458L89.9633 48.1292C90.6637 47.9892 91.3467 47.8246 92.0117 47.6346L90.3633 41.8654ZM88.8818 42.2283C88.5279 42.2873 88.2143 42.3125 87.9375 42.3125V48.3125C88.5774 48.3125 89.2221 48.2544 89.8682 48.1467L88.8818 42.2283ZM87.9375 42.3125H87.4375V48.3125H87.9375V42.3125ZM87.7688 42.3308C87.7411 42.3278 87.7294 42.3231 87.7166 42.3167L85.0334 47.6833C85.6872 48.0102 86.3839 48.2139 87.1062 48.2942L87.7688 42.3308ZM87.7166 42.3167C87.2039 42.0603 86.6653 41.8553 86.1026 41.7146L84.6474 47.5354C84.7513 47.5614 84.8794 47.6063 85.0334 47.6833L87.7166 42.3167ZM85.82 41.6582C84.8339 41.5103 83.8308 41.4375 82.8125 41.4375V47.4375C83.5442 47.4375 84.2495 47.4897 84.93 47.5918L85.82 41.6582ZM82.8125 41.4375H81.8125V47.4375H82.8125V41.4375ZM81.3882 41.4677C81.2357 41.4894 81.0858 41.5 80.9375 41.5V47.5C81.3726 47.5 81.806 47.4689 82.2368 47.4073L81.3882 41.4677ZM80.9375 41.5C80.2037 41.5 79.496 41.4334 78.8113 41.303L77.6887 47.197C78.754 47.3999 79.838 47.5 80.9375 47.5V41.5ZM78.8383 41.3083C78.8289 41.3064 78.7956 41.2999 78.7266 41.2538L75.3984 46.2462C76.0794 46.7001 76.8378 47.027 77.6617 47.1917L78.8383 41.3083ZM78.7266 41.2538C78.0847 40.8259 77.2654 40.5 76.3125 40.5V46.5C75.8596 46.5 75.5403 46.3407 75.3984 46.2462L78.7266 41.2538ZM76.3125 40.5C75.694 40.5 75.0386 40.6266 74.4084 40.9417L77.0916 46.3083C76.7947 46.4567 76.5143 46.5 76.3125 46.5V40.5ZM77.6706 41.3203C76.807 40.6007 75.8796 39.9359 74.8916 39.3242L71.7334 44.4258C72.4954 44.8975 73.193 45.3993 73.8294 45.9297L77.6706 41.3203ZM74.8916 39.3242C74.0347 38.7937 73.1992 38.2639 72.385 37.7347L69.115 42.7653C69.9675 43.3194 70.8403 43.8729 71.7334 44.4258L74.8916 39.3242ZM72.4704 37.7923C71.6838 37.2417 70.9175 36.6719 70.1714 36.0829L66.4536 40.7921C67.2908 41.4531 68.1495 42.0916 69.0296 42.7077L72.4704 37.7923ZM70.2449 36.1428C69.7192 35.7001 69.27 35.1705 68.8953 34.5363L63.7297 37.5887C64.4383 38.7879 65.3225 39.8416 66.3801 40.7322L70.2449 36.1428ZM68.8703 34.4948C68.2623 33.5028 67.8222 32.4038 67.5572 31.1785L61.6928 32.4465C62.0945 34.3045 62.7794 36.0388 63.7547 37.6302L68.8703 34.4948ZM67.5572 31.1785C67.2669 29.8358 67.0991 28.3996 67.0616 26.8644L61.0634 27.0106C61.1093 28.8921 61.3164 30.7058 61.6928 32.4465L67.5572 31.1785ZM67.0625 26.9375V26.0625H61.0625V26.9375H67.0625ZM67.0625 26.0625C67.0625 24.7637 67.1389 23.4399 67.2931 22.0906L61.3319 21.4094C61.1528 22.9767 61.0625 24.528 61.0625 26.0625H67.0625ZM67.2996 22.0279C67.4639 20.2613 67.6487 18.5161 67.854 16.7921L61.896 16.0829C61.6846 17.8589 61.4944 19.6554 61.3254 21.4721L67.2996 22.0279ZM67.5063 17.8784C68.4782 16.1036 69.4289 14.3079 70.3582 12.4914L65.0168 9.75857C64.1128 11.5254 63.1884 13.2714 62.2437 14.9966L67.5063 17.8784ZM70.3708 12.4666C71.1851 10.838 72.1352 9.39993 73.2153 8.13987L68.6597 4.23513C67.2398 5.89173 66.0233 7.74529 65.0042 9.78336L70.3708 12.4666ZM72.5792 8.69841C73.595 8.03428 74.6052 7.43236 75.6098 6.89141L72.7652 1.60859C71.6031 2.23431 70.4467 2.92406 69.2958 3.67659L72.5792 8.69841ZM75.5685 6.91326C76.6144 6.3709 77.8375 5.79784 79.2443 5.19494L76.8807 -0.319935C75.3709 0.327159 74.0106 0.962431 72.8065 1.58674L75.5685 6.91326ZM79.2314 5.2004C80.0892 4.83749 81.087 4.53987 82.2404 4.32362L81.1346 -1.57362C79.6213 -1.28987 78.2024 -0.879152 76.8936 -0.325402L79.2314 5.2004ZM82.31 4.3097C83.5306 4.05079 84.7962 3.88261 86.1086 3.80761L85.7664 -2.18261C84.1622 -2.09095 82.5944 -1.88412 81.065 -1.5597L82.31 4.3097ZM85.9375 3.8125H87.25V-2.1875H85.9375V3.8125ZM87.25 3.8125C88.2116 3.8125 89.1734 3.85096 90.1358 3.92795L90.6142 -2.05295C89.4932 -2.14263 88.3718 -2.1875 87.25 -2.1875V3.8125ZM90.0437 3.91915C91.3731 4.06686 92.6589 4.32453 93.9035 4.6906L95.5965 -1.0656C94.0078 -1.53287 92.3769 -1.85853 90.7063 -2.04415L90.0437 3.91915ZM93.8677 4.67984C94.219 4.78791 94.7422 4.99347 95.4657 5.33621L98.0343 -0.0862135C97.1745 -0.493473 96.3644 -0.829576 95.6323 -1.05484L93.8677 4.67984ZM95.6358 5.41043C96.3729 5.70527 97.0909 6.03668 97.7903 6.40475L100.585 1.09525C99.7007 0.629986 98.7937 0.2114 97.8642 -0.16043L95.6358 5.41043ZM97.9564 6.48576C98.6629 6.80367 99.2991 7.14916 99.8702 7.51871L103.13 2.48129C102.284 1.93417 101.379 1.44633 100.419 1.01424L97.9564 6.48576ZM100.043 7.62247C100.7 7.98727 101.139 8.28547 101.413 8.50937L105.212 3.86563C104.569 3.33953 103.8 2.84606 102.957 2.37753L100.043 7.62247ZM101.438 8.53011C101.812 8.82919 102.066 9.12785 102.24 9.41849L107.385 6.33151C106.809 5.37215 106.063 4.54581 105.187 3.84489L101.438 8.53011ZM102.371 9.61871C102.713 10.0973 103.019 10.5906 103.29 11.0993L108.585 8.27574C108.189 7.53435 107.745 6.8194 107.254 6.13129L102.371 9.61871ZM103.365 11.231C103.69 11.772 103.974 12.3054 104.219 12.8312L109.656 10.2938C109.318 9.56963 108.935 8.85304 108.51 8.14401L103.365 11.231ZM104.29 12.9743C104.724 13.7871 105.239 14.5467 105.835 15.2503L110.415 11.3747C110.094 10.9949 109.818 10.5879 109.585 10.1507L104.29 12.9743ZM105.128 13.4428C105.175 14.5349 105.295 15.5962 105.49 16.6238L111.385 15.5012C111.247 14.7788 111.158 14.0068 111.122 13.1822L105.128 13.4428ZM105.519 16.7574C105.717 17.5885 105.895 18.419 106.053 19.2488L111.947 18.1262C111.772 17.206 111.575 16.2865 111.356 15.3676L105.519 16.7574ZM106.053 19.2488C106.211 20.0787 106.349 20.908 106.468 21.7368L112.407 20.8882C112.276 19.967 112.122 19.0463 111.947 18.1262L106.053 19.2488ZM106.461 21.6846C106.529 22.2288 106.562 22.7712 106.562 23.3125H112.562C112.562 22.5205 112.513 21.7295 112.414 20.9404L106.461 21.6846ZM106.562 23.3125V24H112.562V23.3125H106.562ZM109.046 20.497C108.545 15.7628 107.097 11.7384 104.423 8.74962L99.9518 12.7504C101.528 14.5116 102.663 17.1955 103.079 21.128L109.046 20.497ZM104.423 8.74962C101.862 5.8875 98.3997 3.84754 94.2234 2.51664L92.4016 8.23336C95.8087 9.31913 98.2626 10.8625 99.9518 12.7504L104.423 8.74962ZM94.1154 2.48445C93.3736 2.27838 92.5682 2.05124 91.6992 1.80293L90.0508 7.57207C90.9318 7.82376 91.7514 8.05496 92.5096 8.26555L94.1154 2.48445ZM91.8661 1.85592C90.9101 1.52134 89.9739 1.26997 89.084 1.15132L88.291 7.09868C88.6511 7.1467 89.1732 7.27033 89.8839 7.51908L91.8661 1.85592ZM88.6875 1.125H88.5625V7.125H88.6875V1.125ZM88.5625 1.125C87.7051 1.125 86.886 1.39803 86.2 1.9125L89.8 6.7125C89.4474 6.97697 89.0033 7.125 88.5625 7.125V1.125ZM86.1259 1.96989C86.2946 1.83494 86.4926 1.72561 86.7076 1.65395C86.9193 1.58338 87.1076 1.5625 87.25 1.5625V7.5625C88.1552 7.5625 89.0833 7.28776 89.8741 6.65511L86.1259 1.96989ZM87.25 1.5625C87.2935 1.5625 87.4772 1.57201 87.7166 1.69172L85.0334 7.05828C85.7728 7.42799 86.5399 7.5625 87.25 7.5625V1.5625ZM88.2491 2.03239C87.6603 1.56139 86.8111 1.125 85.75 1.125V7.125C85.1056 7.125 84.673 6.85528 84.5009 6.71761L88.2491 2.03239ZM85.6225 1.12771C81.1555 1.3178 77.136 2.66248 73.6649 5.2047L77.2101 10.0453C79.6557 8.25418 82.5112 7.26554 85.8775 7.12229L85.6225 1.12771ZM73.6709 5.20029C70.3006 7.65579 67.8211 10.8381 66.2771 14.6983L71.8479 16.9267C72.9705 14.1202 74.741 11.8442 77.2041 10.0497L73.6709 5.20029ZM66.1483 15.1001C65.6787 17.0211 65.2717 18.8841 64.928 20.6887L70.822 21.8113C71.145 20.1159 71.5296 18.3539 71.9767 16.5249L66.1483 15.1001ZM64.9394 20.632C64.5653 22.4085 64.375 24.1782 64.375 25.9375H70.375C70.375 24.6135 70.518 23.2582 70.8106 21.868L64.9394 20.632ZM64.375 25.9375V26.5H70.375V25.9375H64.375ZM64.3754 26.5461C64.4239 29.6984 65.1578 32.581 66.6969 35.0753L71.8031 31.9247C70.9255 30.5024 70.4095 28.7182 70.3746 26.4539L64.3754 26.5461ZM66.6969 35.0753C68.1269 37.393 69.969 39.3141 72.2109 40.8087L75.5391 35.8163C74.031 34.8109 72.7897 33.5237 71.8031 31.9247L66.6969 35.0753ZM72.2751 40.8503C74.4994 42.2526 76.9647 43.251 79.6454 43.8624L80.9796 38.0126C78.9103 37.5407 77.0839 36.7891 75.4749 35.7747L72.2751 40.8503ZM79.6617 43.8661C81.7499 44.3301 83.864 44.5625 86 44.5625V38.5625C84.3027 38.5625 82.6251 38.3782 80.9633 38.0089L79.6617 43.8661ZM86 44.5625C86.583 44.5625 87.1809 44.5382 87.7926 44.4912L87.3324 38.5088C86.8608 38.5451 86.417 38.5625 86 38.5625V44.5625ZM87.7148 44.4961C90.4516 44.357 93.0904 43.8452 95.6207 42.9549L93.6293 37.2951C91.6596 37.9881 89.5901 38.393 87.4102 38.5039L87.7148 44.4961ZM95.6502 42.9444C98.2501 41.999 100.569 40.6797 102.573 38.9692L98.6772 34.4058C97.2643 35.612 95.5832 36.5844 93.5998 37.3056L95.6502 42.9444ZM102.947 38.5872C103.798 37.5472 104.607 36.3883 105.377 35.1194L100.248 32.0056C99.6018 33.0701 98.9522 33.9944 98.3031 34.7878L102.947 38.5872ZM105.401 35.0797C106.191 33.7305 106.883 32.2984 107.479 30.7871L101.896 28.5879C101.408 29.8266 100.85 30.9779 100.224 32.0453L105.401 35.0797ZM107.479 30.7871C108.09 29.2358 108.557 27.6215 108.882 25.9476L102.993 24.8024C102.735 26.1285 102.368 27.3892 101.896 28.5879L107.479 30.7871ZM108.885 25.9363C109.089 24.8629 109.188 23.7576 109.188 22.625H103.188C103.188 23.4091 103.119 24.1371 102.99 24.8137L108.885 25.9363ZM109.188 22.625C109.188 21.8666 109.137 21.1203 109.032 20.3882L103.093 21.2368C103.155 21.6714 103.188 22.1334 103.188 22.625H109.188ZM124.188 31.875L127.186 31.9749L127.188 31.925V31.875H124.188ZM123.875 39.375L120.879 39.2252L120.877 39.2501L120.877 39.2751L123.875 39.375ZM122.688 46.5L119.826 45.5991L119.63 46.2231L119.711 46.8721L122.688 46.5ZM122.375 48.8125L124.68 50.7331L124.729 50.674L124.775 50.6125L122.375 48.8125ZM120.938 49.5625V46.5625H119.695L118.816 47.4412L120.938 49.5625ZM119.25 49L121.171 46.6953L121.068 46.6096L120.958 46.5334L119.25 49ZM118.312 47.3125L115.762 45.7334L115.216 46.6142L115.331 47.6438L118.312 47.3125ZM119.5 44.5625L116.63 43.689L116.612 43.7468L116.597 43.8052L119.5 44.5625ZM120.062 41.5625L117.082 41.2186L117.076 41.2709L117.072 41.3233L120.062 41.5625ZM120.375 35L123.367 35.2216L123.367 35.2137L120.375 35ZM120.625 25.6875H123.625V25.648L123.624 25.6086L120.625 25.6875ZM120 16.1875L122.984 15.8734L122.983 15.8679L120 16.1875ZM118.938 9.0625L121.93 8.84876L121.928 8.82567L121.926 8.80261L118.938 9.0625ZM118.688 6.5L115.704 6.81405L115.705 6.82268L115.706 6.83129L118.688 6.5ZM117.875 4.25L114.933 3.66165L114.694 4.85662L115.356 5.87975L117.875 4.25ZM118.438 3.1875L120.559 5.30882L118.438 3.1875ZM119.562 2.5L118.835 -0.410428L118.767 -0.393516L118.7 -0.373479L119.562 2.5ZM120.75 2.5L121.612 -0.373479L121.477 -0.414051L121.338 -0.441742L120.75 2.5ZM121.875 3.25L124.869 3.05685L124.802 2.0277L124.117 1.25691L121.875 3.25ZM122.688 10.375L119.706 10.7063L119.713 10.7689L119.722 10.8312L122.688 10.375ZM123.062 13.5625H126.062V13.4427L126.053 13.3233L123.062 13.5625ZM122.938 16.625L119.961 16.2529L119.886 16.8533L120.049 17.4358L122.938 16.625ZM124.125 24.0625L127.124 23.9958L127.123 23.9567L127.121 23.9175L124.125 24.0625ZM121.189 31.7751C121.106 34.2584 121.003 36.7418 120.879 39.2252L126.871 39.5248C126.997 37.0082 127.102 34.4916 127.186 31.9749L121.189 31.7751ZM120.877 39.2751C120.802 41.5195 120.448 43.6239 119.826 45.5991L125.549 47.4009C126.344 44.8761 126.781 42.2305 126.873 39.4749L120.877 39.2751ZM119.711 46.8721C119.742 47.121 119.75 47.2833 119.75 47.375H125.75C125.75 46.9667 125.717 46.5457 125.664 46.1279L119.711 46.8721ZM119.75 47.375C119.75 47.4954 119.737 47.5082 119.753 47.4459C119.771 47.3782 119.827 47.2103 119.975 47.0125L124.775 50.6125C125.566 49.5579 125.75 48.3406 125.75 47.375H119.75ZM120.07 46.8919C120.065 46.8982 120.14 46.807 120.315 46.7152C120.505 46.6162 120.726 46.5625 120.938 46.5625V52.5625C122.55 52.5625 123.82 51.765 124.68 50.7331L120.07 46.8919ZM118.816 47.4412C119.102 47.1559 119.778 46.625 120.812 46.625V52.625C121.93 52.625 122.69 52.0525 123.059 51.6838L118.816 47.4412ZM120.812 46.625C120.937 46.625 121.049 46.6509 121.13 46.6833C121.204 46.7131 121.217 46.7337 121.171 46.6953L117.329 51.3047C118.255 52.0763 119.435 52.625 120.812 52.625V46.625ZM120.958 46.5334C121.056 46.6014 121.159 46.7091 121.232 46.8399C121.299 46.9611 121.299 47.0282 121.294 46.9812L115.331 47.6438C115.495 49.117 116.179 50.523 117.542 51.4666L120.958 46.5334ZM120.863 48.8916C121.556 47.7718 122.074 46.5793 122.403 45.3198L116.597 43.8052C116.426 44.4624 116.152 45.1032 115.762 45.7334L120.863 48.8916ZM122.37 45.436C122.727 44.2625 122.953 43.0493 123.053 41.8017L117.072 41.3233C117.005 42.1591 116.856 42.9459 116.63 43.689L122.37 45.436ZM123.043 41.9064C123.181 40.7096 123.25 39.5115 123.25 38.3125H117.25C117.25 39.2802 117.194 40.2487 117.082 41.2186L123.043 41.9064ZM123.25 38.3125C123.25 37.3061 123.289 36.2759 123.367 35.2216L117.383 34.7784C117.295 35.9741 117.25 37.1523 117.25 38.3125H123.25ZM123.367 35.2137C123.539 32.807 123.625 30.3606 123.625 27.875H117.625C117.625 30.2227 117.544 32.5264 117.383 34.7863L123.367 35.2137ZM123.625 27.875V25.6875H117.625V27.875H123.625ZM123.624 25.6086C123.539 22.363 123.325 19.1179 122.984 15.8734L117.016 16.5016C117.342 19.5905 117.545 22.6787 117.626 25.7664L123.624 25.6086ZM122.983 15.8679C122.847 14.5997 122.644 13.3159 122.375 12.0172L116.5 13.2328C116.731 14.3507 116.903 15.442 117.017 16.5071L122.983 15.8679ZM122.375 12.0172C122.151 10.9318 122.003 9.87599 121.93 8.84876L115.945 9.27624C116.038 10.5823 116.224 11.9015 116.5 13.2328L122.375 12.0172ZM121.926 8.80261C121.841 7.82655 121.756 6.94787 121.669 6.16871L115.706 6.83129C115.786 7.55213 115.867 8.38178 115.949 9.32239L121.926 8.80261ZM121.671 6.18595C121.535 4.89727 121.092 3.70018 120.394 2.62025L115.356 5.87975C115.574 6.21649 115.673 6.5194 115.704 6.81405L121.671 6.18595ZM120.817 4.83835C120.805 4.89722 120.779 4.98129 120.729 5.07554C120.679 5.17046 120.618 5.24945 120.559 5.30882L116.316 1.06618C115.593 1.78984 115.129 2.68278 114.933 3.66165L120.817 4.83835ZM120.559 5.30882C120.57 5.29774 120.562 5.3078 120.533 5.32547C120.503 5.34374 120.465 5.36124 120.425 5.37348L118.7 -0.373479C117.769 -0.0940629 116.97 0.411908 116.316 1.06618L120.559 5.30882ZM120.29 5.41043C120.175 5.43926 120.112 5.4375 120.125 5.4375V-0.5625C119.721 -0.5625 119.284 -0.522594 118.835 -0.410428L120.29 5.41043ZM120.125 5.4375C120.132 5.4375 120.143 5.43805 120.162 5.44174L121.338 -0.441742C120.94 -0.521384 120.535 -0.5625 120.125 -0.5625V5.4375ZM119.888 5.37348C119.802 5.34756 119.73 5.31121 119.68 5.2774C119.631 5.24509 119.618 5.22594 119.633 5.24309L124.117 1.25691C123.472 0.531163 122.639 -0.0653748 121.612 -0.373479L119.888 5.37348ZM118.881 3.44315C118.969 4.80471 119.102 6.11137 119.28 7.36176L125.22 6.51324C125.065 5.4303 124.948 4.27862 124.869 3.05685L118.881 3.44315ZM119.28 7.36176C119.443 8.49876 119.584 9.61358 119.706 10.7063L125.669 10.0437C125.541 8.88642 125.391 7.70957 125.22 6.51324L119.28 7.36176ZM119.722 10.8312C119.879 11.846 119.995 12.8361 120.072 13.8017L126.053 13.3233C125.964 12.2056 125.83 11.0707 125.653 9.91883L119.722 10.8312ZM120.062 13.5625V14.5625H126.062V13.5625H120.062ZM120.062 14.5625C120.062 15.1531 120.028 15.7161 119.961 16.2529L125.914 16.9971C126.014 16.2005 126.062 15.3885 126.062 14.5625H120.062ZM120.049 17.4358C120.652 19.5834 121.014 21.8386 121.129 24.2075L127.121 23.9175C126.986 21.1198 126.556 18.4166 125.826 15.8142L120.049 17.4358ZM121.126 24.1292C121.167 25.9819 121.188 27.8347 121.188 29.6875H127.188C127.188 27.7903 127.166 25.8931 127.124 23.9958L121.126 24.1292ZM121.188 29.6875V31.875H127.188V29.6875H121.188Z" fill="#34D399" mask="url(#path-1-outside-1_84_92)"/>
</svg>
