<svg width="100" height="100" viewBox="0 0 100 100" fill="none" xmlns="http://www.w3.org/2000/svg">
<path d="M59.8337 16.9944L63.6954 13.1324C70.0942 6.73362 80.4687 6.73362 86.8675 13.1324C93.2662 19.5312 93.2662 29.9056 86.8675 36.3044L83.0054 40.1664M59.8337 16.9944C59.8337 16.9944 60.3162 25.2012 67.5575 32.4424C74.7987 39.6836 83.0054 40.1664 83.0054 40.1664M59.8337 16.9944L50 26.828M83.0054 40.1664L61.0862 62.0858L48.1721 75L47.5004 75.6716C45.0954 78.0762 43.8933 79.2787 42.5675 80.3129C41.0034 81.5329 39.3112 82.5787 37.5207 83.4321C36.0029 84.1554 34.3897 84.6929 31.1632 85.7683L17.4913 90.3258M17.4913 90.3258L14.1493 91.44C12.5616 91.9692 10.8111 91.5558 9.62762 90.3725C8.44417 89.1887 8.03096 87.4383 8.56021 85.8508L9.67421 82.5087M17.4913 90.3258L9.67421 82.5087M9.67421 82.5087L14.2315 68.8367C15.307 65.6104 15.8447 63.9971 16.5681 62.4792C17.4214 60.6887 18.4672 58.9967 19.6871 57.4325C20.7212 56.1067 21.9236 54.9046 24.3284 52.4996L35.4167 41.4113" stroke="#1C274C" stroke-width="4" stroke-linecap="round"/>
</svg>
