<svg width="100" height="100" viewBox="0 0 100 100" fill="none" xmlns="http://www.w3.org/2000/svg">
<path d="M49.9999 41.6667C59.2047 41.6667 66.6666 34.2048 66.6666 25C66.6666 15.7953 59.2047 8.33334 49.9999 8.33334C40.7952 8.33334 33.3333 15.7953 33.3333 25C33.3333 34.2048 40.7952 41.6667 49.9999 41.6667Z" stroke="#303030" stroke-width="4"/>
<path d="M62.4999 85.8963C58.7112 86.9246 54.4733 87.5 49.9999 87.5C33.8916 87.5 20.8333 80.0379 20.8333 70.8334C20.8333 61.6288 33.8916 54.1667 49.9999 54.1667C66.1082 54.1667 79.1666 61.6288 79.1666 70.8334C79.1666 72.2721 78.8474 73.6684 78.2478 75" stroke="#303030" stroke-width="4" stroke-linecap="round"/>
</svg>
