<svg width="100" height="100" viewBox="0 0 100 100" fill="none" xmlns="http://www.w3.org/2000/svg">
<rect width="100" height="100" fill="#34D399"/>
<path d="M50 41.6666C59.2048 41.6666 66.6667 34.2047 66.6667 25C66.6667 15.7952 59.2048 8.33331 50 8.33331C40.7953 8.33331 33.3333 15.7952 33.3333 25C33.3333 34.2047 40.7953 41.6666 50 41.6666Z" stroke="white" stroke-width="4"/>
<path d="M62.5 85.8962C58.7113 86.9245 54.4733 87.5 50 87.5C33.8917 87.5 20.8333 80.0379 20.8333 70.8333C20.8333 61.6287 33.8917 54.1666 50 54.1666C66.1083 54.1666 79.1667 61.6287 79.1667 70.8333C79.1667 72.272 78.8475 73.6683 78.2479 75" stroke="white" stroke-width="4" stroke-linecap="round"/>
</svg>
