<svg width="100" height="100" viewBox="0 0 100 100" fill="none" xmlns="http://www.w3.org/2000/svg">
<path d="M8.33334 58.3333C8.33334 42.62 8.33334 34.7631 13.2149 29.8815C18.0965 25 25.9532 25 41.6667 25H58.3333C74.0467 25 81.9038 25 86.785 29.8815C89.5067 32.6031 90.7108 36.2495 91.2438 41.6667M91.6667 58.3333C91.6667 74.0467 91.6667 81.9037 86.785 86.785C81.9038 91.6667 74.0467 91.6667 58.3333 91.6667H41.6667C25.9533 91.6667 18.0964 91.6667 13.2149 86.785C10.4933 84.0633 9.28904 80.4171 8.75621 75" stroke="#303030" stroke-width="4" stroke-linecap="round"/>
<path d="M66.6667 25C66.6667 17.1433 66.6667 13.2149 64.2258 10.7741C61.785 8.33334 57.8567 8.33334 50 8.33334C42.1433 8.33334 38.2149 8.33334 35.7741 10.7741C33.3333 13.2149 33.3333 17.1433 33.3333 25" stroke="#303030" stroke-width="4"/>
<path d="M68.8333 37.5C68.8333 38.6966 67.8633 39.6667 66.6667 39.6667C65.47 39.6667 64.5 38.6966 64.5 37.5C64.5 36.3034 65.47 35.3333 66.6667 35.3333C67.8633 35.3333 68.8333 36.3034 68.8333 37.5Z" fill="#1C274C" stroke="#303030" stroke-width="4"/>
<path d="M35.5 37.5C35.5 38.6966 34.5299 39.6667 33.3333 39.6667C32.1367 39.6667 31.1667 38.6966 31.1667 37.5C31.1667 36.3034 32.1367 35.3333 33.3333 35.3333C34.5299 35.3333 35.5 36.3034 35.5 37.5Z" fill="#1C274C" stroke="#303030" stroke-width="4"/>
</svg>
