<svg width="192" height="192" viewBox="0 0 192 192" fill="none" xmlns="http://www.w3.org/2000/svg">
<g clip-path="url(#clip0_37_37)">
<path d="M101.709 118.139H90.2907L90.2907 0.000427246H81.3657L81.3657 70.1448V119.375C81.3657 128.683 87.9305 136.256 95.9997 136.256C104.069 136.256 110.634 128.683 110.634 119.375V70.1448V0H101.709V118.139Z" fill="#FDBA74"/>
<path d="M20.337 35.0448L20.337 85.3586H8.91939L8.91939 51.0391C3.30751 61.6106 0.0761252 73.7787 0 86.7272C0.118875 95.1652 6.63301 101.992 14.6284 101.992C22.6973 101.992 29.2624 95.0397 29.2624 86.4937V77.5831L29.2624 27C26.0779 29.4171 23.0925 32.1098 20.337 35.0448Z" fill="#FDBA74"/>
<path d="M81.3662 143.163V192H90.2912V168.509H101.709V192H110.634V143.163C106.46 147.688 101.422 150.339 96.0002 150.339C90.5789 150.339 85.54 147.688 81.3662 143.163Z" fill="#FDBA74"/>
<path d="M171.663 35.0448C168.907 32.109 165.922 29.4171 162.738 27V77.5828V86.4934C162.738 95.0389 169.302 101.992 177.372 101.992C185.367 101.992 191.881 95.1649 192 86.7269C191.924 73.7789 188.692 61.6104 183.081 51.0394V85.3587H171.663V35.0448Z" fill="#FDBA74"/>
<path d="M61.0231 0.816811V34.1106H49.6051V4.38887C46.5361 5.7517 43.5556 7.41439 40.6801 9.35556V57.4036C44.8542 53.2444 49.8927 50.8088 55.3141 50.8088C60.7355 50.8088 65.7736 53.2444 69.9481 57.4036V0H69.8769C66.8787 0.000545502 63.9237 0.278481 61.0231 0.816811Z" fill="#FDBA74"/>
<path d="M122.052 81.3673V131.109V192H122.123C125.122 192 128.077 191.778 130.977 191.349V82.6156H142.395V188.501C145.464 187.415 148.444 186.089 151.32 184.541V91.1741V81.3678C151.32 71.9631 144.755 64.3111 136.686 64.3111C128.617 64.3107 122.052 71.9627 122.052 81.3673Z" fill="#FDBA74"/>
<path d="M122.052 57.404C126.226 53.4621 131.265 51.1538 136.686 51.1538C142.107 51.1538 147.146 53.4621 151.32 57.404V11.8667C148.444 10.027 145.464 8.45064 142.395 7.15955V35.3282H130.977V3.77414C128.077 3.26394 125.122 3 122.123 3H122.052V57.404Z" fill="#FDBA74"/>
<path d="M162.738 108.899V164C165.922 161.578 168.907 158.88 171.663 155.938V125.81H183.081V139.91C187.983 130.656 191.07 120.181 191.823 109.03C187.684 111.969 182.714 113.687 177.372 113.687C171.951 113.687 166.912 111.918 162.738 108.899Z" fill="#FDBA74"/>
<path d="M14.6284 113.687C9.28614 113.687 4.31588 111.969 0.177368 109.03C0.92962 120.181 4.017 130.656 8.91939 139.91V125.81H20.3374L20.3374 155.938C23.0925 158.88 26.0779 161.578 29.2624 164L29.2624 108.899C25.0883 111.918 20.0494 113.687 14.6284 113.687Z" fill="#FDBA74"/>
<path d="M40.6801 81.3671V91.1734L40.6801 184.541C43.5559 186.088 46.5361 187.415 49.6051 188.501L49.6051 82.6162H61.0231L61.0231 191.349C63.9233 191.778 66.8784 192 69.8769 192H69.9481V131.109V81.3666C69.9481 71.962 63.3833 64.31 55.3141 64.31C47.2448 64.3104 40.6801 71.9624 40.6801 81.3671Z" fill="#FDBA74"/>
</g>
<defs>
<clipPath id="clip0_37_37">
<rect y="192" width="192" height="192" rx="96" transform="rotate(-90 0 192)" fill="white"/>
</clipPath>
</defs>
</svg>
